G04 EAGLE Gerber RS-274X export*
G75*
%MOMM*%
%FSLAX34Y34*%
%LPD*%
%INBottom Copper*%
%IPPOS*%
%AMOC8*
5,1,8,0,0,1.08239X$1,22.5*%
G01*
%ADD10C,1.524000*%
%ADD11P,1.429621X8X292.500000*%
%ADD12C,2.540000*%
%ADD13P,2.749271X8X292.500000*%
%ADD14P,1.429621X8X112.500000*%
%ADD15P,2.749271X8X112.500000*%
%ADD16C,1.930400*%
%ADD17R,4.016000X4.016000*%
%ADD18C,4.016000*%
%ADD19C,1.408000*%
%ADD20P,1.814519X8X112.500000*%
%ADD21P,1.429621X8X202.500000*%
%ADD22P,1.429621X8X22.500000*%
%ADD23C,2.184400*%
%ADD24C,1.473200*%
%ADD25R,1.530000X1.530000*%
%ADD26C,1.530000*%
%ADD27C,3.516000*%
%ADD28C,1.508000*%
%ADD29R,1.508000X1.508000*%
%ADD30C,1.524000*%
%ADD31C,2.000000*%
%ADD32C,1.108000*%
%ADD33R,1.108000X1.108000*%
%ADD34C,0.203200*%
%ADD35C,1.750000*%
%ADD36C,0.756400*%

G36*
X772290Y10935D02*
X772290Y10935D01*
X772389Y10938D01*
X772447Y10955D01*
X772508Y10963D01*
X772600Y10999D01*
X772695Y11027D01*
X772747Y11057D01*
X772803Y11080D01*
X772883Y11138D01*
X772969Y11188D01*
X773044Y11254D01*
X773061Y11266D01*
X773068Y11276D01*
X773089Y11294D01*
X794501Y32706D01*
X794557Y32779D01*
X794621Y32845D01*
X794654Y32904D01*
X794696Y32957D01*
X794732Y33042D01*
X794778Y33122D01*
X794815Y33233D01*
X794822Y33249D01*
X794823Y33257D01*
X794829Y33275D01*
X796554Y39712D01*
X799866Y45449D01*
X804551Y50134D01*
X810288Y53446D01*
X816725Y55171D01*
X816811Y55206D01*
X816900Y55231D01*
X816958Y55266D01*
X817020Y55291D01*
X817094Y55346D01*
X817174Y55393D01*
X817262Y55470D01*
X817275Y55481D01*
X817281Y55487D01*
X817294Y55499D01*
X838706Y76911D01*
X838766Y76989D01*
X838834Y77061D01*
X838863Y77114D01*
X838900Y77162D01*
X838940Y77253D01*
X838988Y77339D01*
X839003Y77398D01*
X839027Y77454D01*
X839042Y77552D01*
X839067Y77647D01*
X839073Y77747D01*
X839077Y77768D01*
X839075Y77780D01*
X839077Y77808D01*
X839077Y722192D01*
X839065Y722290D01*
X839062Y722389D01*
X839045Y722447D01*
X839037Y722508D01*
X839001Y722600D01*
X838973Y722695D01*
X838943Y722747D01*
X838920Y722803D01*
X838862Y722883D01*
X838812Y722969D01*
X838746Y723044D01*
X838734Y723061D01*
X838724Y723068D01*
X838706Y723089D01*
X803089Y758706D01*
X803011Y758766D01*
X802939Y758834D01*
X802886Y758863D01*
X802838Y758900D01*
X802747Y758940D01*
X802661Y758988D01*
X802602Y759003D01*
X802546Y759027D01*
X802448Y759042D01*
X802353Y759067D01*
X802253Y759073D01*
X802232Y759077D01*
X802220Y759075D01*
X802192Y759077D01*
X471195Y759077D01*
X471045Y759058D01*
X470892Y759041D01*
X470886Y759038D01*
X470879Y759037D01*
X470738Y758982D01*
X470595Y758927D01*
X470590Y758923D01*
X470583Y758920D01*
X470460Y758831D01*
X470336Y758743D01*
X470332Y758738D01*
X470326Y758734D01*
X470229Y758616D01*
X470131Y758500D01*
X470128Y758494D01*
X470123Y758489D01*
X470059Y758351D01*
X469992Y758214D01*
X469991Y758207D01*
X469988Y758201D01*
X469959Y758052D01*
X469929Y757902D01*
X469929Y757895D01*
X469928Y757889D01*
X469937Y757737D01*
X469945Y757584D01*
X469947Y757578D01*
X469948Y757571D01*
X469995Y757427D01*
X470040Y757281D01*
X470044Y757275D01*
X470046Y757269D01*
X470128Y757139D01*
X470207Y757010D01*
X470212Y757006D01*
X470216Y757000D01*
X470328Y756895D01*
X470437Y756790D01*
X470443Y756787D01*
X470448Y756782D01*
X470581Y756709D01*
X470714Y756633D01*
X470722Y756631D01*
X470726Y756628D01*
X470736Y756626D01*
X470866Y756582D01*
X474097Y755716D01*
X480120Y752239D01*
X485039Y747320D01*
X488516Y741297D01*
X490317Y734578D01*
X490317Y727622D01*
X488516Y720903D01*
X485039Y714880D01*
X480120Y709961D01*
X474097Y706484D01*
X467378Y704683D01*
X460422Y704683D01*
X453703Y706484D01*
X447680Y709961D01*
X442761Y714880D01*
X439284Y720903D01*
X437483Y727622D01*
X437483Y734578D01*
X439284Y741297D01*
X442761Y747320D01*
X447680Y752239D01*
X453703Y755716D01*
X456934Y756582D01*
X457075Y756640D01*
X457217Y756696D01*
X457222Y756700D01*
X457228Y756702D01*
X457351Y756793D01*
X457474Y756882D01*
X457478Y756888D01*
X457484Y756892D01*
X457579Y757010D01*
X457677Y757127D01*
X457680Y757134D01*
X457684Y757139D01*
X457747Y757277D01*
X457812Y757415D01*
X457813Y757422D01*
X457816Y757428D01*
X457843Y757578D01*
X457872Y757728D01*
X457872Y757734D01*
X457873Y757741D01*
X457862Y757894D01*
X457852Y758045D01*
X457850Y758051D01*
X457850Y758058D01*
X457801Y758204D01*
X457754Y758347D01*
X457751Y758353D01*
X457748Y758360D01*
X457665Y758488D01*
X457584Y758616D01*
X457579Y758621D01*
X457575Y758626D01*
X457463Y758730D01*
X457352Y758834D01*
X457347Y758837D01*
X457342Y758842D01*
X457206Y758915D01*
X457074Y758988D01*
X457067Y758989D01*
X457061Y758992D01*
X456913Y759029D01*
X456766Y759067D01*
X456757Y759068D01*
X456753Y759069D01*
X456742Y759069D01*
X456605Y759077D01*
X369595Y759077D01*
X369445Y759058D01*
X369292Y759041D01*
X369286Y759038D01*
X369279Y759037D01*
X369138Y758982D01*
X368995Y758927D01*
X368990Y758923D01*
X368983Y758920D01*
X368860Y758831D01*
X368736Y758743D01*
X368732Y758738D01*
X368726Y758734D01*
X368629Y758616D01*
X368531Y758500D01*
X368528Y758494D01*
X368523Y758489D01*
X368459Y758351D01*
X368392Y758214D01*
X368391Y758207D01*
X368388Y758201D01*
X368359Y758052D01*
X368329Y757902D01*
X368329Y757895D01*
X368328Y757889D01*
X368337Y757737D01*
X368345Y757584D01*
X368347Y757578D01*
X368348Y757571D01*
X368395Y757427D01*
X368440Y757281D01*
X368444Y757275D01*
X368446Y757269D01*
X368528Y757139D01*
X368607Y757010D01*
X368612Y757006D01*
X368616Y757000D01*
X368728Y756895D01*
X368837Y756790D01*
X368843Y756787D01*
X368848Y756782D01*
X368981Y756709D01*
X369114Y756633D01*
X369122Y756631D01*
X369126Y756628D01*
X369136Y756626D01*
X369266Y756582D01*
X372497Y755716D01*
X378520Y752239D01*
X383439Y747320D01*
X386916Y741297D01*
X388717Y734578D01*
X388717Y727622D01*
X386916Y720903D01*
X383439Y714880D01*
X378520Y709961D01*
X372497Y706484D01*
X365778Y704683D01*
X358822Y704683D01*
X352103Y706484D01*
X346080Y709961D01*
X341161Y714880D01*
X337684Y720903D01*
X335883Y727622D01*
X335883Y734578D01*
X337684Y741297D01*
X341161Y747320D01*
X346080Y752239D01*
X352103Y755716D01*
X355334Y756582D01*
X355475Y756640D01*
X355617Y756696D01*
X355622Y756700D01*
X355628Y756702D01*
X355751Y756793D01*
X355874Y756882D01*
X355878Y756888D01*
X355884Y756892D01*
X355979Y757010D01*
X356077Y757127D01*
X356080Y757134D01*
X356084Y757139D01*
X356147Y757277D01*
X356212Y757415D01*
X356213Y757422D01*
X356216Y757428D01*
X356243Y757578D01*
X356272Y757728D01*
X356272Y757734D01*
X356273Y757741D01*
X356262Y757894D01*
X356252Y758045D01*
X356250Y758051D01*
X356250Y758058D01*
X356201Y758204D01*
X356154Y758347D01*
X356151Y758353D01*
X356148Y758360D01*
X356065Y758488D01*
X355984Y758616D01*
X355979Y758621D01*
X355975Y758626D01*
X355863Y758730D01*
X355752Y758834D01*
X355747Y758837D01*
X355742Y758842D01*
X355606Y758915D01*
X355474Y758988D01*
X355467Y758989D01*
X355461Y758992D01*
X355313Y759029D01*
X355166Y759067D01*
X355157Y759068D01*
X355153Y759069D01*
X355142Y759069D01*
X355005Y759077D01*
X157734Y759077D01*
X157596Y759060D01*
X157458Y759047D01*
X157439Y759040D01*
X157418Y759037D01*
X157289Y758986D01*
X157158Y758939D01*
X157142Y758928D01*
X157123Y758920D01*
X157010Y758839D01*
X156895Y758761D01*
X156882Y758745D01*
X156865Y758734D01*
X156777Y758626D01*
X156685Y758522D01*
X156676Y758504D01*
X156663Y758489D01*
X156603Y758363D01*
X156540Y758239D01*
X156536Y758219D01*
X156527Y758201D01*
X156501Y758065D01*
X156471Y757929D01*
X156471Y757908D01*
X156467Y757889D01*
X156476Y757750D01*
X156480Y757611D01*
X156486Y757591D01*
X156487Y757571D01*
X156530Y757439D01*
X156569Y757305D01*
X156579Y757288D01*
X156585Y757269D01*
X156660Y757151D01*
X156730Y757031D01*
X156749Y757010D01*
X156755Y757000D01*
X156770Y756986D01*
X156837Y756911D01*
X162423Y751324D01*
X162423Y748831D01*
X152262Y748831D01*
X152144Y748816D01*
X152025Y748809D01*
X151987Y748796D01*
X151947Y748791D01*
X151836Y748748D01*
X151723Y748711D01*
X151689Y748689D01*
X151651Y748674D01*
X151555Y748605D01*
X151503Y748571D01*
X151485Y748588D01*
X151450Y748608D01*
X151418Y748633D01*
X151311Y748684D01*
X151206Y748742D01*
X151167Y748752D01*
X151131Y748769D01*
X151014Y748791D01*
X150898Y748821D01*
X150838Y748825D01*
X150818Y748829D01*
X150798Y748827D01*
X150738Y748831D01*
X140577Y748831D01*
X140577Y751324D01*
X146163Y756911D01*
X146249Y757020D01*
X146337Y757127D01*
X146346Y757146D01*
X146358Y757162D01*
X146414Y757290D01*
X146473Y757415D01*
X146477Y757435D01*
X146485Y757454D01*
X146507Y757592D01*
X146533Y757728D01*
X146531Y757748D01*
X146535Y757768D01*
X146522Y757907D01*
X146513Y758045D01*
X146507Y758064D01*
X146505Y758084D01*
X146458Y758216D01*
X146415Y758347D01*
X146404Y758365D01*
X146397Y758384D01*
X146319Y758499D01*
X146245Y758616D01*
X146230Y758630D01*
X146219Y758647D01*
X146114Y758739D01*
X146013Y758834D01*
X145995Y758844D01*
X145980Y758857D01*
X145856Y758921D01*
X145735Y758988D01*
X145715Y758993D01*
X145697Y759002D01*
X145561Y759032D01*
X145427Y759067D01*
X145399Y759069D01*
X145387Y759072D01*
X145366Y759071D01*
X145266Y759077D01*
X97808Y759077D01*
X97710Y759065D01*
X97611Y759062D01*
X97553Y759045D01*
X97492Y759037D01*
X97400Y759001D01*
X97305Y758973D01*
X97253Y758943D01*
X97197Y758920D01*
X97117Y758862D01*
X97031Y758812D01*
X96956Y758746D01*
X96939Y758734D01*
X96932Y758724D01*
X96911Y758706D01*
X11294Y673089D01*
X11234Y673011D01*
X11166Y672939D01*
X11143Y672897D01*
X11131Y672883D01*
X11125Y672872D01*
X11100Y672838D01*
X11060Y672747D01*
X11012Y672661D01*
X10997Y672602D01*
X10973Y672546D01*
X10958Y672448D01*
X10933Y672353D01*
X10927Y672253D01*
X10923Y672232D01*
X10925Y672220D01*
X10923Y672192D01*
X10923Y87808D01*
X10935Y87710D01*
X10938Y87611D01*
X10955Y87553D01*
X10963Y87492D01*
X10999Y87400D01*
X11027Y87305D01*
X11057Y87253D01*
X11080Y87197D01*
X11138Y87117D01*
X11188Y87031D01*
X11254Y86956D01*
X11266Y86939D01*
X11276Y86932D01*
X11294Y86911D01*
X86911Y11294D01*
X86989Y11234D01*
X87061Y11166D01*
X87114Y11137D01*
X87162Y11100D01*
X87253Y11060D01*
X87339Y11012D01*
X87398Y10997D01*
X87454Y10973D01*
X87552Y10958D01*
X87647Y10933D01*
X87747Y10927D01*
X87768Y10923D01*
X87780Y10925D01*
X87808Y10923D01*
X772192Y10923D01*
X772290Y10935D01*
G37*
%LPC*%
G36*
X362829Y42493D02*
X362829Y42493D01*
X359188Y44001D01*
X356401Y46788D01*
X354798Y50660D01*
X354783Y50685D01*
X354774Y50713D01*
X354705Y50823D01*
X354640Y50936D01*
X354620Y50957D01*
X354604Y50982D01*
X354510Y51071D01*
X354419Y51164D01*
X354394Y51180D01*
X354372Y51200D01*
X354259Y51263D01*
X354148Y51331D01*
X354120Y51339D01*
X354094Y51354D01*
X353968Y51386D01*
X353844Y51424D01*
X353815Y51426D01*
X353786Y51433D01*
X353625Y51443D01*
X343527Y51443D01*
X341443Y53527D01*
X341443Y126473D01*
X358620Y143650D01*
X358744Y143695D01*
X358761Y143706D01*
X358780Y143714D01*
X358892Y143795D01*
X359008Y143873D01*
X359021Y143889D01*
X359037Y143900D01*
X359126Y144008D01*
X359218Y144112D01*
X359227Y144130D01*
X359240Y144145D01*
X359299Y144271D01*
X359363Y144395D01*
X359367Y144415D01*
X359376Y144433D01*
X359402Y144569D01*
X359432Y144705D01*
X359432Y144726D01*
X359435Y144745D01*
X359427Y144884D01*
X359423Y145023D01*
X359417Y145043D01*
X359416Y145063D01*
X359373Y145195D01*
X359334Y145329D01*
X359324Y145346D01*
X359318Y145365D01*
X359243Y145483D01*
X359173Y145603D01*
X359154Y145624D01*
X359148Y145634D01*
X359133Y145648D01*
X359066Y145723D01*
X356401Y148388D01*
X354893Y152029D01*
X354893Y155971D01*
X356401Y159612D01*
X359188Y162399D01*
X362829Y163907D01*
X366771Y163907D01*
X370412Y162399D01*
X373199Y159612D01*
X374707Y155971D01*
X374707Y152029D01*
X373199Y148388D01*
X370534Y145723D01*
X370448Y145614D01*
X370360Y145507D01*
X370351Y145488D01*
X370339Y145472D01*
X370283Y145344D01*
X370224Y145219D01*
X370221Y145199D01*
X370212Y145180D01*
X370191Y145042D01*
X370165Y144906D01*
X370166Y144886D01*
X370163Y144866D01*
X370176Y144727D01*
X370184Y144589D01*
X370190Y144570D01*
X370192Y144550D01*
X370240Y144418D01*
X370282Y144287D01*
X370293Y144269D01*
X370300Y144250D01*
X370378Y144135D01*
X370452Y144018D01*
X370467Y144004D01*
X370479Y143987D01*
X370583Y143895D01*
X370684Y143800D01*
X370702Y143790D01*
X370717Y143777D01*
X370841Y143713D01*
X370963Y143646D01*
X370982Y143641D01*
X371000Y143632D01*
X371136Y143602D01*
X371271Y143567D01*
X371299Y143565D01*
X371311Y143562D01*
X371331Y143563D01*
X371431Y143557D01*
X385174Y143557D01*
X385292Y143572D01*
X385411Y143579D01*
X385449Y143592D01*
X385490Y143597D01*
X385600Y143640D01*
X385713Y143677D01*
X385748Y143699D01*
X385785Y143714D01*
X385881Y143783D01*
X385982Y143847D01*
X386010Y143877D01*
X386043Y143900D01*
X386119Y143992D01*
X386200Y144079D01*
X386220Y144114D01*
X386245Y144145D01*
X386296Y144253D01*
X386354Y144357D01*
X386364Y144397D01*
X386381Y144433D01*
X386403Y144550D01*
X386433Y144665D01*
X386437Y144725D01*
X386441Y144745D01*
X386439Y144766D01*
X386443Y144826D01*
X386443Y441473D01*
X396072Y451101D01*
X396132Y451180D01*
X396200Y451252D01*
X396229Y451305D01*
X396266Y451353D01*
X396306Y451444D01*
X396354Y451530D01*
X396369Y451589D01*
X396393Y451645D01*
X396408Y451742D01*
X396433Y451838D01*
X396439Y451938D01*
X396443Y451959D01*
X396441Y451971D01*
X396443Y451999D01*
X396443Y469437D01*
X396426Y469575D01*
X396413Y469714D01*
X396406Y469733D01*
X396403Y469753D01*
X396352Y469882D01*
X396305Y470013D01*
X396294Y470030D01*
X396286Y470049D01*
X396205Y470161D01*
X396127Y470276D01*
X396111Y470290D01*
X396100Y470306D01*
X395992Y470395D01*
X395888Y470487D01*
X395870Y470496D01*
X395855Y470509D01*
X395729Y470568D01*
X395605Y470631D01*
X395585Y470636D01*
X395567Y470644D01*
X395430Y470670D01*
X395295Y470701D01*
X395274Y470700D01*
X395255Y470704D01*
X395116Y470695D01*
X394977Y470691D01*
X394957Y470686D01*
X394937Y470684D01*
X394805Y470642D01*
X394671Y470603D01*
X394654Y470592D01*
X394635Y470586D01*
X394517Y470512D01*
X394397Y470441D01*
X394376Y470423D01*
X394366Y470416D01*
X394352Y470401D01*
X394277Y470335D01*
X393582Y469640D01*
X391258Y468677D01*
X388742Y468677D01*
X386418Y469640D01*
X384640Y471418D01*
X383677Y473742D01*
X383677Y475767D01*
X383665Y475865D01*
X383662Y475964D01*
X383645Y476022D01*
X383637Y476083D01*
X383601Y476175D01*
X383573Y476270D01*
X383543Y476322D01*
X383520Y476378D01*
X383462Y476458D01*
X383412Y476544D01*
X383346Y476619D01*
X383334Y476636D01*
X383324Y476643D01*
X383306Y476665D01*
X356443Y503527D01*
X356443Y583349D01*
X356426Y583487D01*
X356413Y583625D01*
X356406Y583645D01*
X356403Y583665D01*
X356352Y583794D01*
X356305Y583925D01*
X356294Y583942D01*
X356286Y583960D01*
X356205Y584073D01*
X356127Y584188D01*
X356111Y584201D01*
X356100Y584218D01*
X355992Y584306D01*
X355888Y584398D01*
X355870Y584408D01*
X355855Y584420D01*
X355729Y584480D01*
X355605Y584543D01*
X355585Y584547D01*
X355567Y584556D01*
X355431Y584582D01*
X355295Y584613D01*
X355274Y584612D01*
X355255Y584616D01*
X355116Y584607D01*
X354977Y584603D01*
X354957Y584597D01*
X354937Y584596D01*
X354805Y584553D01*
X354671Y584515D01*
X354654Y584504D01*
X354635Y584498D01*
X354517Y584424D01*
X354397Y584353D01*
X354376Y584334D01*
X354366Y584328D01*
X354352Y584313D01*
X354277Y584247D01*
X353179Y583149D01*
X353106Y583055D01*
X353027Y582966D01*
X353009Y582929D01*
X352984Y582898D01*
X352936Y582788D01*
X352882Y582682D01*
X352874Y582643D01*
X352857Y582606D01*
X352839Y582488D01*
X352813Y582372D01*
X352814Y582332D01*
X352808Y582292D01*
X352819Y582173D01*
X352822Y582054D01*
X352834Y582015D01*
X352837Y581975D01*
X352878Y581863D01*
X352911Y581749D01*
X352931Y581714D01*
X352945Y581676D01*
X353012Y581577D01*
X353072Y581475D01*
X353112Y581429D01*
X353124Y581413D01*
X353139Y581399D01*
X353179Y581354D01*
X353645Y580888D01*
X353645Y573312D01*
X348288Y567955D01*
X340712Y567955D01*
X335355Y573312D01*
X335355Y580888D01*
X340712Y586245D01*
X345689Y586245D01*
X345787Y586257D01*
X345886Y586260D01*
X345944Y586277D01*
X346005Y586285D01*
X346097Y586321D01*
X346192Y586349D01*
X346244Y586379D01*
X346300Y586402D01*
X346380Y586460D01*
X346466Y586510D01*
X346541Y586576D01*
X346558Y586588D01*
X346565Y586598D01*
X346587Y586616D01*
X376072Y616101D01*
X376132Y616180D01*
X376200Y616252D01*
X376229Y616305D01*
X376266Y616353D01*
X376306Y616444D01*
X376354Y616530D01*
X376369Y616589D01*
X376393Y616645D01*
X376408Y616743D01*
X376433Y616838D01*
X376439Y616938D01*
X376443Y616959D01*
X376441Y616971D01*
X376443Y616999D01*
X376443Y658432D01*
X376431Y658530D01*
X376428Y658629D01*
X376411Y658687D01*
X376403Y658747D01*
X376367Y658839D01*
X376339Y658935D01*
X376309Y658987D01*
X376286Y659043D01*
X376228Y659123D01*
X376178Y659208D01*
X376112Y659284D01*
X376100Y659300D01*
X376090Y659308D01*
X376072Y659329D01*
X373228Y662173D01*
X371769Y665694D01*
X371769Y669506D01*
X373228Y673027D01*
X375923Y675722D01*
X379444Y677181D01*
X383256Y677181D01*
X386777Y675722D01*
X389472Y673027D01*
X390931Y669506D01*
X390931Y665694D01*
X389472Y662173D01*
X386777Y659478D01*
X384340Y658468D01*
X384315Y658454D01*
X384287Y658445D01*
X384177Y658375D01*
X384064Y658311D01*
X384043Y658290D01*
X384018Y658275D01*
X383929Y658180D01*
X383836Y658090D01*
X383820Y658064D01*
X383800Y658043D01*
X383737Y657929D01*
X383669Y657819D01*
X383661Y657790D01*
X383646Y657764D01*
X383614Y657639D01*
X383576Y657515D01*
X383574Y657485D01*
X383567Y657457D01*
X383557Y657296D01*
X383557Y648284D01*
X383565Y648214D01*
X383564Y648144D01*
X383585Y648057D01*
X383597Y647968D01*
X383622Y647903D01*
X383639Y647835D01*
X383681Y647756D01*
X383714Y647672D01*
X383755Y647616D01*
X383787Y647554D01*
X383848Y647488D01*
X383900Y647415D01*
X383954Y647370D01*
X384001Y647319D01*
X384076Y647269D01*
X384145Y647212D01*
X384209Y647182D01*
X384267Y647144D01*
X384352Y647115D01*
X384433Y647077D01*
X384502Y647064D01*
X384568Y647041D01*
X384657Y647034D01*
X384745Y647017D01*
X384815Y647021D01*
X384885Y647016D01*
X384973Y647031D01*
X385063Y647037D01*
X385129Y647058D01*
X385198Y647070D01*
X385280Y647107D01*
X385365Y647135D01*
X385424Y647172D01*
X385488Y647201D01*
X385558Y647257D01*
X385634Y647305D01*
X385682Y647356D01*
X385737Y647399D01*
X385791Y647471D01*
X385852Y647536D01*
X385870Y647569D01*
X388623Y650322D01*
X392144Y651781D01*
X395956Y651781D01*
X399688Y650235D01*
X399736Y650222D01*
X399781Y650200D01*
X399889Y650180D01*
X399995Y650151D01*
X400045Y650150D01*
X400094Y650141D01*
X400203Y650147D01*
X400313Y650146D01*
X400361Y650157D01*
X400411Y650160D01*
X400515Y650194D01*
X400622Y650220D01*
X400666Y650243D01*
X400713Y650258D01*
X400806Y650317D01*
X400903Y650369D01*
X400940Y650402D01*
X400982Y650429D01*
X401057Y650509D01*
X401139Y650582D01*
X401166Y650624D01*
X401200Y650660D01*
X401253Y650756D01*
X401313Y650848D01*
X401330Y650895D01*
X401354Y650939D01*
X401381Y651045D01*
X401417Y651149D01*
X401421Y651199D01*
X401433Y651247D01*
X401443Y651407D01*
X401443Y658832D01*
X401431Y658930D01*
X401428Y659029D01*
X401411Y659087D01*
X401403Y659147D01*
X401367Y659239D01*
X401339Y659335D01*
X401309Y659387D01*
X401286Y659443D01*
X401228Y659523D01*
X401178Y659608D01*
X401112Y659684D01*
X401100Y659700D01*
X401090Y659708D01*
X401072Y659729D01*
X398628Y662173D01*
X397169Y665694D01*
X397169Y669506D01*
X398628Y673027D01*
X401323Y675722D01*
X404844Y677181D01*
X408656Y677181D01*
X412177Y675722D01*
X414872Y673027D01*
X416331Y669506D01*
X416331Y665694D01*
X414872Y662173D01*
X412177Y659478D01*
X409340Y658303D01*
X409315Y658288D01*
X409287Y658279D01*
X409177Y658210D01*
X409064Y658145D01*
X409043Y658125D01*
X409018Y658109D01*
X408929Y658014D01*
X408836Y657924D01*
X408820Y657899D01*
X408800Y657877D01*
X408737Y657764D01*
X408669Y657653D01*
X408661Y657625D01*
X408646Y657599D01*
X408614Y657473D01*
X408576Y657349D01*
X408574Y657319D01*
X408567Y657291D01*
X408557Y657130D01*
X408557Y647318D01*
X408565Y647249D01*
X408564Y647179D01*
X408585Y647091D01*
X408597Y647002D01*
X408622Y646937D01*
X408639Y646870D01*
X408681Y646790D01*
X408714Y646707D01*
X408755Y646650D01*
X408787Y646588D01*
X408848Y646522D01*
X408900Y646449D01*
X408954Y646405D01*
X409001Y646353D01*
X409076Y646304D01*
X409145Y646247D01*
X409209Y646217D01*
X409267Y646178D01*
X409352Y646149D01*
X409433Y646111D01*
X409502Y646098D01*
X409568Y646075D01*
X409657Y646068D01*
X409745Y646051D01*
X409815Y646056D01*
X409885Y646050D01*
X409973Y646065D01*
X410063Y646071D01*
X410129Y646092D01*
X410198Y646104D01*
X410280Y646141D01*
X410365Y646169D01*
X410424Y646206D01*
X410488Y646235D01*
X410558Y646291D01*
X410634Y646339D01*
X410682Y646390D01*
X410736Y646434D01*
X410791Y646505D01*
X410852Y646571D01*
X410886Y646632D01*
X410928Y646688D01*
X410999Y646832D01*
X411328Y647627D01*
X414023Y650322D01*
X417544Y651781D01*
X421356Y651781D01*
X424877Y650322D01*
X427572Y647627D01*
X429031Y644106D01*
X429031Y641525D01*
X429043Y641427D01*
X429046Y641328D01*
X429063Y641270D01*
X429071Y641209D01*
X429107Y641117D01*
X429135Y641022D01*
X429165Y640970D01*
X429188Y640914D01*
X429246Y640834D01*
X429296Y640748D01*
X429362Y640673D01*
X429374Y640656D01*
X429384Y640649D01*
X429402Y640627D01*
X433557Y636473D01*
X433557Y611999D01*
X433569Y611901D01*
X433572Y611802D01*
X433589Y611744D01*
X433597Y611683D01*
X433633Y611591D01*
X433661Y611496D01*
X433691Y611444D01*
X433714Y611388D01*
X433772Y611308D01*
X433822Y611222D01*
X433888Y611147D01*
X433900Y611130D01*
X433910Y611123D01*
X433928Y611101D01*
X458613Y586416D01*
X458692Y586356D01*
X458764Y586288D01*
X458817Y586259D01*
X458865Y586222D01*
X458956Y586182D01*
X459042Y586134D01*
X459101Y586119D01*
X459157Y586095D01*
X459255Y586080D01*
X459350Y586055D01*
X459450Y586049D01*
X459471Y586045D01*
X459483Y586047D01*
X459511Y586045D01*
X464488Y586045D01*
X469845Y580688D01*
X469845Y573112D01*
X464488Y567755D01*
X456912Y567755D01*
X451555Y573112D01*
X451555Y580688D01*
X452021Y581154D01*
X452094Y581248D01*
X452173Y581337D01*
X452191Y581373D01*
X452216Y581405D01*
X452263Y581514D01*
X452318Y581620D01*
X452326Y581660D01*
X452343Y581697D01*
X452361Y581815D01*
X452387Y581931D01*
X452386Y581971D01*
X452392Y582011D01*
X452381Y582130D01*
X452378Y582249D01*
X452366Y582287D01*
X452363Y582328D01*
X452322Y582440D01*
X452289Y582554D01*
X452269Y582589D01*
X452255Y582627D01*
X452188Y582725D01*
X452128Y582828D01*
X452088Y582873D01*
X452076Y582890D01*
X452061Y582904D01*
X452021Y582949D01*
X445723Y589247D01*
X445614Y589332D01*
X445507Y589420D01*
X445488Y589429D01*
X445472Y589442D01*
X445344Y589497D01*
X445219Y589556D01*
X445199Y589560D01*
X445180Y589568D01*
X445042Y589590D01*
X444906Y589616D01*
X444886Y589615D01*
X444866Y589618D01*
X444727Y589605D01*
X444589Y589596D01*
X444570Y589590D01*
X444550Y589588D01*
X444418Y589541D01*
X444287Y589498D01*
X444269Y589487D01*
X444250Y589480D01*
X444135Y589402D01*
X444018Y589328D01*
X444004Y589313D01*
X443987Y589302D01*
X443895Y589197D01*
X443800Y589096D01*
X443790Y589079D01*
X443777Y589063D01*
X443713Y588939D01*
X443646Y588818D01*
X443641Y588798D01*
X443632Y588780D01*
X443602Y588644D01*
X443567Y588510D01*
X443565Y588482D01*
X443562Y588470D01*
X443563Y588449D01*
X443557Y588349D01*
X443557Y98527D01*
X441473Y96443D01*
X372579Y96443D01*
X372481Y96431D01*
X372382Y96428D01*
X372324Y96411D01*
X372264Y96403D01*
X372172Y96367D01*
X372076Y96339D01*
X372024Y96309D01*
X371968Y96286D01*
X371888Y96228D01*
X371803Y96178D01*
X371727Y96112D01*
X371711Y96100D01*
X371703Y96090D01*
X371682Y96072D01*
X370412Y94801D01*
X366771Y93293D01*
X362829Y93293D01*
X359188Y94801D01*
X356401Y97588D01*
X355999Y98561D01*
X355964Y98622D01*
X355938Y98686D01*
X355886Y98759D01*
X355841Y98837D01*
X355793Y98887D01*
X355752Y98944D01*
X355682Y99001D01*
X355620Y99066D01*
X355560Y99102D01*
X355507Y99147D01*
X355425Y99185D01*
X355349Y99232D01*
X355282Y99252D01*
X355219Y99282D01*
X355131Y99299D01*
X355045Y99325D01*
X354975Y99329D01*
X354906Y99342D01*
X354817Y99336D01*
X354727Y99341D01*
X354659Y99326D01*
X354589Y99322D01*
X354504Y99294D01*
X354416Y99276D01*
X354353Y99246D01*
X354287Y99224D01*
X354211Y99176D01*
X354130Y99137D01*
X354077Y99091D01*
X354018Y99054D01*
X353956Y98988D01*
X353888Y98930D01*
X353848Y98873D01*
X353800Y98822D01*
X353756Y98744D01*
X353705Y98670D01*
X353680Y98605D01*
X353646Y98544D01*
X353624Y98457D01*
X353592Y98373D01*
X353584Y98304D01*
X353567Y98236D01*
X353557Y98075D01*
X353557Y91999D01*
X353569Y91901D01*
X353572Y91802D01*
X353589Y91744D01*
X353597Y91683D01*
X353633Y91591D01*
X353661Y91496D01*
X353691Y91444D01*
X353714Y91388D01*
X353772Y91308D01*
X353822Y91222D01*
X353888Y91147D01*
X353900Y91130D01*
X353910Y91123D01*
X353928Y91101D01*
X358336Y86694D01*
X358360Y86676D01*
X358379Y86653D01*
X358485Y86578D01*
X358588Y86499D01*
X358615Y86487D01*
X358639Y86470D01*
X358760Y86424D01*
X358879Y86372D01*
X358909Y86368D01*
X358936Y86357D01*
X359065Y86343D01*
X359193Y86323D01*
X359223Y86325D01*
X359252Y86322D01*
X359381Y86340D01*
X359510Y86352D01*
X359538Y86362D01*
X359567Y86366D01*
X359719Y86419D01*
X362829Y87707D01*
X366771Y87707D01*
X370412Y86199D01*
X373199Y83412D01*
X374707Y79771D01*
X374707Y75829D01*
X373199Y72188D01*
X370412Y69401D01*
X366771Y67893D01*
X362829Y67893D01*
X359188Y69401D01*
X356401Y72188D01*
X354893Y75829D01*
X354893Y79551D01*
X354881Y79649D01*
X354878Y79748D01*
X354861Y79806D01*
X354853Y79867D01*
X354817Y79959D01*
X354789Y80054D01*
X354759Y80106D01*
X354736Y80162D01*
X354678Y80242D01*
X354628Y80328D01*
X354562Y80403D01*
X354550Y80420D01*
X354540Y80427D01*
X354522Y80449D01*
X350723Y84247D01*
X350614Y84332D01*
X350507Y84420D01*
X350488Y84429D01*
X350472Y84442D01*
X350344Y84497D01*
X350219Y84556D01*
X350199Y84560D01*
X350180Y84568D01*
X350042Y84590D01*
X349906Y84616D01*
X349886Y84615D01*
X349866Y84618D01*
X349727Y84605D01*
X349589Y84596D01*
X349570Y84590D01*
X349550Y84588D01*
X349418Y84541D01*
X349287Y84498D01*
X349269Y84487D01*
X349250Y84480D01*
X349135Y84402D01*
X349018Y84328D01*
X349004Y84313D01*
X348987Y84302D01*
X348895Y84198D01*
X348800Y84096D01*
X348790Y84078D01*
X348777Y84063D01*
X348713Y83939D01*
X348646Y83818D01*
X348641Y83798D01*
X348632Y83780D01*
X348602Y83644D01*
X348567Y83510D01*
X348565Y83482D01*
X348562Y83470D01*
X348563Y83449D01*
X348557Y83349D01*
X348557Y59826D01*
X348572Y59708D01*
X348579Y59589D01*
X348592Y59551D01*
X348597Y59510D01*
X348640Y59400D01*
X348677Y59287D01*
X348699Y59252D01*
X348714Y59215D01*
X348783Y59119D01*
X348847Y59018D01*
X348877Y58990D01*
X348900Y58957D01*
X348992Y58881D01*
X349079Y58800D01*
X349114Y58780D01*
X349145Y58755D01*
X349253Y58704D01*
X349357Y58646D01*
X349397Y58636D01*
X349433Y58619D01*
X349550Y58597D01*
X349665Y58567D01*
X349725Y58563D01*
X349745Y58559D01*
X349766Y58561D01*
X349826Y58557D01*
X356421Y58557D01*
X356519Y58569D01*
X356618Y58572D01*
X356676Y58589D01*
X356736Y58597D01*
X356828Y58633D01*
X356923Y58661D01*
X356976Y58691D01*
X357032Y58714D01*
X357112Y58772D01*
X357197Y58822D01*
X357273Y58888D01*
X357289Y58900D01*
X357297Y58910D01*
X357318Y58928D01*
X359188Y60799D01*
X362829Y62307D01*
X366771Y62307D01*
X370412Y60799D01*
X373199Y58012D01*
X374707Y54371D01*
X374707Y50429D01*
X373199Y46788D01*
X370412Y44001D01*
X366771Y42493D01*
X362829Y42493D01*
G37*
%LPD*%
%LPC*%
G36*
X533527Y81443D02*
X533527Y81443D01*
X521542Y93428D01*
X521519Y93446D01*
X521500Y93468D01*
X521394Y93543D01*
X521291Y93623D01*
X521264Y93634D01*
X521240Y93651D01*
X521119Y93697D01*
X520999Y93749D01*
X520970Y93754D01*
X520942Y93764D01*
X520814Y93778D01*
X520685Y93799D01*
X520656Y93796D01*
X520626Y93799D01*
X520498Y93781D01*
X520369Y93769D01*
X520341Y93759D01*
X520312Y93755D01*
X520159Y93703D01*
X519171Y93293D01*
X515229Y93293D01*
X511588Y94801D01*
X508801Y97588D01*
X507293Y101229D01*
X507293Y105171D01*
X508801Y108812D01*
X511588Y111599D01*
X515229Y113107D01*
X519171Y113107D01*
X522812Y111599D01*
X525599Y108812D01*
X527107Y105171D01*
X527107Y101229D01*
X526463Y99675D01*
X526455Y99647D01*
X526442Y99620D01*
X526413Y99494D01*
X526379Y99368D01*
X526379Y99339D01*
X526372Y99310D01*
X526376Y99180D01*
X526374Y99050D01*
X526381Y99022D01*
X526382Y98992D01*
X526418Y98868D01*
X526448Y98741D01*
X526462Y98715D01*
X526470Y98687D01*
X526536Y98575D01*
X526597Y98460D01*
X526617Y98438D01*
X526632Y98413D01*
X526738Y98292D01*
X536101Y88928D01*
X536180Y88868D01*
X536252Y88800D01*
X536305Y88771D01*
X536353Y88734D01*
X536444Y88694D01*
X536530Y88646D01*
X536589Y88631D01*
X536645Y88607D01*
X536743Y88592D01*
X536838Y88567D01*
X536938Y88561D01*
X536959Y88557D01*
X536971Y88559D01*
X536999Y88557D01*
X548349Y88557D01*
X548487Y88574D01*
X548625Y88587D01*
X548645Y88594D01*
X548665Y88597D01*
X548794Y88648D01*
X548925Y88695D01*
X548942Y88706D01*
X548960Y88714D01*
X549073Y88795D01*
X549188Y88873D01*
X549201Y88889D01*
X549218Y88900D01*
X549306Y89008D01*
X549398Y89112D01*
X549408Y89130D01*
X549420Y89145D01*
X549480Y89271D01*
X549543Y89395D01*
X549547Y89415D01*
X549556Y89433D01*
X549582Y89569D01*
X549613Y89705D01*
X549612Y89726D01*
X549616Y89745D01*
X549607Y89884D01*
X549603Y90023D01*
X549597Y90043D01*
X549596Y90063D01*
X549553Y90195D01*
X549515Y90329D01*
X549504Y90346D01*
X549498Y90365D01*
X549424Y90483D01*
X549353Y90603D01*
X549334Y90624D01*
X549328Y90634D01*
X549313Y90648D01*
X549247Y90723D01*
X521260Y118710D01*
X521236Y118729D01*
X521217Y118751D01*
X521111Y118826D01*
X521008Y118905D01*
X520981Y118917D01*
X520957Y118934D01*
X520836Y118980D01*
X520716Y119032D01*
X520687Y119036D01*
X520660Y119047D01*
X520531Y119061D01*
X520402Y119082D01*
X520373Y119079D01*
X520344Y119082D01*
X520215Y119064D01*
X520086Y119052D01*
X520058Y119042D01*
X520029Y119038D01*
X519876Y118986D01*
X519171Y118693D01*
X515229Y118693D01*
X511588Y120201D01*
X508801Y122988D01*
X507293Y126629D01*
X507293Y130571D01*
X508801Y134212D01*
X511588Y136999D01*
X515229Y138507D01*
X519171Y138507D01*
X522812Y136999D01*
X525599Y134212D01*
X527107Y130571D01*
X527107Y126629D01*
X526346Y124792D01*
X526338Y124764D01*
X526325Y124738D01*
X526296Y124611D01*
X526262Y124486D01*
X526261Y124456D01*
X526255Y124427D01*
X526259Y124297D01*
X526257Y124168D01*
X526264Y124139D01*
X526265Y124109D01*
X526301Y123985D01*
X526331Y123858D01*
X526345Y123832D01*
X526353Y123804D01*
X526419Y123692D01*
X526480Y123577D01*
X526499Y123555D01*
X526514Y123530D01*
X526621Y123409D01*
X556101Y93928D01*
X556180Y93868D01*
X556252Y93800D01*
X556305Y93771D01*
X556353Y93734D01*
X556444Y93694D01*
X556530Y93646D01*
X556589Y93631D01*
X556645Y93607D01*
X556743Y93592D01*
X556838Y93567D01*
X556938Y93561D01*
X556959Y93557D01*
X556971Y93559D01*
X556999Y93557D01*
X568349Y93557D01*
X568487Y93574D01*
X568625Y93587D01*
X568645Y93594D01*
X568665Y93597D01*
X568794Y93648D01*
X568925Y93695D01*
X568942Y93706D01*
X568960Y93714D01*
X569073Y93795D01*
X569188Y93873D01*
X569201Y93889D01*
X569218Y93900D01*
X569306Y94008D01*
X569398Y94112D01*
X569408Y94130D01*
X569420Y94145D01*
X569480Y94271D01*
X569543Y94395D01*
X569547Y94415D01*
X569556Y94433D01*
X569582Y94569D01*
X569613Y94705D01*
X569612Y94726D01*
X569616Y94745D01*
X569607Y94884D01*
X569603Y95023D01*
X569597Y95043D01*
X569596Y95063D01*
X569553Y95195D01*
X569515Y95329D01*
X569504Y95346D01*
X569498Y95365D01*
X569424Y95483D01*
X569353Y95603D01*
X569334Y95624D01*
X569328Y95634D01*
X569313Y95648D01*
X569247Y95723D01*
X520977Y143993D01*
X520953Y144011D01*
X520934Y144034D01*
X520828Y144108D01*
X520725Y144188D01*
X520698Y144200D01*
X520674Y144217D01*
X520553Y144263D01*
X520434Y144315D01*
X520404Y144319D01*
X520377Y144330D01*
X520248Y144344D01*
X520120Y144364D01*
X520090Y144362D01*
X520061Y144365D01*
X519932Y144347D01*
X519803Y144335D01*
X519775Y144325D01*
X519746Y144321D01*
X519593Y144268D01*
X519171Y144093D01*
X515229Y144093D01*
X511588Y145601D01*
X508801Y148388D01*
X507293Y152029D01*
X507293Y155971D01*
X508801Y159612D01*
X511588Y162399D01*
X515229Y163907D01*
X519171Y163907D01*
X522812Y162399D01*
X525599Y159612D01*
X527107Y155971D01*
X527107Y152029D01*
X526229Y149909D01*
X526221Y149881D01*
X526207Y149855D01*
X526179Y149728D01*
X526145Y149603D01*
X526144Y149573D01*
X526138Y149544D01*
X526142Y149415D01*
X526140Y149285D01*
X526146Y149256D01*
X526147Y149226D01*
X526183Y149102D01*
X526214Y148975D01*
X526228Y148949D01*
X526236Y148921D01*
X526302Y148809D01*
X526362Y148694D01*
X526382Y148673D01*
X526397Y148647D01*
X526504Y148526D01*
X576101Y98928D01*
X576180Y98868D01*
X576252Y98800D01*
X576305Y98771D01*
X576353Y98734D01*
X576444Y98694D01*
X576530Y98646D01*
X576589Y98631D01*
X576645Y98607D01*
X576743Y98592D01*
X576838Y98567D01*
X576938Y98561D01*
X576959Y98557D01*
X576971Y98559D01*
X576999Y98557D01*
X588349Y98557D01*
X588487Y98574D01*
X588625Y98587D01*
X588645Y98594D01*
X588665Y98597D01*
X588794Y98648D01*
X588925Y98695D01*
X588942Y98706D01*
X588960Y98714D01*
X589073Y98795D01*
X589188Y98873D01*
X589201Y98889D01*
X589218Y98900D01*
X589306Y99008D01*
X589398Y99112D01*
X589408Y99130D01*
X589420Y99145D01*
X589480Y99271D01*
X589543Y99395D01*
X589547Y99415D01*
X589556Y99433D01*
X589582Y99569D01*
X589613Y99705D01*
X589612Y99726D01*
X589616Y99745D01*
X589607Y99884D01*
X589603Y100023D01*
X589597Y100043D01*
X589596Y100063D01*
X589553Y100195D01*
X589515Y100329D01*
X589504Y100346D01*
X589498Y100365D01*
X589424Y100483D01*
X589353Y100603D01*
X589334Y100624D01*
X589328Y100634D01*
X589313Y100648D01*
X589247Y100723D01*
X520694Y169276D01*
X520671Y169294D01*
X520651Y169317D01*
X520545Y169391D01*
X520443Y169471D01*
X520415Y169483D01*
X520391Y169500D01*
X520270Y169546D01*
X520151Y169597D01*
X520122Y169602D01*
X520094Y169613D01*
X519965Y169627D01*
X519837Y169647D01*
X519807Y169645D01*
X519778Y169648D01*
X519649Y169630D01*
X519520Y169617D01*
X519492Y169607D01*
X519463Y169603D01*
X519311Y169551D01*
X519171Y169493D01*
X515229Y169493D01*
X511588Y171001D01*
X508801Y173788D01*
X507293Y177429D01*
X507293Y181371D01*
X508801Y185012D01*
X511588Y187799D01*
X515229Y189307D01*
X519171Y189307D01*
X522812Y187799D01*
X525599Y185012D01*
X527107Y181371D01*
X527107Y177429D01*
X526111Y175027D01*
X526104Y174998D01*
X526090Y174972D01*
X526062Y174845D01*
X526028Y174720D01*
X526027Y174690D01*
X526021Y174662D01*
X526025Y174532D01*
X526022Y174402D01*
X526029Y174373D01*
X526030Y174344D01*
X526066Y174219D01*
X526097Y174093D01*
X526110Y174066D01*
X526119Y174038D01*
X526185Y173926D01*
X526245Y173811D01*
X526265Y173790D01*
X526280Y173764D01*
X526387Y173643D01*
X596101Y103928D01*
X596180Y103868D01*
X596252Y103800D01*
X596305Y103771D01*
X596353Y103734D01*
X596444Y103694D01*
X596530Y103646D01*
X596589Y103631D01*
X596645Y103607D01*
X596743Y103592D01*
X596838Y103567D01*
X596938Y103561D01*
X596959Y103557D01*
X596971Y103559D01*
X596999Y103557D01*
X662467Y103557D01*
X662605Y103574D01*
X662744Y103587D01*
X662763Y103594D01*
X662783Y103597D01*
X662912Y103648D01*
X663043Y103695D01*
X663060Y103706D01*
X663078Y103714D01*
X663191Y103795D01*
X663306Y103873D01*
X663319Y103889D01*
X663336Y103900D01*
X663425Y104008D01*
X663516Y104112D01*
X663526Y104130D01*
X663539Y104145D01*
X663598Y104271D01*
X663661Y104395D01*
X663665Y104415D01*
X663674Y104433D01*
X663700Y104569D01*
X663731Y104705D01*
X663730Y104726D01*
X663734Y104745D01*
X663725Y104884D01*
X663721Y105023D01*
X663715Y105043D01*
X663714Y105063D01*
X663671Y105195D01*
X663633Y105329D01*
X663622Y105346D01*
X663616Y105365D01*
X663541Y105483D01*
X663471Y105603D01*
X663453Y105624D01*
X663446Y105634D01*
X663431Y105648D01*
X663365Y105723D01*
X660761Y108327D01*
X659209Y112073D01*
X659209Y116127D01*
X660761Y119873D01*
X663627Y122739D01*
X667373Y124291D01*
X671427Y124291D01*
X675173Y122739D01*
X678039Y119873D01*
X679591Y116127D01*
X679591Y112073D01*
X678039Y108327D01*
X675435Y105723D01*
X675350Y105614D01*
X675261Y105507D01*
X675253Y105488D01*
X675240Y105472D01*
X675185Y105344D01*
X675126Y105219D01*
X675122Y105199D01*
X675114Y105180D01*
X675092Y105042D01*
X675066Y104906D01*
X675067Y104886D01*
X675064Y104866D01*
X675077Y104727D01*
X675086Y104589D01*
X675092Y104570D01*
X675094Y104550D01*
X675141Y104418D01*
X675184Y104287D01*
X675195Y104269D01*
X675202Y104250D01*
X675280Y104135D01*
X675354Y104018D01*
X675369Y104004D01*
X675380Y103987D01*
X675484Y103895D01*
X675586Y103800D01*
X675603Y103790D01*
X675619Y103777D01*
X675743Y103713D01*
X675864Y103646D01*
X675884Y103641D01*
X675902Y103632D01*
X676038Y103602D01*
X676172Y103567D01*
X676200Y103565D01*
X676212Y103562D01*
X676233Y103563D01*
X676333Y103557D01*
X745174Y103557D01*
X745292Y103572D01*
X745411Y103579D01*
X745449Y103592D01*
X745490Y103597D01*
X745600Y103640D01*
X745713Y103677D01*
X745748Y103699D01*
X745785Y103714D01*
X745881Y103783D01*
X745982Y103847D01*
X746010Y103877D01*
X746043Y103900D01*
X746119Y103992D01*
X746200Y104079D01*
X746220Y104114D01*
X746245Y104145D01*
X746296Y104253D01*
X746354Y104357D01*
X746364Y104397D01*
X746381Y104433D01*
X746403Y104550D01*
X746433Y104665D01*
X746437Y104725D01*
X746441Y104745D01*
X746440Y104762D01*
X746441Y104767D01*
X746440Y104776D01*
X746443Y104826D01*
X746443Y181473D01*
X776072Y211101D01*
X776132Y211180D01*
X776200Y211252D01*
X776229Y211305D01*
X776266Y211353D01*
X776306Y211444D01*
X776354Y211530D01*
X776369Y211589D01*
X776393Y211645D01*
X776408Y211743D01*
X776433Y211838D01*
X776439Y211938D01*
X776443Y211959D01*
X776441Y211971D01*
X776443Y211999D01*
X776443Y226473D01*
X778899Y228928D01*
X786440Y236470D01*
X786458Y236493D01*
X786480Y236512D01*
X786555Y236618D01*
X786635Y236721D01*
X786646Y236748D01*
X786663Y236772D01*
X786709Y236893D01*
X786761Y237013D01*
X786765Y237042D01*
X786776Y237069D01*
X786790Y237198D01*
X786811Y237327D01*
X786808Y237356D01*
X786811Y237385D01*
X786793Y237514D01*
X786781Y237643D01*
X786771Y237671D01*
X786767Y237700D01*
X786715Y237853D01*
X786209Y239073D01*
X786209Y243127D01*
X787761Y246873D01*
X790627Y249739D01*
X794373Y251291D01*
X798427Y251291D01*
X802173Y249739D01*
X805039Y246873D01*
X806591Y243127D01*
X806591Y239073D01*
X805039Y235327D01*
X802173Y232461D01*
X798427Y230909D01*
X794373Y230909D01*
X792728Y231590D01*
X792700Y231598D01*
X792674Y231612D01*
X792547Y231640D01*
X792422Y231674D01*
X792392Y231675D01*
X792363Y231681D01*
X792234Y231677D01*
X792104Y231679D01*
X792075Y231673D01*
X792046Y231672D01*
X791921Y231636D01*
X791795Y231605D01*
X791768Y231591D01*
X791740Y231583D01*
X791628Y231517D01*
X791513Y231457D01*
X791492Y231437D01*
X791466Y231422D01*
X791345Y231315D01*
X783928Y223899D01*
X783868Y223820D01*
X783800Y223748D01*
X783771Y223695D01*
X783734Y223647D01*
X783694Y223556D01*
X783646Y223470D01*
X783631Y223411D01*
X783607Y223355D01*
X783592Y223257D01*
X783567Y223162D01*
X783561Y223062D01*
X783557Y223041D01*
X783559Y223029D01*
X783557Y223001D01*
X783557Y219826D01*
X783572Y219708D01*
X783579Y219589D01*
X783592Y219551D01*
X783597Y219510D01*
X783640Y219400D01*
X783677Y219287D01*
X783699Y219252D01*
X783714Y219215D01*
X783783Y219119D01*
X783847Y219018D01*
X783877Y218990D01*
X783900Y218957D01*
X783992Y218881D01*
X784079Y218800D01*
X784114Y218780D01*
X784145Y218755D01*
X784253Y218704D01*
X784357Y218646D01*
X784397Y218636D01*
X784433Y218619D01*
X784550Y218597D01*
X784665Y218567D01*
X784725Y218563D01*
X784745Y218559D01*
X784766Y218561D01*
X784826Y218557D01*
X785705Y218557D01*
X785734Y218560D01*
X785764Y218558D01*
X785892Y218580D01*
X786020Y218597D01*
X786048Y218607D01*
X786077Y218612D01*
X786195Y218666D01*
X786316Y218714D01*
X786340Y218731D01*
X786367Y218743D01*
X786468Y218824D01*
X786573Y218900D01*
X786592Y218923D01*
X786615Y218942D01*
X786693Y219045D01*
X786776Y219145D01*
X786789Y219172D01*
X786807Y219196D01*
X786877Y219340D01*
X787761Y221473D01*
X790627Y224339D01*
X794373Y225891D01*
X798427Y225891D01*
X802173Y224339D01*
X805039Y221473D01*
X806591Y217727D01*
X806591Y213673D01*
X805039Y209927D01*
X802173Y207061D01*
X798427Y205509D01*
X794373Y205509D01*
X790627Y207061D01*
X787761Y209927D01*
X787667Y210155D01*
X787642Y210198D01*
X787625Y210245D01*
X787563Y210336D01*
X787509Y210431D01*
X787474Y210467D01*
X787447Y210508D01*
X787364Y210580D01*
X787288Y210659D01*
X787245Y210685D01*
X787208Y210718D01*
X787110Y210768D01*
X787017Y210826D01*
X786969Y210840D01*
X786925Y210863D01*
X786818Y210887D01*
X786713Y210919D01*
X786663Y210922D01*
X786615Y210933D01*
X786505Y210929D01*
X786395Y210934D01*
X786346Y210924D01*
X786297Y210923D01*
X786191Y210892D01*
X786084Y210870D01*
X786039Y210848D01*
X785991Y210834D01*
X785897Y210779D01*
X785798Y210730D01*
X785760Y210698D01*
X785717Y210673D01*
X785596Y210567D01*
X783928Y208899D01*
X753928Y178899D01*
X753868Y178820D01*
X753800Y178748D01*
X753771Y178695D01*
X753734Y178647D01*
X753694Y178556D01*
X753646Y178470D01*
X753631Y178411D01*
X753607Y178355D01*
X753592Y178257D01*
X753567Y178162D01*
X753561Y178062D01*
X753557Y178041D01*
X753559Y178029D01*
X753557Y178001D01*
X753557Y166651D01*
X753574Y166513D01*
X753587Y166375D01*
X753594Y166355D01*
X753597Y166335D01*
X753648Y166206D01*
X753695Y166075D01*
X753706Y166058D01*
X753714Y166040D01*
X753795Y165928D01*
X753873Y165812D01*
X753889Y165799D01*
X753900Y165782D01*
X754008Y165694D01*
X754112Y165602D01*
X754130Y165592D01*
X754145Y165580D01*
X754271Y165520D01*
X754395Y165457D01*
X754415Y165453D01*
X754433Y165444D01*
X754569Y165418D01*
X754705Y165387D01*
X754726Y165388D01*
X754745Y165384D01*
X754884Y165393D01*
X755023Y165397D01*
X755043Y165403D01*
X755063Y165404D01*
X755195Y165447D01*
X755329Y165485D01*
X755346Y165496D01*
X755365Y165502D01*
X755483Y165576D01*
X755603Y165647D01*
X755624Y165666D01*
X755634Y165672D01*
X755648Y165687D01*
X755723Y165753D01*
X781072Y191101D01*
X783527Y193557D01*
X785871Y193557D01*
X785900Y193560D01*
X785929Y193558D01*
X786057Y193580D01*
X786186Y193597D01*
X786213Y193607D01*
X786243Y193612D01*
X786361Y193666D01*
X786482Y193714D01*
X786506Y193731D01*
X786533Y193743D01*
X786634Y193824D01*
X786739Y193900D01*
X786758Y193923D01*
X786781Y193942D01*
X786859Y194045D01*
X786942Y194145D01*
X786955Y194172D01*
X786972Y194196D01*
X787043Y194340D01*
X787761Y196073D01*
X790627Y198939D01*
X794373Y200491D01*
X798427Y200491D01*
X802173Y198939D01*
X805039Y196073D01*
X806591Y192327D01*
X806591Y188273D01*
X805039Y184527D01*
X802173Y181661D01*
X798427Y180109D01*
X794373Y180109D01*
X790627Y181661D01*
X787761Y184527D01*
X787549Y185038D01*
X787525Y185081D01*
X787508Y185127D01*
X787446Y185218D01*
X787392Y185314D01*
X787357Y185349D01*
X787329Y185391D01*
X787247Y185463D01*
X787171Y185542D01*
X787128Y185568D01*
X787091Y185601D01*
X786993Y185651D01*
X786900Y185708D01*
X786852Y185723D01*
X786808Y185746D01*
X786701Y185770D01*
X786596Y185802D01*
X786546Y185804D01*
X786497Y185815D01*
X786388Y185812D01*
X786278Y185817D01*
X786229Y185807D01*
X786180Y185806D01*
X786074Y185775D01*
X785966Y185753D01*
X785922Y185731D01*
X785874Y185717D01*
X785780Y185662D01*
X785681Y185613D01*
X785643Y185581D01*
X785600Y185556D01*
X785479Y185449D01*
X758928Y158899D01*
X758868Y158820D01*
X758800Y158748D01*
X758771Y158695D01*
X758734Y158647D01*
X758694Y158556D01*
X758646Y158470D01*
X758631Y158411D01*
X758607Y158355D01*
X758592Y158257D01*
X758567Y158162D01*
X758561Y158062D01*
X758557Y158041D01*
X758559Y158029D01*
X758557Y158001D01*
X758557Y94826D01*
X758572Y94708D01*
X758579Y94589D01*
X758592Y94551D01*
X758597Y94510D01*
X758640Y94400D01*
X758677Y94287D01*
X758699Y94252D01*
X758714Y94215D01*
X758783Y94119D01*
X758847Y94018D01*
X758877Y93990D01*
X758900Y93957D01*
X758992Y93881D01*
X759079Y93800D01*
X759114Y93780D01*
X759145Y93755D01*
X759253Y93704D01*
X759357Y93646D01*
X759397Y93636D01*
X759433Y93619D01*
X759550Y93597D01*
X759665Y93567D01*
X759725Y93563D01*
X759745Y93559D01*
X759766Y93561D01*
X759826Y93557D01*
X765174Y93557D01*
X765292Y93572D01*
X765411Y93579D01*
X765449Y93592D01*
X765490Y93597D01*
X765600Y93640D01*
X765713Y93677D01*
X765748Y93699D01*
X765785Y93714D01*
X765881Y93783D01*
X765982Y93847D01*
X766010Y93877D01*
X766043Y93900D01*
X766119Y93992D01*
X766200Y94079D01*
X766220Y94114D01*
X766245Y94145D01*
X766296Y94253D01*
X766354Y94357D01*
X766364Y94397D01*
X766381Y94433D01*
X766403Y94550D01*
X766433Y94665D01*
X766437Y94725D01*
X766441Y94745D01*
X766439Y94766D01*
X766443Y94826D01*
X766443Y151473D01*
X783527Y168557D01*
X786036Y168557D01*
X786066Y168560D01*
X786095Y168558D01*
X786223Y168580D01*
X786352Y168597D01*
X786379Y168607D01*
X786408Y168612D01*
X786527Y168666D01*
X786647Y168714D01*
X786671Y168731D01*
X786698Y168743D01*
X786800Y168824D01*
X786905Y168900D01*
X786924Y168923D01*
X786947Y168942D01*
X787025Y169045D01*
X787108Y169145D01*
X787120Y169172D01*
X787138Y169196D01*
X787209Y169340D01*
X787761Y170673D01*
X790627Y173539D01*
X794373Y175091D01*
X798427Y175091D01*
X802173Y173539D01*
X805039Y170673D01*
X806591Y166927D01*
X806591Y162873D01*
X805039Y159127D01*
X802173Y156261D01*
X798427Y154709D01*
X794373Y154709D01*
X790627Y156261D01*
X787761Y159127D01*
X787432Y159920D01*
X787420Y159943D01*
X787413Y159964D01*
X787401Y159983D01*
X787391Y160010D01*
X787329Y160101D01*
X787275Y160197D01*
X787248Y160224D01*
X787242Y160233D01*
X787235Y160240D01*
X787212Y160273D01*
X787130Y160346D01*
X787053Y160425D01*
X787011Y160451D01*
X786974Y160484D01*
X786876Y160534D01*
X786782Y160591D01*
X786735Y160606D01*
X786691Y160629D01*
X786583Y160653D01*
X786478Y160685D01*
X786429Y160687D01*
X786380Y160698D01*
X786271Y160695D01*
X786161Y160700D01*
X786112Y160690D01*
X786062Y160689D01*
X785957Y160658D01*
X785947Y160656D01*
X785934Y160654D01*
X785929Y160652D01*
X785849Y160636D01*
X785805Y160614D01*
X785757Y160600D01*
X785674Y160552D01*
X785639Y160537D01*
X785619Y160523D01*
X785564Y160496D01*
X785526Y160464D01*
X785483Y160439D01*
X785390Y160357D01*
X785381Y160351D01*
X785377Y160345D01*
X785362Y160332D01*
X773928Y148899D01*
X773868Y148820D01*
X773800Y148748D01*
X773780Y148712D01*
X773755Y148682D01*
X773747Y148664D01*
X773734Y148647D01*
X773694Y148556D01*
X773646Y148470D01*
X773636Y148429D01*
X773620Y148395D01*
X773616Y148376D01*
X773607Y148355D01*
X773592Y148257D01*
X773567Y148162D01*
X773563Y148097D01*
X773560Y148082D01*
X773561Y148067D01*
X773561Y148062D01*
X773557Y148041D01*
X773559Y148029D01*
X773557Y148001D01*
X773557Y136651D01*
X773574Y136513D01*
X773587Y136375D01*
X773594Y136355D01*
X773597Y136335D01*
X773648Y136206D01*
X773695Y136075D01*
X773706Y136058D01*
X773714Y136040D01*
X773795Y135928D01*
X773873Y135812D01*
X773889Y135799D01*
X773900Y135782D01*
X774008Y135694D01*
X774112Y135602D01*
X774130Y135592D01*
X774145Y135580D01*
X774271Y135520D01*
X774395Y135457D01*
X774415Y135453D01*
X774433Y135444D01*
X774569Y135418D01*
X774705Y135387D01*
X774726Y135388D01*
X774745Y135384D01*
X774884Y135393D01*
X775023Y135397D01*
X775043Y135403D01*
X775063Y135404D01*
X775195Y135447D01*
X775329Y135485D01*
X775346Y135496D01*
X775365Y135502D01*
X775483Y135577D01*
X775603Y135647D01*
X775624Y135666D01*
X775634Y135672D01*
X775648Y135687D01*
X775723Y135753D01*
X783527Y143557D01*
X786202Y143557D01*
X786231Y143560D01*
X786261Y143558D01*
X786389Y143580D01*
X786517Y143597D01*
X786545Y143607D01*
X786574Y143612D01*
X786692Y143666D01*
X786813Y143714D01*
X786837Y143731D01*
X786864Y143743D01*
X786965Y143824D01*
X787070Y143900D01*
X787089Y143923D01*
X787112Y143942D01*
X787190Y144045D01*
X787273Y144145D01*
X787286Y144172D01*
X787304Y144196D01*
X787375Y144340D01*
X787761Y145273D01*
X790627Y148139D01*
X794373Y149691D01*
X798427Y149691D01*
X802173Y148139D01*
X805039Y145273D01*
X806591Y141527D01*
X806591Y137473D01*
X805039Y133727D01*
X802173Y130861D01*
X798427Y129309D01*
X794373Y129309D01*
X790627Y130861D01*
X787761Y133727D01*
X787315Y134803D01*
X787291Y134846D01*
X787274Y134893D01*
X787212Y134984D01*
X787158Y135079D01*
X787123Y135115D01*
X787095Y135156D01*
X787013Y135229D01*
X786936Y135308D01*
X786894Y135334D01*
X786857Y135367D01*
X786759Y135417D01*
X786665Y135474D01*
X786618Y135489D01*
X786573Y135511D01*
X786466Y135535D01*
X786361Y135568D01*
X786312Y135570D01*
X786263Y135581D01*
X786153Y135578D01*
X786044Y135583D01*
X785995Y135573D01*
X785945Y135571D01*
X785840Y135541D01*
X785732Y135519D01*
X785687Y135497D01*
X785640Y135483D01*
X785545Y135427D01*
X785446Y135379D01*
X785408Y135347D01*
X785366Y135321D01*
X785245Y135215D01*
X778928Y128899D01*
X778868Y128820D01*
X778800Y128748D01*
X778771Y128695D01*
X778734Y128647D01*
X778694Y128556D01*
X778646Y128470D01*
X778631Y128411D01*
X778607Y128355D01*
X778592Y128257D01*
X778567Y128162D01*
X778561Y128062D01*
X778557Y128041D01*
X778559Y128029D01*
X778557Y128001D01*
X778557Y83527D01*
X776473Y81443D01*
X533527Y81443D01*
G37*
%LPD*%
%LPC*%
G36*
X515229Y194893D02*
X515229Y194893D01*
X511588Y196401D01*
X508801Y199188D01*
X507293Y202829D01*
X507293Y206771D01*
X508801Y210412D01*
X511588Y213199D01*
X515229Y214707D01*
X519171Y214707D01*
X522281Y213419D01*
X522309Y213411D01*
X522335Y213397D01*
X522462Y213369D01*
X522587Y213335D01*
X522617Y213334D01*
X522646Y213328D01*
X522775Y213332D01*
X522905Y213330D01*
X522934Y213336D01*
X522963Y213337D01*
X523088Y213373D01*
X523214Y213404D01*
X523241Y213418D01*
X523269Y213426D01*
X523381Y213492D01*
X523496Y213552D01*
X523517Y213572D01*
X523543Y213587D01*
X523664Y213694D01*
X571072Y261101D01*
X573527Y263557D01*
X657940Y263557D01*
X658058Y263572D01*
X658177Y263579D01*
X658215Y263592D01*
X658256Y263597D01*
X658366Y263640D01*
X658479Y263677D01*
X658514Y263699D01*
X658551Y263714D01*
X658647Y263783D01*
X658748Y263847D01*
X658776Y263877D01*
X658809Y263900D01*
X658885Y263992D01*
X658966Y264079D01*
X658986Y264114D01*
X659011Y264145D01*
X659062Y264253D01*
X659120Y264357D01*
X659130Y264397D01*
X659147Y264433D01*
X659169Y264550D01*
X659199Y264665D01*
X659203Y264725D01*
X659207Y264745D01*
X659205Y264766D01*
X659209Y264826D01*
X659209Y268527D01*
X660761Y272273D01*
X663627Y275139D01*
X667373Y276691D01*
X671427Y276691D01*
X675173Y275139D01*
X676383Y273928D01*
X676462Y273868D01*
X676534Y273800D01*
X676587Y273771D01*
X676635Y273734D01*
X676726Y273694D01*
X676812Y273646D01*
X676871Y273631D01*
X676927Y273607D01*
X677024Y273592D01*
X677120Y273567D01*
X677220Y273561D01*
X677241Y273557D01*
X677253Y273559D01*
X677281Y273557D01*
X685174Y273557D01*
X685292Y273572D01*
X685411Y273579D01*
X685449Y273592D01*
X685490Y273597D01*
X685600Y273640D01*
X685713Y273677D01*
X685748Y273699D01*
X685785Y273714D01*
X685881Y273783D01*
X685982Y273847D01*
X686010Y273877D01*
X686043Y273900D01*
X686119Y273992D01*
X686200Y274079D01*
X686220Y274114D01*
X686245Y274145D01*
X686296Y274253D01*
X686354Y274357D01*
X686364Y274397D01*
X686381Y274433D01*
X686403Y274550D01*
X686433Y274665D01*
X686437Y274725D01*
X686441Y274745D01*
X686439Y274766D01*
X686443Y274826D01*
X686443Y323001D01*
X686431Y323099D01*
X686428Y323198D01*
X686411Y323256D01*
X686403Y323317D01*
X686367Y323409D01*
X686339Y323504D01*
X686309Y323556D01*
X686286Y323612D01*
X686228Y323692D01*
X686178Y323778D01*
X686112Y323853D01*
X686100Y323870D01*
X686090Y323877D01*
X686072Y323899D01*
X668899Y341071D01*
X668778Y341192D01*
X668755Y341210D01*
X668736Y341233D01*
X668629Y341307D01*
X668527Y341387D01*
X668500Y341399D01*
X668476Y341416D01*
X668354Y341462D01*
X668235Y341513D01*
X668206Y341518D01*
X668178Y341528D01*
X668049Y341543D01*
X667921Y341563D01*
X667892Y341560D01*
X667862Y341564D01*
X667733Y341545D01*
X667604Y341533D01*
X667577Y341523D01*
X667549Y341519D01*
X663479Y341519D01*
X659744Y343066D01*
X656886Y345924D01*
X655339Y349659D01*
X655339Y368941D01*
X656886Y372676D01*
X659744Y375534D01*
X663479Y377081D01*
X667521Y377081D01*
X671256Y375534D01*
X674114Y372676D01*
X675661Y368941D01*
X675661Y349659D01*
X674436Y346702D01*
X674428Y346674D01*
X674415Y346647D01*
X674386Y346521D01*
X674352Y346395D01*
X674352Y346366D01*
X674345Y346337D01*
X674349Y346207D01*
X674347Y346077D01*
X674354Y346049D01*
X674355Y346019D01*
X674391Y345895D01*
X674421Y345768D01*
X674435Y345742D01*
X674443Y345714D01*
X674509Y345602D01*
X674570Y345487D01*
X674590Y345465D01*
X674605Y345440D01*
X674711Y345319D01*
X693557Y326473D01*
X693557Y268527D01*
X691473Y266443D01*
X680860Y266443D01*
X680742Y266428D01*
X680623Y266421D01*
X680585Y266408D01*
X680544Y266403D01*
X680434Y266360D01*
X680321Y266323D01*
X680286Y266301D01*
X680249Y266286D01*
X680153Y266217D01*
X680052Y266153D01*
X680024Y266123D01*
X679991Y266100D01*
X679915Y266008D01*
X679834Y265921D01*
X679814Y265886D01*
X679789Y265855D01*
X679738Y265747D01*
X679680Y265643D01*
X679670Y265603D01*
X679653Y265567D01*
X679631Y265450D01*
X679601Y265335D01*
X679597Y265275D01*
X679593Y265255D01*
X679595Y265234D01*
X679591Y265174D01*
X679591Y264473D01*
X678039Y260727D01*
X678035Y260724D01*
X677950Y260614D01*
X677861Y260507D01*
X677853Y260488D01*
X677840Y260472D01*
X677785Y260344D01*
X677726Y260219D01*
X677722Y260199D01*
X677714Y260180D01*
X677692Y260043D01*
X677666Y259906D01*
X677667Y259886D01*
X677664Y259866D01*
X677677Y259728D01*
X677686Y259589D01*
X677692Y259570D01*
X677694Y259550D01*
X677741Y259419D01*
X677784Y259287D01*
X677795Y259269D01*
X677802Y259250D01*
X677880Y259136D01*
X677954Y259018D01*
X677969Y259004D01*
X677980Y258987D01*
X678084Y258895D01*
X678186Y258800D01*
X678203Y258790D01*
X678219Y258777D01*
X678343Y258713D01*
X678464Y258646D01*
X678484Y258641D01*
X678502Y258632D01*
X678638Y258602D01*
X678772Y258567D01*
X678800Y258565D01*
X678812Y258562D01*
X678833Y258563D01*
X678933Y258557D01*
X715174Y258557D01*
X715292Y258572D01*
X715411Y258579D01*
X715449Y258592D01*
X715490Y258597D01*
X715600Y258640D01*
X715713Y258677D01*
X715748Y258699D01*
X715785Y258714D01*
X715881Y258783D01*
X715982Y258847D01*
X716010Y258877D01*
X716043Y258900D01*
X716119Y258992D01*
X716200Y259079D01*
X716220Y259114D01*
X716245Y259145D01*
X716296Y259253D01*
X716354Y259357D01*
X716364Y259397D01*
X716381Y259433D01*
X716403Y259550D01*
X716433Y259665D01*
X716437Y259725D01*
X716441Y259745D01*
X716439Y259766D01*
X716443Y259826D01*
X716443Y496473D01*
X741072Y521101D01*
X741132Y521180D01*
X741200Y521252D01*
X741229Y521305D01*
X741266Y521353D01*
X741306Y521444D01*
X741354Y521530D01*
X741369Y521589D01*
X741393Y521645D01*
X741408Y521743D01*
X741433Y521838D01*
X741439Y521938D01*
X741443Y521959D01*
X741441Y521971D01*
X741443Y521999D01*
X741443Y716473D01*
X761014Y736044D01*
X761087Y736138D01*
X761166Y736227D01*
X761177Y736249D01*
X761180Y736253D01*
X761186Y736266D01*
X761209Y736295D01*
X761256Y736405D01*
X761310Y736511D01*
X761319Y736550D01*
X761335Y736587D01*
X761354Y736705D01*
X761380Y736821D01*
X761379Y736861D01*
X761385Y736901D01*
X761374Y737020D01*
X761370Y737139D01*
X761359Y737178D01*
X761355Y737218D01*
X761315Y737330D01*
X761282Y737444D01*
X761261Y737479D01*
X761248Y737517D01*
X761181Y737616D01*
X761120Y737718D01*
X761081Y737763D01*
X761069Y737780D01*
X761054Y737794D01*
X761014Y737839D01*
X760577Y738276D01*
X760577Y747324D01*
X766976Y753723D01*
X776024Y753723D01*
X782423Y747324D01*
X782423Y738276D01*
X776024Y731877D01*
X767433Y731877D01*
X767335Y731865D01*
X767236Y731862D01*
X767178Y731845D01*
X767117Y731837D01*
X767025Y731801D01*
X766930Y731773D01*
X766878Y731743D01*
X766822Y731720D01*
X766742Y731662D01*
X766656Y731612D01*
X766581Y731546D01*
X766564Y731534D01*
X766557Y731524D01*
X766545Y731513D01*
X766544Y731513D01*
X766535Y731506D01*
X748928Y713899D01*
X748868Y713820D01*
X748800Y713748D01*
X748771Y713695D01*
X748734Y713647D01*
X748694Y713556D01*
X748646Y713470D01*
X748631Y713411D01*
X748607Y713355D01*
X748592Y713257D01*
X748567Y713162D01*
X748561Y713062D01*
X748557Y713041D01*
X748559Y713029D01*
X748557Y713001D01*
X748557Y696651D01*
X748574Y696513D01*
X748587Y696375D01*
X748594Y696355D01*
X748597Y696335D01*
X748648Y696206D01*
X748695Y696075D01*
X748706Y696058D01*
X748714Y696040D01*
X748795Y695927D01*
X748873Y695812D01*
X748889Y695799D01*
X748900Y695782D01*
X749008Y695694D01*
X749112Y695602D01*
X749130Y695592D01*
X749145Y695580D01*
X749271Y695520D01*
X749395Y695457D01*
X749415Y695453D01*
X749433Y695444D01*
X749569Y695418D01*
X749705Y695387D01*
X749726Y695388D01*
X749745Y695384D01*
X749884Y695393D01*
X750023Y695397D01*
X750043Y695403D01*
X750063Y695404D01*
X750195Y695447D01*
X750329Y695485D01*
X750346Y695496D01*
X750365Y695502D01*
X750483Y695576D01*
X750603Y695647D01*
X750624Y695666D01*
X750634Y695672D01*
X750648Y695687D01*
X750723Y695753D01*
X763314Y708344D01*
X763387Y708438D01*
X763466Y708527D01*
X763484Y708563D01*
X763509Y708595D01*
X763556Y708705D01*
X763610Y708811D01*
X763619Y708850D01*
X763635Y708887D01*
X763654Y709005D01*
X763680Y709121D01*
X763679Y709161D01*
X763685Y709201D01*
X763674Y709320D01*
X763670Y709439D01*
X763659Y709478D01*
X763655Y709518D01*
X763615Y709630D01*
X763582Y709744D01*
X763561Y709779D01*
X763548Y709817D01*
X763481Y709916D01*
X763420Y710018D01*
X763381Y710063D01*
X763369Y710080D01*
X763354Y710094D01*
X763314Y710139D01*
X760577Y712876D01*
X760577Y721924D01*
X766976Y728323D01*
X776024Y728323D01*
X782423Y721924D01*
X782423Y712876D01*
X776024Y706477D01*
X772033Y706477D01*
X771935Y706465D01*
X771836Y706462D01*
X771778Y706445D01*
X771717Y706437D01*
X771625Y706401D01*
X771530Y706373D01*
X771478Y706343D01*
X771422Y706320D01*
X771342Y706262D01*
X771256Y706212D01*
X771181Y706146D01*
X771164Y706134D01*
X771161Y706130D01*
X771159Y706128D01*
X771153Y706121D01*
X771135Y706106D01*
X753928Y688899D01*
X753868Y688820D01*
X753800Y688748D01*
X753771Y688695D01*
X753734Y688647D01*
X753694Y688556D01*
X753646Y688470D01*
X753631Y688411D01*
X753607Y688355D01*
X753592Y688257D01*
X753567Y688162D01*
X753561Y688062D01*
X753557Y688041D01*
X753559Y688029D01*
X753557Y688001D01*
X753557Y641999D01*
X753569Y641901D01*
X753572Y641802D01*
X753589Y641744D01*
X753597Y641683D01*
X753633Y641591D01*
X753661Y641496D01*
X753691Y641444D01*
X753714Y641388D01*
X753772Y641308D01*
X753822Y641222D01*
X753888Y641147D01*
X753900Y641130D01*
X753910Y641123D01*
X753928Y641101D01*
X760013Y635016D01*
X760092Y634956D01*
X760164Y634888D01*
X760217Y634859D01*
X760265Y634822D01*
X760356Y634782D01*
X760442Y634734D01*
X760501Y634719D01*
X760557Y634695D01*
X760655Y634680D01*
X760750Y634655D01*
X760850Y634649D01*
X760871Y634645D01*
X760883Y634647D01*
X760911Y634645D01*
X767688Y634645D01*
X773045Y629288D01*
X773045Y621712D01*
X767688Y616355D01*
X760112Y616355D01*
X754755Y621712D01*
X754755Y629689D01*
X754743Y629787D01*
X754740Y629886D01*
X754723Y629944D01*
X754715Y630005D01*
X754679Y630097D01*
X754651Y630192D01*
X754621Y630244D01*
X754598Y630300D01*
X754540Y630380D01*
X754490Y630466D01*
X754424Y630541D01*
X754412Y630558D01*
X754402Y630565D01*
X754384Y630587D01*
X750723Y634247D01*
X750614Y634332D01*
X750507Y634420D01*
X750488Y634429D01*
X750472Y634442D01*
X750344Y634497D01*
X750219Y634556D01*
X750199Y634560D01*
X750180Y634568D01*
X750042Y634590D01*
X749906Y634616D01*
X749886Y634615D01*
X749866Y634618D01*
X749727Y634605D01*
X749589Y634596D01*
X749570Y634590D01*
X749550Y634588D01*
X749418Y634541D01*
X749287Y634498D01*
X749269Y634487D01*
X749250Y634480D01*
X749135Y634402D01*
X749018Y634328D01*
X749004Y634313D01*
X748987Y634302D01*
X748895Y634197D01*
X748800Y634096D01*
X748790Y634079D01*
X748777Y634063D01*
X748713Y633939D01*
X748646Y633818D01*
X748641Y633798D01*
X748632Y633780D01*
X748602Y633644D01*
X748567Y633510D01*
X748565Y633482D01*
X748562Y633470D01*
X748563Y633449D01*
X748557Y633349D01*
X748557Y518527D01*
X723928Y493899D01*
X723868Y493820D01*
X723800Y493748D01*
X723771Y493695D01*
X723734Y493647D01*
X723694Y493556D01*
X723646Y493470D01*
X723631Y493411D01*
X723607Y493355D01*
X723592Y493257D01*
X723567Y493162D01*
X723561Y493062D01*
X723557Y493041D01*
X723559Y493029D01*
X723557Y493001D01*
X723557Y325563D01*
X723574Y325425D01*
X723587Y325286D01*
X723594Y325267D01*
X723597Y325247D01*
X723648Y325118D01*
X723695Y324987D01*
X723706Y324970D01*
X723714Y324951D01*
X723795Y324839D01*
X723873Y324724D01*
X723889Y324710D01*
X723900Y324694D01*
X724008Y324605D01*
X724112Y324513D01*
X724130Y324504D01*
X724145Y324491D01*
X724271Y324432D01*
X724395Y324369D01*
X724415Y324364D01*
X724433Y324356D01*
X724570Y324330D01*
X724705Y324299D01*
X724726Y324300D01*
X724745Y324296D01*
X724884Y324305D01*
X725023Y324309D01*
X725043Y324314D01*
X725063Y324316D01*
X725195Y324358D01*
X725329Y324397D01*
X725346Y324408D01*
X725365Y324414D01*
X725483Y324488D01*
X725603Y324559D01*
X725624Y324577D01*
X725634Y324584D01*
X725648Y324599D01*
X725723Y324665D01*
X726418Y325360D01*
X728742Y326323D01*
X731258Y326323D01*
X733582Y325360D01*
X735013Y323928D01*
X735091Y323868D01*
X735164Y323800D01*
X735217Y323771D01*
X735264Y323734D01*
X735355Y323694D01*
X735442Y323646D01*
X735501Y323631D01*
X735556Y323607D01*
X735654Y323592D01*
X735750Y323567D01*
X735850Y323561D01*
X735870Y323557D01*
X735883Y323559D01*
X735911Y323557D01*
X796473Y323557D01*
X798557Y321473D01*
X798557Y302885D01*
X798560Y302856D01*
X798558Y302826D01*
X798580Y302698D01*
X798597Y302570D01*
X798607Y302542D01*
X798612Y302513D01*
X798666Y302395D01*
X798714Y302274D01*
X798731Y302250D01*
X798743Y302223D01*
X798824Y302122D01*
X798900Y302017D01*
X798923Y301998D01*
X798942Y301975D01*
X799045Y301897D01*
X799145Y301814D01*
X799172Y301801D01*
X799196Y301783D01*
X799340Y301712D01*
X802173Y300539D01*
X805039Y297673D01*
X806591Y293927D01*
X806591Y289873D01*
X805039Y286127D01*
X802173Y283261D01*
X798427Y281709D01*
X794373Y281709D01*
X790627Y283261D01*
X787761Y286127D01*
X786209Y289873D01*
X786209Y293927D01*
X787761Y297673D01*
X790627Y300539D01*
X790660Y300553D01*
X790685Y300567D01*
X790713Y300576D01*
X790823Y300646D01*
X790936Y300710D01*
X790957Y300731D01*
X790982Y300747D01*
X791071Y300841D01*
X791164Y300931D01*
X791180Y300957D01*
X791200Y300978D01*
X791263Y301092D01*
X791331Y301203D01*
X791339Y301231D01*
X791354Y301257D01*
X791386Y301382D01*
X791424Y301506D01*
X791426Y301536D01*
X791433Y301565D01*
X791443Y301725D01*
X791443Y315174D01*
X791428Y315292D01*
X791421Y315411D01*
X791408Y315449D01*
X791403Y315490D01*
X791360Y315600D01*
X791323Y315713D01*
X791301Y315748D01*
X791286Y315785D01*
X791217Y315881D01*
X791153Y315982D01*
X791123Y316010D01*
X791100Y316043D01*
X791008Y316119D01*
X790921Y316200D01*
X790886Y316220D01*
X790855Y316245D01*
X790747Y316296D01*
X790643Y316354D01*
X790603Y316364D01*
X790567Y316381D01*
X790450Y316403D01*
X790335Y316433D01*
X790275Y316437D01*
X790255Y316441D01*
X790234Y316439D01*
X790174Y316443D01*
X740563Y316443D01*
X740425Y316426D01*
X740286Y316413D01*
X740267Y316406D01*
X740247Y316403D01*
X740118Y316352D01*
X739987Y316305D01*
X739970Y316294D01*
X739951Y316286D01*
X739839Y316205D01*
X739724Y316127D01*
X739710Y316111D01*
X739694Y316100D01*
X739605Y315992D01*
X739513Y315888D01*
X739504Y315870D01*
X739491Y315855D01*
X739432Y315729D01*
X739369Y315605D01*
X739364Y315585D01*
X739356Y315567D01*
X739330Y315430D01*
X739299Y315295D01*
X739300Y315274D01*
X739296Y315255D01*
X739305Y315116D01*
X739309Y314977D01*
X739314Y314957D01*
X739316Y314937D01*
X739358Y314805D01*
X739397Y314671D01*
X739408Y314654D01*
X739414Y314635D01*
X739488Y314517D01*
X739559Y314397D01*
X739577Y314376D01*
X739584Y314366D01*
X739599Y314352D01*
X739665Y314277D01*
X740360Y313582D01*
X741323Y311258D01*
X741323Y309233D01*
X741335Y309135D01*
X741338Y309036D01*
X741355Y308978D01*
X741363Y308917D01*
X741399Y308825D01*
X741427Y308730D01*
X741457Y308678D01*
X741480Y308622D01*
X741538Y308542D01*
X741588Y308456D01*
X741654Y308381D01*
X741666Y308364D01*
X741676Y308357D01*
X741694Y308335D01*
X781101Y268928D01*
X781180Y268868D01*
X781252Y268800D01*
X781305Y268771D01*
X781353Y268734D01*
X781444Y268694D01*
X781530Y268646D01*
X781589Y268631D01*
X781645Y268607D01*
X781743Y268592D01*
X781838Y268567D01*
X781938Y268561D01*
X781959Y268557D01*
X781971Y268559D01*
X781999Y268557D01*
X785373Y268557D01*
X785403Y268560D01*
X785432Y268558D01*
X785560Y268580D01*
X785689Y268597D01*
X785716Y268607D01*
X785746Y268612D01*
X785864Y268666D01*
X785985Y268714D01*
X786009Y268731D01*
X786036Y268743D01*
X786137Y268824D01*
X786242Y268900D01*
X786261Y268923D01*
X786284Y268942D01*
X786362Y269045D01*
X786445Y269145D01*
X786457Y269172D01*
X786475Y269196D01*
X786546Y269340D01*
X787761Y272273D01*
X790627Y275139D01*
X794373Y276691D01*
X798427Y276691D01*
X802173Y275139D01*
X805039Y272273D01*
X806591Y268527D01*
X806591Y264473D01*
X805039Y260727D01*
X802173Y257861D01*
X798427Y256309D01*
X794373Y256309D01*
X790627Y257861D01*
X787748Y260740D01*
X787696Y260823D01*
X787631Y260936D01*
X787611Y260957D01*
X787595Y260982D01*
X787500Y261071D01*
X787410Y261164D01*
X787385Y261180D01*
X787363Y261200D01*
X787250Y261263D01*
X787139Y261331D01*
X787111Y261339D01*
X787085Y261354D01*
X786959Y261386D01*
X786835Y261424D01*
X786805Y261426D01*
X786777Y261433D01*
X786616Y261443D01*
X778527Y261443D01*
X736665Y303306D01*
X736586Y303366D01*
X736514Y303434D01*
X736461Y303463D01*
X736413Y303500D01*
X736322Y303540D01*
X736236Y303588D01*
X736177Y303603D01*
X736121Y303627D01*
X736023Y303642D01*
X735928Y303667D01*
X735828Y303673D01*
X735807Y303677D01*
X735795Y303675D01*
X735767Y303677D01*
X733742Y303677D01*
X731418Y304640D01*
X729640Y306418D01*
X728677Y308742D01*
X728677Y311258D01*
X729057Y312173D01*
X729088Y312288D01*
X729127Y312401D01*
X729130Y312441D01*
X729140Y312480D01*
X729142Y312599D01*
X729152Y312718D01*
X729145Y312758D01*
X729146Y312798D01*
X729118Y312914D01*
X729097Y313031D01*
X729081Y313068D01*
X729071Y313107D01*
X729016Y313213D01*
X728967Y313321D01*
X728942Y313353D01*
X728923Y313388D01*
X728843Y313476D01*
X728768Y313569D01*
X728736Y313594D01*
X728709Y313624D01*
X728609Y313689D01*
X728514Y313761D01*
X728460Y313787D01*
X728443Y313798D01*
X728424Y313805D01*
X728370Y313832D01*
X726418Y314640D01*
X725723Y315335D01*
X725614Y315420D01*
X725507Y315509D01*
X725488Y315517D01*
X725472Y315530D01*
X725344Y315585D01*
X725219Y315644D01*
X725199Y315648D01*
X725180Y315656D01*
X725042Y315678D01*
X724906Y315704D01*
X724886Y315703D01*
X724866Y315706D01*
X724727Y315693D01*
X724589Y315684D01*
X724570Y315678D01*
X724550Y315676D01*
X724419Y315629D01*
X724287Y315586D01*
X724269Y315575D01*
X724250Y315569D01*
X724136Y315491D01*
X724018Y315416D01*
X724004Y315401D01*
X723987Y315390D01*
X723895Y315286D01*
X723800Y315184D01*
X723790Y315167D01*
X723777Y315152D01*
X723714Y315028D01*
X723646Y314906D01*
X723641Y314886D01*
X723632Y314868D01*
X723602Y314732D01*
X723567Y314598D01*
X723565Y314570D01*
X723562Y314558D01*
X723563Y314538D01*
X723557Y314437D01*
X723557Y253527D01*
X721473Y251443D01*
X676533Y251443D01*
X676395Y251426D01*
X676256Y251413D01*
X676237Y251406D01*
X676217Y251403D01*
X676088Y251352D01*
X675957Y251305D01*
X675940Y251294D01*
X675922Y251286D01*
X675809Y251205D01*
X675694Y251127D01*
X675681Y251111D01*
X675664Y251100D01*
X675575Y250992D01*
X675484Y250888D01*
X675474Y250870D01*
X675461Y250855D01*
X675402Y250729D01*
X675339Y250605D01*
X675335Y250585D01*
X675326Y250567D01*
X675300Y250431D01*
X675269Y250295D01*
X675270Y250274D01*
X675266Y250255D01*
X675275Y250116D01*
X675279Y249977D01*
X675285Y249957D01*
X675286Y249937D01*
X675329Y249805D01*
X675367Y249671D01*
X675378Y249654D01*
X675384Y249635D01*
X675459Y249517D01*
X675529Y249397D01*
X675547Y249376D01*
X675554Y249366D01*
X675569Y249352D01*
X675635Y249277D01*
X678039Y246873D01*
X679591Y243127D01*
X679591Y239073D01*
X678039Y235327D01*
X675173Y232461D01*
X671427Y230909D01*
X667373Y230909D01*
X663627Y232461D01*
X660761Y235327D01*
X659209Y239073D01*
X659209Y243127D01*
X660761Y246873D01*
X663532Y249643D01*
X663605Y249738D01*
X663683Y249827D01*
X663702Y249863D01*
X663727Y249895D01*
X663774Y250004D01*
X663828Y250110D01*
X663837Y250149D01*
X663853Y250187D01*
X663872Y250304D01*
X663898Y250420D01*
X663896Y250461D01*
X663903Y250501D01*
X663892Y250619D01*
X663888Y250738D01*
X663877Y250777D01*
X663873Y250817D01*
X663833Y250929D01*
X663800Y251044D01*
X663779Y251078D01*
X663765Y251117D01*
X663698Y251215D01*
X663638Y251318D01*
X663598Y251363D01*
X663587Y251380D01*
X663571Y251393D01*
X663532Y251438D01*
X661072Y253899D01*
X658899Y256072D01*
X658820Y256132D01*
X658748Y256200D01*
X658695Y256229D01*
X658647Y256266D01*
X658556Y256306D01*
X658470Y256354D01*
X658411Y256369D01*
X658355Y256393D01*
X658257Y256408D01*
X658162Y256433D01*
X658062Y256439D01*
X658041Y256443D01*
X658029Y256441D01*
X658001Y256443D01*
X576999Y256443D01*
X576901Y256431D01*
X576802Y256428D01*
X576744Y256411D01*
X576683Y256403D01*
X576591Y256367D01*
X576496Y256339D01*
X576444Y256309D01*
X576388Y256286D01*
X576308Y256228D01*
X576222Y256178D01*
X576147Y256112D01*
X576130Y256100D01*
X576123Y256090D01*
X576101Y256072D01*
X527478Y207449D01*
X527418Y207370D01*
X527350Y207298D01*
X527321Y207245D01*
X527284Y207197D01*
X527244Y207106D01*
X527196Y207020D01*
X527181Y206961D01*
X527157Y206905D01*
X527142Y206807D01*
X527117Y206712D01*
X527111Y206612D01*
X527107Y206591D01*
X527109Y206579D01*
X527107Y206551D01*
X527107Y202829D01*
X525599Y199188D01*
X522812Y196401D01*
X519171Y194893D01*
X515229Y194893D01*
G37*
%LPD*%
%LPC*%
G36*
X515229Y271093D02*
X515229Y271093D01*
X511588Y272601D01*
X508801Y275388D01*
X507293Y279029D01*
X507293Y282971D01*
X508801Y286612D01*
X511588Y289399D01*
X515229Y290907D01*
X519171Y290907D01*
X519593Y290732D01*
X519622Y290724D01*
X519648Y290710D01*
X519775Y290682D01*
X519900Y290648D01*
X519930Y290647D01*
X519959Y290641D01*
X520088Y290645D01*
X520218Y290643D01*
X520247Y290649D01*
X520276Y290650D01*
X520401Y290686D01*
X520527Y290717D01*
X520554Y290731D01*
X520582Y290739D01*
X520694Y290805D01*
X520809Y290865D01*
X520830Y290885D01*
X520856Y290900D01*
X520977Y291007D01*
X556072Y326101D01*
X558527Y328557D01*
X620174Y328557D01*
X620292Y328572D01*
X620411Y328579D01*
X620449Y328592D01*
X620490Y328597D01*
X620600Y328640D01*
X620713Y328677D01*
X620748Y328699D01*
X620785Y328714D01*
X620881Y328783D01*
X620982Y328847D01*
X621010Y328877D01*
X621043Y328900D01*
X621119Y328992D01*
X621200Y329079D01*
X621220Y329114D01*
X621245Y329145D01*
X621296Y329253D01*
X621354Y329357D01*
X621364Y329397D01*
X621381Y329433D01*
X621403Y329550D01*
X621433Y329665D01*
X621437Y329725D01*
X621441Y329745D01*
X621439Y329766D01*
X621443Y329826D01*
X621443Y351473D01*
X629568Y359597D01*
X629628Y359676D01*
X629696Y359748D01*
X629725Y359801D01*
X629762Y359849D01*
X629802Y359940D01*
X629850Y360026D01*
X629865Y360085D01*
X629889Y360141D01*
X629904Y360239D01*
X629929Y360334D01*
X629935Y360434D01*
X629939Y360455D01*
X629937Y360467D01*
X629939Y360495D01*
X629939Y368941D01*
X631486Y372676D01*
X634344Y375534D01*
X638079Y377081D01*
X640174Y377081D01*
X640292Y377096D01*
X640411Y377103D01*
X640449Y377116D01*
X640490Y377121D01*
X640600Y377164D01*
X640713Y377201D01*
X640748Y377223D01*
X640785Y377238D01*
X640881Y377307D01*
X640982Y377371D01*
X641010Y377401D01*
X641043Y377424D01*
X641119Y377516D01*
X641200Y377603D01*
X641220Y377638D01*
X641245Y377669D01*
X641296Y377777D01*
X641354Y377881D01*
X641364Y377921D01*
X641381Y377957D01*
X641403Y378074D01*
X641433Y378189D01*
X641437Y378249D01*
X641441Y378269D01*
X641439Y378290D01*
X641443Y378350D01*
X641443Y408001D01*
X641431Y408099D01*
X641428Y408198D01*
X641411Y408256D01*
X641403Y408317D01*
X641367Y408409D01*
X641339Y408504D01*
X641309Y408556D01*
X641286Y408612D01*
X641228Y408692D01*
X641178Y408778D01*
X641112Y408853D01*
X641100Y408870D01*
X641090Y408877D01*
X641072Y408899D01*
X628299Y421671D01*
X628205Y421744D01*
X628115Y421823D01*
X628080Y421841D01*
X628048Y421866D01*
X627938Y421914D01*
X627832Y421968D01*
X627793Y421976D01*
X627756Y421993D01*
X627638Y422011D01*
X627522Y422037D01*
X627482Y422036D01*
X627442Y422042D01*
X627323Y422031D01*
X627204Y422028D01*
X627165Y422016D01*
X627125Y422013D01*
X627013Y421972D01*
X626899Y421939D01*
X626864Y421919D01*
X626826Y421905D01*
X626727Y421838D01*
X626625Y421778D01*
X626580Y421738D01*
X626563Y421726D01*
X626549Y421711D01*
X626504Y421671D01*
X625688Y420855D01*
X618112Y420855D01*
X612755Y426212D01*
X612755Y433788D01*
X618112Y439145D01*
X620174Y439145D01*
X620292Y439160D01*
X620411Y439167D01*
X620449Y439180D01*
X620490Y439185D01*
X620600Y439228D01*
X620713Y439265D01*
X620748Y439287D01*
X620785Y439302D01*
X620881Y439371D01*
X620982Y439435D01*
X621010Y439465D01*
X621043Y439488D01*
X621119Y439580D01*
X621200Y439667D01*
X621220Y439702D01*
X621245Y439733D01*
X621296Y439841D01*
X621354Y439945D01*
X621364Y439985D01*
X621381Y440021D01*
X621403Y440138D01*
X621433Y440253D01*
X621437Y440313D01*
X621441Y440333D01*
X621439Y440354D01*
X621443Y440414D01*
X621443Y501473D01*
X716072Y596101D01*
X716132Y596180D01*
X716200Y596252D01*
X716229Y596305D01*
X716266Y596353D01*
X716306Y596444D01*
X716354Y596530D01*
X716369Y596589D01*
X716393Y596645D01*
X716408Y596743D01*
X716433Y596838D01*
X716439Y596938D01*
X716443Y596959D01*
X716441Y596971D01*
X716443Y596999D01*
X716443Y718001D01*
X716431Y718099D01*
X716428Y718198D01*
X716411Y718256D01*
X716403Y718317D01*
X716367Y718409D01*
X716339Y718504D01*
X716309Y718556D01*
X716286Y718612D01*
X716228Y718692D01*
X716178Y718778D01*
X716112Y718853D01*
X716100Y718870D01*
X716090Y718877D01*
X716072Y718899D01*
X706465Y728506D01*
X706386Y728566D01*
X706314Y728634D01*
X706261Y728663D01*
X706213Y728700D01*
X706122Y728740D01*
X706036Y728788D01*
X705977Y728803D01*
X705921Y728827D01*
X705823Y728842D01*
X705728Y728867D01*
X705628Y728873D01*
X705607Y728877D01*
X705595Y728875D01*
X705567Y728877D01*
X696976Y728877D01*
X690577Y735276D01*
X690577Y744324D01*
X696976Y750723D01*
X706024Y750723D01*
X712423Y744324D01*
X712423Y735276D01*
X711986Y734839D01*
X711913Y734745D01*
X711834Y734656D01*
X711816Y734620D01*
X711791Y734588D01*
X711744Y734478D01*
X711690Y734372D01*
X711681Y734333D01*
X711665Y734296D01*
X711646Y734178D01*
X711620Y734062D01*
X711621Y734022D01*
X711615Y733982D01*
X711626Y733863D01*
X711630Y733744D01*
X711641Y733705D01*
X711645Y733665D01*
X711685Y733553D01*
X711718Y733439D01*
X711739Y733404D01*
X711752Y733366D01*
X711819Y733268D01*
X711880Y733165D01*
X711919Y733120D01*
X711931Y733103D01*
X711946Y733089D01*
X711986Y733044D01*
X721101Y723928D01*
X721102Y723928D01*
X723557Y721473D01*
X723557Y593527D01*
X628928Y498899D01*
X628868Y498820D01*
X628800Y498748D01*
X628771Y498695D01*
X628734Y498647D01*
X628694Y498556D01*
X628646Y498470D01*
X628631Y498411D01*
X628607Y498355D01*
X628592Y498257D01*
X628567Y498162D01*
X628561Y498062D01*
X628557Y498041D01*
X628559Y498029D01*
X628557Y498001D01*
X628557Y436802D01*
X628569Y436703D01*
X628572Y436604D01*
X628589Y436546D01*
X628597Y436486D01*
X628633Y436394D01*
X628661Y436299D01*
X628691Y436247D01*
X628714Y436190D01*
X628772Y436110D01*
X628822Y436025D01*
X628888Y435950D01*
X628900Y435933D01*
X628910Y435925D01*
X628928Y435904D01*
X631045Y433788D01*
X631045Y429511D01*
X631057Y429413D01*
X631060Y429314D01*
X631077Y429256D01*
X631085Y429195D01*
X631121Y429103D01*
X631149Y429008D01*
X631179Y428956D01*
X631202Y428900D01*
X631260Y428820D01*
X631310Y428734D01*
X631376Y428659D01*
X631388Y428642D01*
X631398Y428635D01*
X631416Y428613D01*
X648557Y411473D01*
X648557Y373307D01*
X648558Y373298D01*
X648557Y373289D01*
X648578Y373140D01*
X648597Y372992D01*
X648600Y372983D01*
X648601Y372974D01*
X648653Y372822D01*
X650261Y368941D01*
X650261Y349659D01*
X648714Y345924D01*
X645856Y343066D01*
X642121Y341519D01*
X638079Y341519D01*
X634344Y343066D01*
X631486Y345924D01*
X630999Y347101D01*
X630964Y347162D01*
X630938Y347227D01*
X630886Y347300D01*
X630841Y347378D01*
X630793Y347428D01*
X630752Y347484D01*
X630682Y347542D01*
X630620Y347606D01*
X630560Y347643D01*
X630507Y347687D01*
X630425Y347725D01*
X630349Y347772D01*
X630282Y347793D01*
X630219Y347823D01*
X630131Y347839D01*
X630045Y347866D01*
X629975Y347869D01*
X629906Y347882D01*
X629817Y347877D01*
X629727Y347881D01*
X629659Y347867D01*
X629589Y347863D01*
X629504Y347835D01*
X629416Y347817D01*
X629353Y347786D01*
X629287Y347765D01*
X629211Y347717D01*
X629130Y347677D01*
X629077Y347632D01*
X629018Y347594D01*
X628956Y347529D01*
X628888Y347471D01*
X628848Y347414D01*
X628800Y347363D01*
X628757Y347284D01*
X628705Y347211D01*
X628680Y347145D01*
X628646Y347084D01*
X628624Y346997D01*
X628592Y346913D01*
X628584Y346844D01*
X628567Y346776D01*
X628557Y346616D01*
X628557Y323527D01*
X626473Y321443D01*
X561999Y321443D01*
X561901Y321431D01*
X561802Y321428D01*
X561744Y321411D01*
X561683Y321403D01*
X561591Y321367D01*
X561496Y321339D01*
X561444Y321309D01*
X561388Y321286D01*
X561308Y321228D01*
X561222Y321178D01*
X561147Y321112D01*
X561130Y321100D01*
X561123Y321090D01*
X561101Y321072D01*
X526504Y286474D01*
X526486Y286450D01*
X526463Y286431D01*
X526389Y286325D01*
X526309Y286222D01*
X526297Y286195D01*
X526280Y286171D01*
X526234Y286050D01*
X526182Y285931D01*
X526178Y285901D01*
X526167Y285874D01*
X526153Y285745D01*
X526133Y285617D01*
X526135Y285587D01*
X526132Y285558D01*
X526150Y285429D01*
X526162Y285300D01*
X526172Y285272D01*
X526177Y285243D01*
X526229Y285091D01*
X527107Y282971D01*
X527107Y279029D01*
X525599Y275388D01*
X522812Y272601D01*
X519171Y271093D01*
X515229Y271093D01*
G37*
%LPD*%
%LPC*%
G36*
X515229Y321893D02*
X515229Y321893D01*
X511588Y323401D01*
X508801Y326188D01*
X507293Y329829D01*
X507293Y333771D01*
X508801Y337412D01*
X511588Y340199D01*
X515229Y341707D01*
X519171Y341707D01*
X520159Y341297D01*
X520188Y341289D01*
X520214Y341276D01*
X520341Y341248D01*
X520466Y341213D01*
X520495Y341213D01*
X520524Y341206D01*
X520654Y341210D01*
X520784Y341208D01*
X520813Y341215D01*
X520842Y341216D01*
X520967Y341252D01*
X521093Y341282D01*
X521119Y341296D01*
X521148Y341304D01*
X521259Y341370D01*
X521374Y341431D01*
X521396Y341451D01*
X521422Y341466D01*
X521542Y341572D01*
X531072Y351101D01*
X531132Y351180D01*
X531200Y351252D01*
X531229Y351305D01*
X531266Y351353D01*
X531306Y351444D01*
X531354Y351530D01*
X531369Y351589D01*
X531393Y351645D01*
X531408Y351743D01*
X531433Y351838D01*
X531439Y351938D01*
X531443Y351959D01*
X531441Y351971D01*
X531443Y351999D01*
X531443Y442510D01*
X531440Y442539D01*
X531442Y442569D01*
X531422Y442681D01*
X531421Y442705D01*
X531417Y442716D01*
X531403Y442825D01*
X531393Y442853D01*
X531388Y442882D01*
X531334Y443000D01*
X531286Y443121D01*
X531269Y443145D01*
X531257Y443172D01*
X531176Y443273D01*
X531100Y443378D01*
X531077Y443397D01*
X531058Y443420D01*
X530955Y443498D01*
X530855Y443581D01*
X530828Y443594D01*
X530804Y443612D01*
X530668Y443678D01*
X526380Y447967D01*
X524059Y453568D01*
X524059Y459632D01*
X526380Y465233D01*
X530667Y469520D01*
X536268Y471841D01*
X536285Y471841D01*
X536383Y471853D01*
X536482Y471856D01*
X536540Y471873D01*
X536601Y471881D01*
X536693Y471917D01*
X536788Y471945D01*
X536840Y471975D01*
X536896Y471998D01*
X536976Y472056D01*
X537062Y472106D01*
X537137Y472172D01*
X537154Y472184D01*
X537161Y472194D01*
X537183Y472212D01*
X561072Y496101D01*
X561132Y496180D01*
X561200Y496252D01*
X561229Y496305D01*
X561266Y496353D01*
X561306Y496444D01*
X561354Y496530D01*
X561369Y496589D01*
X561393Y496645D01*
X561408Y496743D01*
X561433Y496838D01*
X561439Y496938D01*
X561443Y496959D01*
X561441Y496971D01*
X561443Y496999D01*
X561443Y506473D01*
X563527Y508557D01*
X599698Y508557D01*
X599797Y508569D01*
X599896Y508572D01*
X599954Y508589D01*
X600014Y508597D01*
X600106Y508633D01*
X600201Y508661D01*
X600253Y508691D01*
X600310Y508714D01*
X600390Y508772D01*
X600475Y508822D01*
X600550Y508888D01*
X600567Y508900D01*
X600575Y508910D01*
X600596Y508928D01*
X604712Y513045D01*
X607489Y513045D01*
X607587Y513057D01*
X607686Y513060D01*
X607744Y513077D01*
X607805Y513085D01*
X607897Y513121D01*
X607992Y513149D01*
X608044Y513179D01*
X608100Y513202D01*
X608180Y513260D01*
X608266Y513310D01*
X608341Y513376D01*
X608358Y513388D01*
X608365Y513398D01*
X608387Y513416D01*
X666072Y571101D01*
X666132Y571180D01*
X666200Y571252D01*
X666229Y571305D01*
X666266Y571353D01*
X666306Y571444D01*
X666354Y571530D01*
X666369Y571589D01*
X666393Y571645D01*
X666408Y571743D01*
X666433Y571838D01*
X666439Y571938D01*
X666443Y571959D01*
X666441Y571971D01*
X666443Y571999D01*
X666443Y611473D01*
X678184Y623213D01*
X678244Y623292D01*
X678312Y623364D01*
X678341Y623417D01*
X678378Y623465D01*
X678418Y623556D01*
X678466Y623642D01*
X678481Y623701D01*
X678505Y623757D01*
X678520Y623855D01*
X678545Y623950D01*
X678551Y624050D01*
X678555Y624071D01*
X678553Y624083D01*
X678555Y624111D01*
X678555Y629288D01*
X683912Y634645D01*
X689089Y634645D01*
X689187Y634657D01*
X689286Y634660D01*
X689345Y634677D01*
X689405Y634685D01*
X689497Y634721D01*
X689592Y634749D01*
X689644Y634779D01*
X689700Y634802D01*
X689780Y634860D01*
X689866Y634910D01*
X689941Y634976D01*
X689958Y634988D01*
X689965Y634998D01*
X689987Y635017D01*
X691072Y636102D01*
X691132Y636180D01*
X691200Y636252D01*
X691229Y636305D01*
X691266Y636353D01*
X691306Y636444D01*
X691354Y636530D01*
X691369Y636589D01*
X691393Y636645D01*
X691408Y636743D01*
X691433Y636838D01*
X691439Y636938D01*
X691443Y636959D01*
X691441Y636971D01*
X691443Y636999D01*
X691443Y653001D01*
X691431Y653099D01*
X691428Y653198D01*
X691411Y653256D01*
X691403Y653317D01*
X691367Y653409D01*
X691339Y653504D01*
X691309Y653556D01*
X691286Y653612D01*
X691228Y653692D01*
X691178Y653778D01*
X691112Y653853D01*
X691100Y653870D01*
X691090Y653877D01*
X691072Y653899D01*
X688987Y655984D01*
X688908Y656044D01*
X688836Y656112D01*
X688783Y656141D01*
X688735Y656178D01*
X688644Y656218D01*
X688558Y656266D01*
X688499Y656281D01*
X688443Y656305D01*
X688345Y656320D01*
X688250Y656345D01*
X688150Y656351D01*
X688129Y656355D01*
X688117Y656353D01*
X688089Y656355D01*
X685512Y656355D01*
X680155Y661712D01*
X680155Y669288D01*
X685512Y674645D01*
X693088Y674645D01*
X698445Y669288D01*
X698445Y661712D01*
X696779Y660046D01*
X696706Y659952D01*
X696627Y659863D01*
X696609Y659827D01*
X696584Y659795D01*
X696536Y659685D01*
X696482Y659580D01*
X696474Y659540D01*
X696457Y659503D01*
X696439Y659385D01*
X696413Y659269D01*
X696414Y659229D01*
X696408Y659189D01*
X696419Y659070D01*
X696422Y658951D01*
X696434Y658913D01*
X696437Y658872D01*
X696478Y658760D01*
X696511Y658646D01*
X696531Y658611D01*
X696545Y658573D01*
X696612Y658474D01*
X696672Y658372D01*
X696712Y658327D01*
X696724Y658310D01*
X696739Y658296D01*
X696779Y658251D01*
X698557Y656473D01*
X698557Y633527D01*
X696479Y631449D01*
X696406Y631355D01*
X696327Y631266D01*
X696309Y631230D01*
X696284Y631198D01*
X696236Y631088D01*
X696182Y630982D01*
X696174Y630943D01*
X696157Y630906D01*
X696139Y630788D01*
X696113Y630672D01*
X696114Y630632D01*
X696108Y630592D01*
X696119Y630473D01*
X696122Y630354D01*
X696134Y630315D01*
X696137Y630275D01*
X696178Y630163D01*
X696211Y630049D01*
X696231Y630014D01*
X696245Y629976D01*
X696312Y629877D01*
X696372Y629775D01*
X696412Y629729D01*
X696424Y629713D01*
X696439Y629699D01*
X696479Y629654D01*
X696845Y629288D01*
X696845Y621712D01*
X691488Y616355D01*
X683912Y616355D01*
X683546Y616721D01*
X683452Y616794D01*
X683363Y616873D01*
X683327Y616891D01*
X683295Y616916D01*
X683185Y616964D01*
X683080Y617018D01*
X683040Y617026D01*
X683003Y617043D01*
X682885Y617061D01*
X682769Y617087D01*
X682729Y617086D01*
X682689Y617092D01*
X682570Y617081D01*
X682451Y617078D01*
X682413Y617066D01*
X682372Y617063D01*
X682260Y617022D01*
X682146Y616989D01*
X682111Y616969D01*
X682073Y616955D01*
X681974Y616888D01*
X681872Y616828D01*
X681827Y616788D01*
X681810Y616776D01*
X681796Y616761D01*
X681751Y616721D01*
X673928Y608899D01*
X673868Y608820D01*
X673800Y608748D01*
X673771Y608695D01*
X673734Y608647D01*
X673694Y608556D01*
X673646Y608470D01*
X673631Y608411D01*
X673607Y608355D01*
X673592Y608257D01*
X673567Y608162D01*
X673561Y608062D01*
X673557Y608041D01*
X673559Y608029D01*
X673557Y608001D01*
X673557Y568527D01*
X616079Y511049D01*
X616006Y510955D01*
X615927Y510865D01*
X615909Y510830D01*
X615884Y510798D01*
X615836Y510688D01*
X615782Y510582D01*
X615774Y510543D01*
X615757Y510506D01*
X615739Y510388D01*
X615713Y510272D01*
X615714Y510232D01*
X615708Y510192D01*
X615719Y510073D01*
X615722Y509954D01*
X615734Y509915D01*
X615737Y509875D01*
X615778Y509763D01*
X615811Y509649D01*
X615831Y509614D01*
X615845Y509576D01*
X615912Y509477D01*
X615972Y509375D01*
X616012Y509329D01*
X616024Y509313D01*
X616039Y509299D01*
X616079Y509254D01*
X617645Y507688D01*
X617645Y500112D01*
X612288Y494755D01*
X604712Y494755D01*
X599355Y500112D01*
X599355Y500174D01*
X599340Y500292D01*
X599333Y500411D01*
X599320Y500449D01*
X599315Y500490D01*
X599272Y500600D01*
X599235Y500713D01*
X599213Y500748D01*
X599198Y500785D01*
X599129Y500881D01*
X599065Y500982D01*
X599035Y501010D01*
X599012Y501043D01*
X598920Y501119D01*
X598833Y501200D01*
X598798Y501220D01*
X598767Y501245D01*
X598659Y501296D01*
X598555Y501354D01*
X598515Y501364D01*
X598479Y501381D01*
X598362Y501403D01*
X598247Y501433D01*
X598187Y501437D01*
X598167Y501441D01*
X598146Y501439D01*
X598086Y501443D01*
X569826Y501443D01*
X569708Y501428D01*
X569589Y501421D01*
X569551Y501408D01*
X569510Y501403D01*
X569400Y501360D01*
X569287Y501323D01*
X569252Y501301D01*
X569215Y501286D01*
X569119Y501217D01*
X569018Y501153D01*
X568990Y501123D01*
X568957Y501100D01*
X568881Y501008D01*
X568800Y500921D01*
X568780Y500886D01*
X568755Y500855D01*
X568704Y500747D01*
X568646Y500643D01*
X568636Y500603D01*
X568619Y500567D01*
X568597Y500450D01*
X568567Y500335D01*
X568563Y500275D01*
X568559Y500255D01*
X568561Y500234D01*
X568557Y500174D01*
X568557Y493527D01*
X546884Y471854D01*
X546854Y471815D01*
X546817Y471782D01*
X546757Y471690D01*
X546689Y471603D01*
X546670Y471557D01*
X546642Y471516D01*
X546607Y471412D01*
X546563Y471311D01*
X546555Y471262D01*
X546539Y471215D01*
X546531Y471106D01*
X546513Y470997D01*
X546518Y470948D01*
X546514Y470898D01*
X546533Y470790D01*
X546543Y470681D01*
X546560Y470634D01*
X546568Y470585D01*
X546614Y470485D01*
X546651Y470381D01*
X546679Y470340D01*
X546699Y470295D01*
X546768Y470209D01*
X546829Y470118D01*
X546866Y470085D01*
X546898Y470046D01*
X546985Y469980D01*
X547068Y469908D01*
X547112Y469885D01*
X547152Y469855D01*
X547296Y469784D01*
X547933Y469520D01*
X552220Y465233D01*
X554541Y459632D01*
X554541Y453568D01*
X552220Y447967D01*
X547933Y443680D01*
X542332Y441359D01*
X539826Y441359D01*
X539708Y441344D01*
X539589Y441337D01*
X539551Y441324D01*
X539510Y441319D01*
X539400Y441276D01*
X539287Y441239D01*
X539252Y441217D01*
X539215Y441202D01*
X539119Y441133D01*
X539018Y441069D01*
X538990Y441039D01*
X538957Y441016D01*
X538881Y440924D01*
X538800Y440837D01*
X538780Y440802D01*
X538755Y440771D01*
X538704Y440663D01*
X538646Y440559D01*
X538636Y440519D01*
X538619Y440483D01*
X538597Y440366D01*
X538567Y440251D01*
X538563Y440191D01*
X538559Y440171D01*
X538561Y440150D01*
X538557Y440090D01*
X538557Y348527D01*
X536101Y346072D01*
X526738Y336708D01*
X526720Y336685D01*
X526697Y336666D01*
X526623Y336560D01*
X526543Y336457D01*
X526531Y336430D01*
X526514Y336406D01*
X526468Y336284D01*
X526417Y336165D01*
X526412Y336136D01*
X526402Y336108D01*
X526387Y335979D01*
X526367Y335851D01*
X526370Y335821D01*
X526366Y335792D01*
X526385Y335664D01*
X526397Y335534D01*
X526407Y335506D01*
X526411Y335477D01*
X526463Y335325D01*
X527107Y333771D01*
X527107Y329829D01*
X525599Y326188D01*
X522812Y323401D01*
X519171Y321893D01*
X515229Y321893D01*
G37*
%LPD*%
%LPC*%
G36*
X24475Y318207D02*
X24475Y318207D01*
X19993Y320063D01*
X16563Y323493D01*
X14707Y327975D01*
X14707Y332825D01*
X16563Y337307D01*
X19993Y340737D01*
X24475Y342593D01*
X29325Y342593D01*
X30831Y341969D01*
X30859Y341961D01*
X30886Y341948D01*
X31013Y341919D01*
X31138Y341885D01*
X31167Y341885D01*
X31196Y341878D01*
X31326Y341882D01*
X31456Y341880D01*
X31484Y341887D01*
X31514Y341888D01*
X31638Y341924D01*
X31765Y341954D01*
X31791Y341968D01*
X31819Y341976D01*
X31931Y342042D01*
X32046Y342103D01*
X32068Y342123D01*
X32093Y342138D01*
X32214Y342244D01*
X121072Y431101D01*
X121132Y431180D01*
X121200Y431252D01*
X121229Y431305D01*
X121266Y431353D01*
X121306Y431444D01*
X121354Y431530D01*
X121369Y431589D01*
X121393Y431645D01*
X121408Y431743D01*
X121433Y431838D01*
X121439Y431938D01*
X121443Y431959D01*
X121441Y431971D01*
X121443Y431999D01*
X121443Y621473D01*
X178184Y678213D01*
X178244Y678292D01*
X178312Y678364D01*
X178341Y678417D01*
X178378Y678465D01*
X178418Y678556D01*
X178466Y678642D01*
X178481Y678701D01*
X178505Y678757D01*
X178520Y678855D01*
X178545Y678950D01*
X178551Y679050D01*
X178555Y679071D01*
X178553Y679083D01*
X178555Y679111D01*
X178555Y684488D01*
X183912Y689845D01*
X191488Y689845D01*
X196845Y684488D01*
X196845Y676912D01*
X191488Y671555D01*
X183912Y671555D01*
X183646Y671821D01*
X183552Y671894D01*
X183463Y671973D01*
X183427Y671991D01*
X183395Y672016D01*
X183286Y672063D01*
X183180Y672118D01*
X183140Y672126D01*
X183103Y672143D01*
X182985Y672161D01*
X182869Y672187D01*
X182829Y672186D01*
X182789Y672192D01*
X182670Y672181D01*
X182551Y672178D01*
X182513Y672166D01*
X182472Y672163D01*
X182360Y672122D01*
X182246Y672089D01*
X182211Y672069D01*
X182173Y672055D01*
X182075Y671988D01*
X181972Y671928D01*
X181927Y671888D01*
X181910Y671876D01*
X181896Y671861D01*
X181851Y671821D01*
X128928Y618899D01*
X128868Y618820D01*
X128800Y618748D01*
X128771Y618695D01*
X128734Y618647D01*
X128694Y618556D01*
X128646Y618470D01*
X128631Y618411D01*
X128607Y618355D01*
X128592Y618257D01*
X128567Y618162D01*
X128561Y618062D01*
X128557Y618041D01*
X128559Y618029D01*
X128557Y618001D01*
X128557Y428527D01*
X126101Y426072D01*
X37865Y337836D01*
X37847Y337812D01*
X37825Y337793D01*
X37750Y337687D01*
X37671Y337584D01*
X37659Y337557D01*
X37642Y337533D01*
X37596Y337412D01*
X37544Y337292D01*
X37540Y337263D01*
X37529Y337236D01*
X37515Y337107D01*
X37494Y336978D01*
X37497Y336949D01*
X37494Y336920D01*
X37512Y336791D01*
X37524Y336662D01*
X37534Y336634D01*
X37538Y336605D01*
X37590Y336452D01*
X39093Y332825D01*
X39093Y327975D01*
X37237Y323493D01*
X33807Y320063D01*
X29325Y318207D01*
X24475Y318207D01*
G37*
%LPD*%
%LPC*%
G36*
X515229Y67893D02*
X515229Y67893D01*
X511588Y69401D01*
X508801Y72188D01*
X507293Y75829D01*
X507293Y79771D01*
X508801Y83412D01*
X511588Y86199D01*
X515229Y87707D01*
X519171Y87707D01*
X522812Y86199D01*
X525599Y83412D01*
X527117Y79746D01*
X527122Y79708D01*
X527129Y79589D01*
X527142Y79551D01*
X527147Y79510D01*
X527190Y79400D01*
X527227Y79287D01*
X527249Y79252D01*
X527264Y79215D01*
X527333Y79119D01*
X527397Y79018D01*
X527427Y78990D01*
X527450Y78957D01*
X527542Y78881D01*
X527629Y78800D01*
X527664Y78780D01*
X527695Y78755D01*
X527803Y78704D01*
X527907Y78646D01*
X527947Y78636D01*
X527983Y78619D01*
X528100Y78597D01*
X528215Y78567D01*
X528275Y78563D01*
X528295Y78559D01*
X528316Y78561D01*
X528376Y78557D01*
X790174Y78557D01*
X790292Y78572D01*
X790411Y78579D01*
X790449Y78592D01*
X790490Y78597D01*
X790600Y78640D01*
X790713Y78677D01*
X790748Y78699D01*
X790785Y78714D01*
X790881Y78783D01*
X790982Y78847D01*
X791010Y78877D01*
X791043Y78900D01*
X791119Y78992D01*
X791200Y79079D01*
X791220Y79114D01*
X791245Y79145D01*
X791296Y79253D01*
X791354Y79357D01*
X791364Y79397D01*
X791381Y79433D01*
X791403Y79550D01*
X791433Y79665D01*
X791437Y79725D01*
X791441Y79745D01*
X791439Y79766D01*
X791443Y79826D01*
X791443Y102640D01*
X791428Y102758D01*
X791421Y102877D01*
X791408Y102915D01*
X791403Y102956D01*
X791360Y103066D01*
X791323Y103179D01*
X791301Y103214D01*
X791286Y103251D01*
X791217Y103347D01*
X791153Y103448D01*
X791123Y103476D01*
X791100Y103509D01*
X791008Y103585D01*
X790921Y103666D01*
X790886Y103686D01*
X790855Y103711D01*
X790747Y103762D01*
X790643Y103820D01*
X790603Y103830D01*
X790567Y103847D01*
X790450Y103869D01*
X790335Y103899D01*
X790275Y103903D01*
X790255Y103907D01*
X790234Y103905D01*
X790174Y103909D01*
X787698Y103909D01*
X786209Y105398D01*
X786209Y122802D01*
X787698Y124291D01*
X805102Y124291D01*
X806591Y122802D01*
X806591Y105398D01*
X805102Y103909D01*
X799826Y103909D01*
X799708Y103894D01*
X799589Y103887D01*
X799551Y103874D01*
X799510Y103869D01*
X799400Y103826D01*
X799287Y103789D01*
X799252Y103767D01*
X799215Y103752D01*
X799119Y103683D01*
X799018Y103619D01*
X798990Y103589D01*
X798957Y103566D01*
X798881Y103474D01*
X798800Y103387D01*
X798780Y103352D01*
X798755Y103321D01*
X798704Y103213D01*
X798646Y103109D01*
X798636Y103069D01*
X798619Y103033D01*
X798597Y102916D01*
X798567Y102801D01*
X798563Y102741D01*
X798559Y102721D01*
X798561Y102700D01*
X798557Y102640D01*
X798557Y73527D01*
X796473Y71443D01*
X525379Y71443D01*
X525281Y71431D01*
X525182Y71428D01*
X525124Y71411D01*
X525064Y71403D01*
X524972Y71367D01*
X524877Y71339D01*
X524824Y71309D01*
X524768Y71286D01*
X524688Y71228D01*
X524603Y71178D01*
X524527Y71112D01*
X524511Y71100D01*
X524503Y71090D01*
X524482Y71072D01*
X522812Y69401D01*
X519171Y67893D01*
X515229Y67893D01*
G37*
%LPD*%
%LPC*%
G36*
X362829Y245693D02*
X362829Y245693D01*
X359188Y247201D01*
X356401Y249988D01*
X354893Y253629D01*
X354893Y255174D01*
X354878Y255292D01*
X354871Y255411D01*
X354858Y255449D01*
X354853Y255490D01*
X354810Y255600D01*
X354773Y255713D01*
X354751Y255748D01*
X354736Y255785D01*
X354667Y255881D01*
X354603Y255982D01*
X354573Y256010D01*
X354550Y256043D01*
X354458Y256119D01*
X354371Y256200D01*
X354336Y256220D01*
X354305Y256245D01*
X354197Y256296D01*
X354093Y256354D01*
X354053Y256364D01*
X354017Y256381D01*
X353900Y256403D01*
X353785Y256433D01*
X353725Y256437D01*
X353705Y256441D01*
X353684Y256439D01*
X353624Y256443D01*
X308527Y256443D01*
X306443Y258527D01*
X306443Y421650D01*
X306428Y421768D01*
X306421Y421887D01*
X306408Y421925D01*
X306403Y421966D01*
X306360Y422076D01*
X306323Y422189D01*
X306301Y422224D01*
X306286Y422261D01*
X306217Y422357D01*
X306153Y422458D01*
X306123Y422486D01*
X306100Y422519D01*
X306008Y422595D01*
X305921Y422676D01*
X305886Y422696D01*
X305855Y422721D01*
X305747Y422772D01*
X305643Y422830D01*
X305603Y422840D01*
X305567Y422857D01*
X305450Y422879D01*
X305335Y422909D01*
X305275Y422913D01*
X305255Y422917D01*
X305234Y422915D01*
X305174Y422919D01*
X304379Y422919D01*
X300644Y424466D01*
X297786Y427324D01*
X296239Y431059D01*
X296239Y450341D01*
X297786Y454076D01*
X300644Y456934D01*
X300660Y456940D01*
X300685Y456955D01*
X300713Y456964D01*
X300823Y457033D01*
X300936Y457098D01*
X300957Y457118D01*
X300982Y457134D01*
X301071Y457229D01*
X301164Y457319D01*
X301180Y457344D01*
X301200Y457366D01*
X301263Y457480D01*
X301331Y457590D01*
X301339Y457618D01*
X301354Y457644D01*
X301386Y457770D01*
X301424Y457894D01*
X301426Y457924D01*
X301433Y457952D01*
X301443Y458113D01*
X301443Y461473D01*
X308584Y468613D01*
X308644Y468692D01*
X308712Y468764D01*
X308741Y468817D01*
X308778Y468865D01*
X308818Y468956D01*
X308866Y469042D01*
X308881Y469101D01*
X308905Y469157D01*
X308920Y469255D01*
X308945Y469350D01*
X308951Y469450D01*
X308955Y469471D01*
X308953Y469483D01*
X308955Y469511D01*
X308955Y473788D01*
X314312Y479145D01*
X321888Y479145D01*
X327245Y473788D01*
X327245Y466212D01*
X321888Y460855D01*
X314312Y460855D01*
X313496Y461671D01*
X313402Y461744D01*
X313313Y461823D01*
X313277Y461841D01*
X313245Y461866D01*
X313136Y461913D01*
X313030Y461968D01*
X312990Y461976D01*
X312953Y461993D01*
X312835Y462011D01*
X312719Y462037D01*
X312679Y462036D01*
X312639Y462042D01*
X312520Y462031D01*
X312401Y462028D01*
X312363Y462016D01*
X312322Y462013D01*
X312210Y461972D01*
X312096Y461939D01*
X312061Y461919D01*
X312023Y461905D01*
X311925Y461838D01*
X311822Y461778D01*
X311777Y461738D01*
X311760Y461726D01*
X311746Y461711D01*
X311701Y461671D01*
X309828Y459798D01*
X309797Y459758D01*
X309760Y459725D01*
X309700Y459633D01*
X309633Y459546D01*
X309613Y459501D01*
X309586Y459459D01*
X309550Y459355D01*
X309506Y459255D01*
X309499Y459205D01*
X309482Y459159D01*
X309474Y459049D01*
X309457Y458940D01*
X309461Y458891D01*
X309457Y458841D01*
X309476Y458733D01*
X309486Y458624D01*
X309503Y458577D01*
X309512Y458528D01*
X309557Y458428D01*
X309594Y458325D01*
X309622Y458283D01*
X309642Y458238D01*
X309711Y458152D01*
X309773Y458061D01*
X309810Y458029D01*
X309841Y457990D01*
X309929Y457924D01*
X310011Y457851D01*
X310055Y457828D01*
X310095Y457798D01*
X310239Y457728D01*
X312156Y456934D01*
X315014Y454076D01*
X316561Y450341D01*
X316561Y431059D01*
X315014Y427324D01*
X313929Y426239D01*
X313868Y426161D01*
X313800Y426089D01*
X313771Y426036D01*
X313734Y425988D01*
X313694Y425897D01*
X313646Y425810D01*
X313631Y425752D01*
X313607Y425696D01*
X313592Y425598D01*
X313567Y425502D01*
X313561Y425402D01*
X313557Y425382D01*
X313559Y425370D01*
X313557Y425342D01*
X313557Y264826D01*
X313572Y264708D01*
X313579Y264589D01*
X313592Y264551D01*
X313597Y264510D01*
X313640Y264400D01*
X313677Y264287D01*
X313699Y264252D01*
X313714Y264215D01*
X313783Y264119D01*
X313847Y264018D01*
X313877Y263990D01*
X313900Y263957D01*
X313992Y263881D01*
X314079Y263800D01*
X314114Y263780D01*
X314145Y263755D01*
X314253Y263704D01*
X314357Y263646D01*
X314397Y263636D01*
X314433Y263619D01*
X314550Y263597D01*
X314665Y263567D01*
X314725Y263563D01*
X314745Y263559D01*
X314766Y263561D01*
X314826Y263557D01*
X358221Y263557D01*
X358319Y263569D01*
X358418Y263572D01*
X358476Y263589D01*
X358536Y263597D01*
X358628Y263633D01*
X358723Y263661D01*
X358776Y263691D01*
X358832Y263714D01*
X358912Y263772D01*
X358997Y263822D01*
X359073Y263888D01*
X359089Y263900D01*
X359097Y263910D01*
X359118Y263928D01*
X359188Y263999D01*
X362829Y265507D01*
X366771Y265507D01*
X370412Y263999D01*
X373199Y261212D01*
X374707Y257571D01*
X374707Y253629D01*
X373199Y249988D01*
X370412Y247201D01*
X366771Y245693D01*
X362829Y245693D01*
G37*
%LPD*%
%LPC*%
G36*
X152473Y266309D02*
X152473Y266309D01*
X148727Y267861D01*
X145861Y270727D01*
X144309Y274473D01*
X144309Y278527D01*
X145861Y282273D01*
X148727Y285139D01*
X152473Y286691D01*
X156527Y286691D01*
X160273Y285139D01*
X161483Y283928D01*
X161562Y283868D01*
X161634Y283800D01*
X161687Y283771D01*
X161735Y283734D01*
X161826Y283694D01*
X161912Y283646D01*
X161971Y283631D01*
X162027Y283607D01*
X162124Y283592D01*
X162220Y283567D01*
X162320Y283561D01*
X162341Y283557D01*
X162353Y283559D01*
X162381Y283557D01*
X260174Y283557D01*
X260292Y283572D01*
X260411Y283579D01*
X260449Y283592D01*
X260490Y283597D01*
X260600Y283640D01*
X260713Y283677D01*
X260748Y283699D01*
X260785Y283714D01*
X260881Y283783D01*
X260982Y283847D01*
X261010Y283877D01*
X261043Y283900D01*
X261119Y283992D01*
X261200Y284079D01*
X261220Y284114D01*
X261245Y284145D01*
X261296Y284253D01*
X261354Y284357D01*
X261364Y284397D01*
X261381Y284433D01*
X261403Y284550D01*
X261433Y284665D01*
X261437Y284725D01*
X261441Y284745D01*
X261439Y284766D01*
X261443Y284826D01*
X261443Y361473D01*
X271072Y371101D01*
X271132Y371180D01*
X271200Y371252D01*
X271229Y371305D01*
X271266Y371353D01*
X271306Y371444D01*
X271354Y371530D01*
X271369Y371589D01*
X271393Y371645D01*
X271408Y371743D01*
X271433Y371838D01*
X271439Y371938D01*
X271443Y371959D01*
X271441Y371971D01*
X271443Y371999D01*
X271443Y426473D01*
X271760Y426790D01*
X271778Y426813D01*
X271800Y426832D01*
X271875Y426938D01*
X271955Y427041D01*
X271966Y427068D01*
X271983Y427092D01*
X272029Y427213D01*
X272081Y427333D01*
X272086Y427362D01*
X272096Y427389D01*
X272110Y427518D01*
X272131Y427647D01*
X272128Y427676D01*
X272131Y427706D01*
X272113Y427834D01*
X272101Y427963D01*
X272091Y427991D01*
X272087Y428020D01*
X272035Y428173D01*
X270839Y431059D01*
X270839Y450341D01*
X272386Y454076D01*
X275244Y456934D01*
X278979Y458481D01*
X283021Y458481D01*
X286756Y456934D01*
X289614Y454076D01*
X291161Y450341D01*
X291161Y431059D01*
X289614Y427324D01*
X286756Y424466D01*
X283021Y422919D01*
X279826Y422919D01*
X279708Y422904D01*
X279589Y422897D01*
X279551Y422884D01*
X279510Y422879D01*
X279400Y422836D01*
X279287Y422799D01*
X279252Y422777D01*
X279215Y422762D01*
X279119Y422693D01*
X279018Y422629D01*
X278990Y422599D01*
X278957Y422576D01*
X278881Y422484D01*
X278800Y422397D01*
X278780Y422362D01*
X278755Y422331D01*
X278704Y422223D01*
X278646Y422119D01*
X278636Y422079D01*
X278619Y422043D01*
X278597Y421926D01*
X278567Y421811D01*
X278563Y421751D01*
X278559Y421731D01*
X278561Y421710D01*
X278557Y421650D01*
X278557Y368527D01*
X268928Y358899D01*
X268868Y358820D01*
X268800Y358748D01*
X268771Y358695D01*
X268734Y358647D01*
X268694Y358556D01*
X268646Y358470D01*
X268631Y358411D01*
X268607Y358355D01*
X268592Y358257D01*
X268567Y358162D01*
X268561Y358062D01*
X268557Y358041D01*
X268559Y358029D01*
X268557Y358001D01*
X268557Y278527D01*
X266473Y276443D01*
X165960Y276443D01*
X165842Y276428D01*
X165723Y276421D01*
X165685Y276408D01*
X165644Y276403D01*
X165534Y276360D01*
X165421Y276323D01*
X165386Y276301D01*
X165349Y276286D01*
X165253Y276217D01*
X165152Y276153D01*
X165124Y276123D01*
X165091Y276100D01*
X165015Y276008D01*
X164934Y275921D01*
X164914Y275886D01*
X164889Y275855D01*
X164838Y275747D01*
X164780Y275643D01*
X164770Y275603D01*
X164753Y275567D01*
X164731Y275450D01*
X164701Y275335D01*
X164697Y275275D01*
X164693Y275255D01*
X164695Y275234D01*
X164691Y275174D01*
X164691Y274473D01*
X163139Y270727D01*
X160273Y267861D01*
X156527Y266309D01*
X152473Y266309D01*
G37*
%LPD*%
%LPC*%
G36*
X57354Y163509D02*
X57354Y163509D01*
X54859Y164543D01*
X54850Y164545D01*
X54842Y164550D01*
X54697Y164587D01*
X54553Y164627D01*
X54543Y164627D01*
X54534Y164629D01*
X54374Y164639D01*
X49959Y164639D01*
X46224Y166186D01*
X43366Y169044D01*
X41819Y172779D01*
X41819Y176821D01*
X43366Y180556D01*
X46224Y183414D01*
X49959Y184961D01*
X54374Y184961D01*
X54383Y184962D01*
X54392Y184961D01*
X54541Y184982D01*
X54689Y185001D01*
X54698Y185004D01*
X54707Y185005D01*
X54859Y185057D01*
X57354Y186091D01*
X151760Y186091D01*
X151769Y186092D01*
X151779Y186091D01*
X151928Y186112D01*
X152076Y186131D01*
X152084Y186134D01*
X152094Y186135D01*
X152246Y186187D01*
X152254Y186191D01*
X156746Y186191D01*
X160896Y184472D01*
X164072Y181296D01*
X165791Y177146D01*
X165791Y172654D01*
X164072Y168504D01*
X160796Y165228D01*
X156646Y163509D01*
X57354Y163509D01*
G37*
%LPD*%
%LPC*%
G36*
X57354Y239709D02*
X57354Y239709D01*
X54859Y240743D01*
X54850Y240745D01*
X54842Y240750D01*
X54697Y240787D01*
X54553Y240827D01*
X54543Y240827D01*
X54534Y240829D01*
X54374Y240839D01*
X49959Y240839D01*
X46224Y242386D01*
X43366Y245244D01*
X41819Y248979D01*
X41819Y253021D01*
X43366Y256756D01*
X46224Y259614D01*
X49959Y261161D01*
X54374Y261161D01*
X54383Y261162D01*
X54392Y261161D01*
X54541Y261182D01*
X54689Y261201D01*
X54698Y261204D01*
X54707Y261205D01*
X54859Y261257D01*
X57354Y262291D01*
X151760Y262291D01*
X151769Y262292D01*
X151779Y262291D01*
X151928Y262312D01*
X152076Y262331D01*
X152084Y262334D01*
X152094Y262335D01*
X152246Y262387D01*
X152254Y262391D01*
X156746Y262391D01*
X160896Y260672D01*
X164072Y257496D01*
X165791Y253346D01*
X165791Y248854D01*
X164072Y244704D01*
X160796Y241428D01*
X156646Y239709D01*
X57354Y239709D01*
G37*
%LPD*%
%LPC*%
G36*
X57354Y214309D02*
X57354Y214309D01*
X54859Y215343D01*
X54850Y215345D01*
X54842Y215350D01*
X54697Y215387D01*
X54553Y215427D01*
X54543Y215427D01*
X54534Y215429D01*
X54374Y215439D01*
X49959Y215439D01*
X46224Y216986D01*
X43366Y219844D01*
X41819Y223579D01*
X41819Y227621D01*
X43366Y231356D01*
X46224Y234214D01*
X49959Y235761D01*
X54374Y235761D01*
X54383Y235762D01*
X54392Y235761D01*
X54541Y235782D01*
X54689Y235801D01*
X54698Y235804D01*
X54707Y235805D01*
X54859Y235857D01*
X57354Y236891D01*
X151760Y236891D01*
X151769Y236892D01*
X151779Y236891D01*
X151928Y236912D01*
X152076Y236931D01*
X152084Y236934D01*
X152094Y236935D01*
X152246Y236987D01*
X152254Y236991D01*
X156746Y236991D01*
X160896Y235272D01*
X164072Y232096D01*
X165791Y227946D01*
X165791Y223454D01*
X164072Y219304D01*
X160796Y216028D01*
X156646Y214309D01*
X57354Y214309D01*
G37*
%LPD*%
%LPC*%
G36*
X57354Y188909D02*
X57354Y188909D01*
X54859Y189943D01*
X54850Y189945D01*
X54842Y189950D01*
X54697Y189987D01*
X54553Y190027D01*
X54543Y190027D01*
X54534Y190029D01*
X54374Y190039D01*
X49959Y190039D01*
X46224Y191586D01*
X43366Y194444D01*
X41819Y198179D01*
X41819Y202221D01*
X43366Y205956D01*
X46224Y208814D01*
X49959Y210361D01*
X54374Y210361D01*
X54383Y210362D01*
X54392Y210361D01*
X54541Y210382D01*
X54689Y210401D01*
X54698Y210404D01*
X54707Y210405D01*
X54859Y210457D01*
X57354Y211491D01*
X151760Y211491D01*
X151769Y211492D01*
X151779Y211491D01*
X151928Y211512D01*
X152076Y211531D01*
X152084Y211534D01*
X152094Y211535D01*
X152246Y211587D01*
X152254Y211591D01*
X156746Y211591D01*
X160896Y209872D01*
X164072Y206696D01*
X165791Y202546D01*
X165791Y198054D01*
X164072Y193904D01*
X160796Y190628D01*
X156646Y188909D01*
X57354Y188909D01*
G37*
%LPD*%
%LPC*%
G36*
X598679Y567839D02*
X598679Y567839D01*
X594944Y569386D01*
X592086Y572244D01*
X590539Y575979D01*
X590539Y580021D01*
X592086Y583756D01*
X594944Y586614D01*
X595660Y586910D01*
X595685Y586925D01*
X595713Y586934D01*
X595823Y587003D01*
X595936Y587068D01*
X595957Y587088D01*
X595982Y587104D01*
X596071Y587199D01*
X596164Y587289D01*
X596180Y587314D01*
X596200Y587336D01*
X596263Y587449D01*
X596331Y587560D01*
X596339Y587588D01*
X596354Y587614D01*
X596386Y587740D01*
X596424Y587864D01*
X596426Y587894D01*
X596433Y587922D01*
X596443Y588083D01*
X596443Y650475D01*
X596431Y650573D01*
X596428Y650672D01*
X596411Y650730D01*
X596403Y650790D01*
X596367Y650882D01*
X596339Y650977D01*
X596309Y651030D01*
X596286Y651086D01*
X596228Y651166D01*
X596178Y651251D01*
X596112Y651327D01*
X596100Y651343D01*
X596090Y651351D01*
X596072Y651372D01*
X593854Y653590D01*
X592319Y657295D01*
X592319Y661305D01*
X593854Y665010D01*
X596690Y667846D01*
X597369Y668127D01*
X597490Y668196D01*
X597613Y668261D01*
X597628Y668275D01*
X597645Y668285D01*
X597746Y668382D01*
X597848Y668475D01*
X597859Y668492D01*
X597874Y668506D01*
X597947Y668625D01*
X598023Y668741D01*
X598029Y668760D01*
X598040Y668777D01*
X598081Y668910D01*
X598126Y669042D01*
X598128Y669062D01*
X598133Y669081D01*
X598140Y669220D01*
X598151Y669359D01*
X598148Y669379D01*
X598149Y669399D01*
X598120Y669535D01*
X598097Y669672D01*
X598088Y669690D01*
X598084Y669710D01*
X598023Y669836D01*
X597966Y669962D01*
X597954Y669978D01*
X597945Y669996D01*
X597854Y670102D01*
X597768Y670210D01*
X597751Y670223D01*
X597738Y670238D01*
X597624Y670319D01*
X597513Y670402D01*
X597488Y670414D01*
X597478Y670421D01*
X597459Y670428D01*
X597369Y670473D01*
X596690Y670754D01*
X593854Y673590D01*
X592319Y677295D01*
X592319Y681305D01*
X593854Y685010D01*
X596690Y687846D01*
X600395Y689381D01*
X604405Y689381D01*
X608110Y687846D01*
X610946Y685010D01*
X611224Y684340D01*
X611238Y684315D01*
X611247Y684287D01*
X611317Y684177D01*
X611381Y684064D01*
X611402Y684043D01*
X611417Y684018D01*
X611512Y683929D01*
X611602Y683836D01*
X611628Y683820D01*
X611649Y683800D01*
X611763Y683737D01*
X611873Y683669D01*
X611902Y683661D01*
X611928Y683646D01*
X612053Y683614D01*
X612177Y683576D01*
X612207Y683574D01*
X612235Y683567D01*
X612396Y683557D01*
X621473Y683557D01*
X623557Y681473D01*
X623557Y589430D01*
X623572Y589312D01*
X623579Y589193D01*
X623592Y589155D01*
X623597Y589114D01*
X623640Y589004D01*
X623677Y588891D01*
X623699Y588856D01*
X623714Y588819D01*
X623783Y588723D01*
X623847Y588622D01*
X623877Y588594D01*
X623900Y588561D01*
X623992Y588485D01*
X624079Y588404D01*
X624114Y588384D01*
X624145Y588359D01*
X624253Y588308D01*
X624357Y588250D01*
X624397Y588240D01*
X624433Y588223D01*
X624550Y588201D01*
X624665Y588171D01*
X624725Y588167D01*
X624745Y588163D01*
X624766Y588165D01*
X624826Y588161D01*
X628121Y588161D01*
X631856Y586614D01*
X634714Y583756D01*
X636261Y580021D01*
X636261Y575979D01*
X634714Y572244D01*
X631856Y569386D01*
X628121Y567839D01*
X624079Y567839D01*
X620344Y569386D01*
X617486Y572244D01*
X615939Y575979D01*
X615939Y580021D01*
X616347Y581005D01*
X616349Y581014D01*
X616354Y581022D01*
X616391Y581167D01*
X616431Y581311D01*
X616431Y581321D01*
X616433Y581330D01*
X616443Y581490D01*
X616443Y675174D01*
X616428Y675292D01*
X616421Y675411D01*
X616408Y675449D01*
X616403Y675490D01*
X616360Y675600D01*
X616323Y675713D01*
X616301Y675748D01*
X616286Y675785D01*
X616217Y675881D01*
X616153Y675982D01*
X616123Y676010D01*
X616100Y676043D01*
X616008Y676119D01*
X615921Y676200D01*
X615886Y676220D01*
X615855Y676245D01*
X615747Y676296D01*
X615643Y676354D01*
X615603Y676364D01*
X615567Y676381D01*
X615450Y676403D01*
X615335Y676433D01*
X615275Y676437D01*
X615255Y676441D01*
X615234Y676439D01*
X615174Y676443D01*
X612976Y676443D01*
X612947Y676440D01*
X612917Y676442D01*
X612789Y676420D01*
X612661Y676403D01*
X612633Y676393D01*
X612604Y676388D01*
X612485Y676334D01*
X612365Y676286D01*
X612341Y676269D01*
X612314Y676257D01*
X612213Y676176D01*
X612108Y676100D01*
X612089Y676077D01*
X612066Y676058D01*
X611988Y675955D01*
X611905Y675855D01*
X611892Y675828D01*
X611874Y675804D01*
X611803Y675660D01*
X610946Y673590D01*
X608110Y670754D01*
X607431Y670473D01*
X607311Y670404D01*
X607187Y670339D01*
X607172Y670325D01*
X607155Y670315D01*
X607055Y670218D01*
X606952Y670125D01*
X606941Y670108D01*
X606926Y670094D01*
X606854Y669975D01*
X606777Y669859D01*
X606771Y669840D01*
X606760Y669823D01*
X606719Y669690D01*
X606674Y669558D01*
X606672Y669538D01*
X606667Y669519D01*
X606660Y669380D01*
X606649Y669241D01*
X606652Y669221D01*
X606651Y669201D01*
X606679Y669065D01*
X606703Y668928D01*
X606712Y668909D01*
X606716Y668890D01*
X606777Y668764D01*
X606834Y668638D01*
X606846Y668622D01*
X606855Y668604D01*
X606945Y668498D01*
X607032Y668390D01*
X607049Y668377D01*
X607062Y668362D01*
X607175Y668282D01*
X607287Y668198D01*
X607312Y668186D01*
X607322Y668179D01*
X607341Y668172D01*
X607431Y668127D01*
X608110Y667846D01*
X610946Y665010D01*
X612481Y661305D01*
X612481Y657295D01*
X610946Y653590D01*
X608110Y650754D01*
X604340Y649192D01*
X604315Y649178D01*
X604287Y649169D01*
X604177Y649099D01*
X604064Y649035D01*
X604043Y649014D01*
X604018Y648998D01*
X603929Y648904D01*
X603836Y648814D01*
X603820Y648788D01*
X603800Y648767D01*
X603737Y648653D01*
X603669Y648542D01*
X603661Y648514D01*
X603646Y648488D01*
X603614Y648363D01*
X603576Y648238D01*
X603574Y648209D01*
X603567Y648180D01*
X603557Y648020D01*
X603557Y588663D01*
X603560Y588633D01*
X603558Y588604D01*
X603580Y588476D01*
X603597Y588347D01*
X603607Y588320D01*
X603612Y588291D01*
X603666Y588172D01*
X603714Y588051D01*
X603731Y588028D01*
X603743Y588001D01*
X603824Y587899D01*
X603900Y587794D01*
X603923Y587775D01*
X603942Y587752D01*
X604045Y587674D01*
X604145Y587591D01*
X604172Y587579D01*
X604196Y587561D01*
X604340Y587490D01*
X606456Y586614D01*
X609314Y583756D01*
X610861Y580021D01*
X610861Y575979D01*
X609314Y572244D01*
X606456Y569386D01*
X602721Y567839D01*
X598679Y567839D01*
G37*
%LPD*%
%LPC*%
G36*
X515229Y372693D02*
X515229Y372693D01*
X511588Y374201D01*
X508801Y376988D01*
X507293Y380629D01*
X507293Y384571D01*
X507878Y385983D01*
X507886Y386012D01*
X507900Y386038D01*
X507928Y386165D01*
X507962Y386290D01*
X507963Y386320D01*
X507969Y386349D01*
X507965Y386478D01*
X507967Y386608D01*
X507961Y386637D01*
X507960Y386666D01*
X507924Y386791D01*
X507893Y386917D01*
X507879Y386944D01*
X507871Y386972D01*
X507805Y387084D01*
X507745Y387199D01*
X507725Y387220D01*
X507710Y387246D01*
X507603Y387367D01*
X496443Y398527D01*
X496443Y556070D01*
X496428Y556188D01*
X496421Y556307D01*
X496408Y556345D01*
X496403Y556386D01*
X496360Y556496D01*
X496323Y556609D01*
X496301Y556644D01*
X496286Y556681D01*
X496217Y556777D01*
X496153Y556878D01*
X496123Y556906D01*
X496100Y556939D01*
X496008Y557015D01*
X495921Y557096D01*
X495886Y557116D01*
X495855Y557141D01*
X495747Y557192D01*
X495643Y557250D01*
X495603Y557260D01*
X495567Y557277D01*
X495450Y557299D01*
X495335Y557329D01*
X495275Y557333D01*
X495255Y557337D01*
X495234Y557335D01*
X495174Y557339D01*
X489659Y557339D01*
X485924Y558886D01*
X483066Y561744D01*
X481519Y565479D01*
X481519Y569521D01*
X483066Y573256D01*
X485924Y576114D01*
X489659Y577661D01*
X508941Y577661D01*
X512676Y576114D01*
X515534Y573256D01*
X517081Y569521D01*
X517081Y565479D01*
X515534Y561744D01*
X512676Y558886D01*
X508941Y557339D01*
X504826Y557339D01*
X504708Y557324D01*
X504589Y557317D01*
X504551Y557304D01*
X504510Y557299D01*
X504400Y557256D01*
X504287Y557219D01*
X504252Y557197D01*
X504215Y557182D01*
X504119Y557113D01*
X504018Y557049D01*
X503990Y557019D01*
X503957Y556996D01*
X503881Y556904D01*
X503800Y556817D01*
X503780Y556782D01*
X503755Y556751D01*
X503704Y556643D01*
X503646Y556539D01*
X503636Y556499D01*
X503619Y556463D01*
X503597Y556346D01*
X503567Y556231D01*
X503563Y556171D01*
X503559Y556151D01*
X503561Y556130D01*
X503557Y556070D01*
X503557Y401999D01*
X503569Y401901D01*
X503572Y401802D01*
X503589Y401744D01*
X503597Y401683D01*
X503633Y401591D01*
X503661Y401496D01*
X503691Y401444D01*
X503714Y401388D01*
X503772Y401308D01*
X503822Y401222D01*
X503888Y401147D01*
X503900Y401130D01*
X503910Y401123D01*
X503928Y401101D01*
X512716Y392314D01*
X512739Y392296D01*
X512759Y392273D01*
X512865Y392198D01*
X512967Y392119D01*
X512995Y392107D01*
X513019Y392090D01*
X513140Y392044D01*
X513259Y391993D01*
X513288Y391988D01*
X513316Y391977D01*
X513445Y391963D01*
X513573Y391943D01*
X513603Y391945D01*
X513632Y391942D01*
X513761Y391960D01*
X513890Y391972D01*
X513918Y391982D01*
X513947Y391987D01*
X514099Y392039D01*
X515229Y392507D01*
X519171Y392507D01*
X522812Y390999D01*
X525599Y388212D01*
X527107Y384571D01*
X527107Y380629D01*
X525599Y376988D01*
X522812Y374201D01*
X519171Y372693D01*
X515229Y372693D01*
G37*
%LPD*%
%LPC*%
G36*
X42168Y576879D02*
X42168Y576879D01*
X40679Y578368D01*
X40679Y620632D01*
X42168Y622121D01*
X84432Y622121D01*
X85921Y620632D01*
X85921Y578368D01*
X84432Y576879D01*
X42168Y576879D01*
G37*
%LPD*%
%LPC*%
G36*
X356688Y424839D02*
X356688Y424839D01*
X350288Y426554D01*
X344551Y429866D01*
X339866Y434551D01*
X336554Y440288D01*
X334839Y446688D01*
X334839Y453312D01*
X336554Y459712D01*
X339866Y465449D01*
X344551Y470134D01*
X350288Y473446D01*
X356688Y475161D01*
X363312Y475161D01*
X369712Y473446D01*
X375449Y470134D01*
X380134Y465449D01*
X383446Y459712D01*
X385161Y453312D01*
X385161Y446688D01*
X384009Y442388D01*
X383998Y442310D01*
X383997Y442306D01*
X383994Y442302D01*
X383992Y442292D01*
X383948Y442162D01*
X383446Y440288D01*
X380134Y434551D01*
X375449Y429866D01*
X369712Y426554D01*
X363312Y424839D01*
X356688Y424839D01*
G37*
%LPD*%
%LPC*%
G36*
X806688Y634839D02*
X806688Y634839D01*
X800288Y636554D01*
X794551Y639866D01*
X789866Y644551D01*
X786554Y650288D01*
X784839Y656688D01*
X784839Y663312D01*
X786554Y669712D01*
X789866Y675449D01*
X794551Y680134D01*
X800288Y683446D01*
X806688Y685161D01*
X813312Y685161D01*
X819712Y683446D01*
X825449Y680134D01*
X830134Y675449D01*
X833446Y669712D01*
X835161Y663312D01*
X835161Y656688D01*
X833446Y650288D01*
X830134Y644551D01*
X825449Y639866D01*
X819712Y636554D01*
X813312Y634839D01*
X806688Y634839D01*
G37*
%LPD*%
%LPC*%
G36*
X300100Y576879D02*
X300100Y576879D01*
X291786Y580323D01*
X285423Y586686D01*
X281979Y595000D01*
X281979Y604000D01*
X285423Y612314D01*
X291786Y618677D01*
X300100Y622121D01*
X309100Y622121D01*
X317414Y618677D01*
X323777Y612314D01*
X327221Y604000D01*
X327221Y595000D01*
X323777Y586686D01*
X317414Y580323D01*
X309100Y576879D01*
X300100Y576879D01*
G37*
%LPD*%
%LPC*%
G36*
X800943Y452719D02*
X800943Y452719D01*
X797973Y453949D01*
X795699Y456223D01*
X794469Y459193D01*
X794469Y462407D01*
X795051Y463811D01*
X795059Y463840D01*
X795072Y463866D01*
X795100Y463993D01*
X795135Y464118D01*
X795135Y464147D01*
X795142Y464176D01*
X795138Y464306D01*
X795140Y464436D01*
X795133Y464465D01*
X795132Y464494D01*
X795096Y464619D01*
X795066Y464745D01*
X795052Y464771D01*
X795044Y464800D01*
X794978Y464911D01*
X794917Y465026D01*
X794897Y465048D01*
X794882Y465074D01*
X794776Y465194D01*
X773899Y486072D01*
X771443Y488527D01*
X771443Y496810D01*
X771440Y496839D01*
X771442Y496869D01*
X771420Y496996D01*
X771403Y497125D01*
X771393Y497153D01*
X771388Y497182D01*
X771334Y497300D01*
X771286Y497421D01*
X771269Y497445D01*
X771257Y497472D01*
X771176Y497573D01*
X771100Y497678D01*
X771077Y497697D01*
X771058Y497720D01*
X770955Y497798D01*
X770855Y497881D01*
X770828Y497894D01*
X770804Y497912D01*
X770668Y497978D01*
X766380Y502267D01*
X764059Y507868D01*
X764059Y513932D01*
X766380Y519533D01*
X770667Y523820D01*
X776268Y526141D01*
X782332Y526141D01*
X787933Y523820D01*
X792220Y519533D01*
X794541Y513932D01*
X794541Y507868D01*
X792220Y502267D01*
X787933Y497980D01*
X782332Y495659D01*
X779826Y495659D01*
X779708Y495644D01*
X779589Y495637D01*
X779551Y495624D01*
X779510Y495619D01*
X779400Y495576D01*
X779287Y495539D01*
X779252Y495517D01*
X779215Y495502D01*
X779119Y495433D01*
X779018Y495369D01*
X778990Y495339D01*
X778957Y495316D01*
X778881Y495224D01*
X778800Y495137D01*
X778780Y495102D01*
X778755Y495071D01*
X778704Y494963D01*
X778646Y494859D01*
X778636Y494819D01*
X778619Y494783D01*
X778597Y494666D01*
X778567Y494551D01*
X778563Y494491D01*
X778559Y494471D01*
X778561Y494450D01*
X778557Y494390D01*
X778557Y491999D01*
X778569Y491901D01*
X778572Y491802D01*
X778589Y491744D01*
X778597Y491683D01*
X778633Y491591D01*
X778661Y491496D01*
X778691Y491444D01*
X778714Y491388D01*
X778772Y491308D01*
X778822Y491222D01*
X778888Y491147D01*
X778900Y491130D01*
X778910Y491123D01*
X778928Y491101D01*
X800777Y469252D01*
X800856Y469192D01*
X800928Y469124D01*
X800981Y469095D01*
X801029Y469058D01*
X801120Y469018D01*
X801206Y468970D01*
X801265Y468955D01*
X801321Y468931D01*
X801419Y468916D01*
X801514Y468891D01*
X801614Y468885D01*
X801635Y468881D01*
X801647Y468883D01*
X801675Y468881D01*
X804157Y468881D01*
X807127Y467651D01*
X809401Y465377D01*
X810631Y462407D01*
X810631Y459193D01*
X809401Y456223D01*
X807127Y453949D01*
X804157Y452719D01*
X800943Y452719D01*
G37*
%LPD*%
%LPC*%
G36*
X515229Y296493D02*
X515229Y296493D01*
X511588Y298001D01*
X508801Y300788D01*
X507293Y304429D01*
X507293Y308371D01*
X508801Y312012D01*
X511588Y314799D01*
X515229Y316307D01*
X519171Y316307D01*
X519876Y316014D01*
X519905Y316007D01*
X519931Y315993D01*
X520058Y315965D01*
X520183Y315930D01*
X520213Y315930D01*
X520241Y315924D01*
X520371Y315927D01*
X520501Y315925D01*
X520530Y315932D01*
X520559Y315933D01*
X520684Y315969D01*
X520810Y316000D01*
X520836Y316013D01*
X520865Y316022D01*
X520977Y316088D01*
X521091Y316148D01*
X521113Y316168D01*
X521139Y316183D01*
X521260Y316290D01*
X546068Y341097D01*
X546128Y341176D01*
X546196Y341248D01*
X546225Y341301D01*
X546262Y341349D01*
X546302Y341440D01*
X546350Y341526D01*
X546365Y341585D01*
X546389Y341641D01*
X546404Y341739D01*
X546429Y341834D01*
X546435Y341934D01*
X546439Y341955D01*
X546437Y341967D01*
X546439Y341995D01*
X546439Y358941D01*
X547986Y362676D01*
X550844Y365534D01*
X554579Y367081D01*
X558621Y367081D01*
X562356Y365534D01*
X565214Y362676D01*
X566761Y358941D01*
X566761Y339659D01*
X565214Y335924D01*
X562356Y333066D01*
X558621Y331519D01*
X554579Y331519D01*
X550844Y333066D01*
X550368Y333543D01*
X550274Y333616D01*
X550184Y333695D01*
X550148Y333713D01*
X550117Y333738D01*
X550007Y333785D01*
X549901Y333839D01*
X549862Y333848D01*
X549825Y333864D01*
X549707Y333883D01*
X549591Y333909D01*
X549551Y333908D01*
X549511Y333914D01*
X549392Y333903D01*
X549273Y333899D01*
X549234Y333888D01*
X549194Y333884D01*
X549082Y333844D01*
X548968Y333811D01*
X548933Y333790D01*
X548895Y333777D01*
X548796Y333710D01*
X548694Y333649D01*
X548648Y333609D01*
X548632Y333598D01*
X548618Y333583D01*
X548573Y333543D01*
X526621Y311591D01*
X526603Y311568D01*
X526580Y311548D01*
X526506Y311442D01*
X526426Y311340D01*
X526414Y311313D01*
X526397Y311288D01*
X526351Y311167D01*
X526300Y311048D01*
X526295Y311019D01*
X526285Y310991D01*
X526270Y310862D01*
X526250Y310734D01*
X526253Y310704D01*
X526249Y310675D01*
X526267Y310546D01*
X526280Y310417D01*
X526290Y310389D01*
X526294Y310360D01*
X526346Y310208D01*
X527107Y308371D01*
X527107Y304429D01*
X525599Y300788D01*
X522812Y298001D01*
X519171Y296493D01*
X515229Y296493D01*
G37*
%LPD*%
%LPC*%
G36*
X257505Y656459D02*
X257505Y656459D01*
X252896Y658368D01*
X249368Y661896D01*
X247459Y666505D01*
X247459Y671495D01*
X249368Y676104D01*
X252896Y679632D01*
X257505Y681541D01*
X282495Y681541D01*
X287104Y679632D01*
X290632Y676104D01*
X292541Y671495D01*
X292541Y666505D01*
X290632Y661896D01*
X287104Y658368D01*
X282495Y656459D01*
X257505Y656459D01*
G37*
%LPD*%
%LPC*%
G36*
X147668Y479559D02*
X147668Y479559D01*
X142067Y481880D01*
X137780Y486167D01*
X135459Y491768D01*
X135459Y497832D01*
X137780Y503433D01*
X142067Y507720D01*
X147668Y510041D01*
X153732Y510041D01*
X159333Y507720D01*
X163620Y503433D01*
X165941Y497832D01*
X165941Y491768D01*
X163620Y486167D01*
X159333Y481880D01*
X153732Y479559D01*
X147668Y479559D01*
G37*
%LPD*%
%LPC*%
G36*
X57668Y432459D02*
X57668Y432459D01*
X52067Y434780D01*
X47780Y439067D01*
X45459Y444668D01*
X45459Y450732D01*
X47780Y456333D01*
X52067Y460620D01*
X57668Y462941D01*
X63732Y462941D01*
X69333Y460620D01*
X73620Y456333D01*
X75941Y450732D01*
X75941Y444668D01*
X73620Y439067D01*
X69333Y434780D01*
X63732Y432459D01*
X57668Y432459D01*
G37*
%LPD*%
%LPC*%
G36*
X225979Y362619D02*
X225979Y362619D01*
X222244Y364166D01*
X219386Y367024D01*
X217839Y370759D01*
X217839Y390041D01*
X219386Y393776D01*
X222244Y396634D01*
X225979Y398181D01*
X230021Y398181D01*
X233756Y396634D01*
X236614Y393776D01*
X238161Y390041D01*
X238161Y370759D01*
X236614Y367024D01*
X233756Y364166D01*
X230021Y362619D01*
X225979Y362619D01*
G37*
%LPD*%
%LPC*%
G36*
X200579Y362619D02*
X200579Y362619D01*
X196844Y364166D01*
X193986Y367024D01*
X192439Y370759D01*
X192439Y390041D01*
X193986Y393776D01*
X196844Y396634D01*
X200579Y398181D01*
X204621Y398181D01*
X208356Y396634D01*
X211214Y393776D01*
X212761Y390041D01*
X212761Y370759D01*
X211214Y367024D01*
X208356Y364166D01*
X204621Y362619D01*
X200579Y362619D01*
G37*
%LPD*%
%LPC*%
G36*
X589959Y228439D02*
X589959Y228439D01*
X586224Y229986D01*
X583366Y232844D01*
X581819Y236579D01*
X581819Y240621D01*
X583366Y244356D01*
X586224Y247214D01*
X589959Y248761D01*
X609241Y248761D01*
X612976Y247214D01*
X615834Y244356D01*
X617381Y240621D01*
X617381Y236579D01*
X615834Y232844D01*
X612976Y229986D01*
X609241Y228439D01*
X589959Y228439D01*
G37*
%LPD*%
%LPC*%
G36*
X489659Y582739D02*
X489659Y582739D01*
X485924Y584286D01*
X483066Y587144D01*
X481519Y590879D01*
X481519Y594921D01*
X483066Y598656D01*
X485924Y601514D01*
X489659Y603061D01*
X508941Y603061D01*
X512676Y601514D01*
X515534Y598656D01*
X517081Y594921D01*
X517081Y590879D01*
X515534Y587144D01*
X512676Y584286D01*
X508941Y582739D01*
X489659Y582739D01*
G37*
%LPD*%
%LPC*%
G36*
X589959Y177639D02*
X589959Y177639D01*
X586224Y179186D01*
X583366Y182044D01*
X581819Y185779D01*
X581819Y189821D01*
X583366Y193556D01*
X586224Y196414D01*
X589959Y197961D01*
X609241Y197961D01*
X612976Y196414D01*
X615834Y193556D01*
X617381Y189821D01*
X617381Y185779D01*
X615834Y182044D01*
X612976Y179186D01*
X609241Y177639D01*
X589959Y177639D01*
G37*
%LPD*%
%LPC*%
G36*
X589959Y203039D02*
X589959Y203039D01*
X586224Y204586D01*
X583366Y207444D01*
X581819Y211179D01*
X581819Y215221D01*
X583366Y218956D01*
X586224Y221814D01*
X589959Y223361D01*
X609241Y223361D01*
X612976Y221814D01*
X615834Y218956D01*
X617381Y215221D01*
X617381Y211179D01*
X615834Y207444D01*
X612976Y204586D01*
X609241Y203039D01*
X589959Y203039D01*
G37*
%LPD*%
%LPC*%
G36*
X589959Y152239D02*
X589959Y152239D01*
X586224Y153786D01*
X583366Y156644D01*
X581819Y160379D01*
X581819Y164421D01*
X583366Y168156D01*
X586224Y171014D01*
X589959Y172561D01*
X609241Y172561D01*
X612976Y171014D01*
X615834Y168156D01*
X617381Y164421D01*
X617381Y160379D01*
X615834Y156644D01*
X612976Y153786D01*
X609241Y152239D01*
X589959Y152239D01*
G37*
%LPD*%
%LPC*%
G36*
X251379Y362619D02*
X251379Y362619D01*
X247644Y364166D01*
X244786Y367024D01*
X243239Y370759D01*
X243239Y390041D01*
X244786Y393776D01*
X247644Y396634D01*
X251379Y398181D01*
X255421Y398181D01*
X259156Y396634D01*
X262014Y393776D01*
X263561Y390041D01*
X263561Y370759D01*
X262014Y367024D01*
X259156Y364166D01*
X255421Y362619D01*
X251379Y362619D01*
G37*
%LPD*%
%LPC*%
G36*
X579979Y331519D02*
X579979Y331519D01*
X576244Y333066D01*
X573386Y335924D01*
X571839Y339659D01*
X571839Y358941D01*
X573386Y362676D01*
X576244Y365534D01*
X579979Y367081D01*
X584021Y367081D01*
X587756Y365534D01*
X590614Y362676D01*
X592161Y358941D01*
X592161Y339659D01*
X590614Y335924D01*
X587756Y333066D01*
X584021Y331519D01*
X579979Y331519D01*
G37*
%LPD*%
%LPC*%
G36*
X68222Y496337D02*
X68222Y496337D01*
X63274Y498387D01*
X59487Y502174D01*
X57437Y507122D01*
X57437Y512478D01*
X59487Y517426D01*
X63274Y521213D01*
X68222Y523263D01*
X73578Y523263D01*
X78526Y521213D01*
X82313Y517426D01*
X84363Y512478D01*
X84363Y507122D01*
X82313Y502174D01*
X78526Y498387D01*
X73578Y496337D01*
X68222Y496337D01*
G37*
%LPD*%
%LPC*%
G36*
X33222Y496337D02*
X33222Y496337D01*
X28274Y498387D01*
X24487Y502174D01*
X22437Y507122D01*
X22437Y512478D01*
X24487Y517426D01*
X28274Y521213D01*
X33222Y523263D01*
X38578Y523263D01*
X43526Y521213D01*
X47313Y517426D01*
X49363Y512478D01*
X49363Y507122D01*
X47313Y502174D01*
X43526Y498387D01*
X38578Y496337D01*
X33222Y496337D01*
G37*
%LPD*%
%LPC*%
G36*
X568808Y649219D02*
X568808Y649219D01*
X567319Y650708D01*
X567319Y667892D01*
X568808Y669381D01*
X569999Y669381D01*
X570137Y669398D01*
X570275Y669411D01*
X570294Y669418D01*
X570314Y669421D01*
X570443Y669472D01*
X570574Y669519D01*
X570591Y669530D01*
X570610Y669538D01*
X570722Y669619D01*
X570838Y669697D01*
X570851Y669713D01*
X570867Y669724D01*
X570956Y669832D01*
X571048Y669936D01*
X571057Y669954D01*
X571070Y669969D01*
X571129Y670095D01*
X571193Y670219D01*
X571197Y670239D01*
X571206Y670257D01*
X571232Y670393D01*
X571262Y670529D01*
X571262Y670550D01*
X571265Y670569D01*
X571257Y670708D01*
X571253Y670847D01*
X571247Y670867D01*
X571246Y670887D01*
X571203Y671019D01*
X571164Y671153D01*
X571154Y671170D01*
X571148Y671189D01*
X571073Y671307D01*
X571003Y671427D01*
X570984Y671448D01*
X570977Y671458D01*
X570962Y671472D01*
X570896Y671547D01*
X569711Y672733D01*
X568778Y674017D01*
X568058Y675430D01*
X567613Y676801D01*
X576170Y676801D01*
X576288Y676816D01*
X576407Y676823D01*
X576445Y676835D01*
X576485Y676841D01*
X576596Y676884D01*
X576709Y676921D01*
X576743Y676943D01*
X576781Y676958D01*
X576877Y677027D01*
X576978Y677091D01*
X577006Y677121D01*
X577038Y677144D01*
X577114Y677236D01*
X577196Y677323D01*
X577215Y677358D01*
X577241Y677389D01*
X577292Y677497D01*
X577349Y677601D01*
X577359Y677641D01*
X577377Y677677D01*
X577397Y677784D01*
X577401Y677754D01*
X577445Y677644D01*
X577481Y677531D01*
X577503Y677496D01*
X577518Y677459D01*
X577588Y677362D01*
X577651Y677262D01*
X577681Y677234D01*
X577705Y677201D01*
X577796Y677125D01*
X577883Y677044D01*
X577918Y677024D01*
X577950Y676999D01*
X578057Y676948D01*
X578162Y676890D01*
X578201Y676880D01*
X578237Y676863D01*
X578354Y676841D01*
X578470Y676811D01*
X578530Y676807D01*
X578550Y676803D01*
X578570Y676805D01*
X578630Y676801D01*
X587187Y676801D01*
X586742Y675430D01*
X586022Y674017D01*
X585089Y672733D01*
X583904Y671547D01*
X583819Y671438D01*
X583730Y671331D01*
X583721Y671312D01*
X583709Y671296D01*
X583654Y671169D01*
X583594Y671043D01*
X583591Y671023D01*
X583582Y671004D01*
X583561Y670866D01*
X583535Y670730D01*
X583536Y670710D01*
X583533Y670690D01*
X583546Y670551D01*
X583554Y670413D01*
X583561Y670394D01*
X583562Y670374D01*
X583610Y670242D01*
X583652Y670111D01*
X583663Y670093D01*
X583670Y670074D01*
X583748Y669959D01*
X583823Y669842D01*
X583837Y669828D01*
X583849Y669811D01*
X583953Y669719D01*
X584054Y669624D01*
X584072Y669614D01*
X584087Y669601D01*
X584211Y669538D01*
X584333Y669470D01*
X584352Y669465D01*
X584370Y669456D01*
X584506Y669426D01*
X584641Y669391D01*
X584669Y669389D01*
X584681Y669386D01*
X584701Y669387D01*
X584801Y669381D01*
X585992Y669381D01*
X587481Y667892D01*
X587481Y650708D01*
X585992Y649219D01*
X568808Y649219D01*
G37*
%LPD*%
%LPC*%
G36*
X126075Y318207D02*
X126075Y318207D01*
X121593Y320063D01*
X118163Y323493D01*
X116307Y327975D01*
X116307Y332825D01*
X118163Y337307D01*
X121593Y340737D01*
X126075Y342593D01*
X130925Y342593D01*
X135407Y340737D01*
X138837Y337307D01*
X140693Y332825D01*
X140693Y327975D01*
X138837Y323493D01*
X135407Y320063D01*
X130925Y318207D01*
X126075Y318207D01*
G37*
%LPD*%
%LPC*%
G36*
X272798Y113909D02*
X272798Y113909D01*
X271309Y115398D01*
X271309Y132802D01*
X272798Y134291D01*
X290202Y134291D01*
X291691Y132802D01*
X291691Y115398D01*
X290202Y113909D01*
X272798Y113909D01*
G37*
%LPD*%
%LPC*%
G36*
X146976Y710477D02*
X146976Y710477D01*
X140577Y716876D01*
X140577Y725924D01*
X146976Y732323D01*
X156024Y732323D01*
X162423Y725924D01*
X162423Y716876D01*
X156024Y710477D01*
X146976Y710477D01*
G37*
%LPD*%
%LPC*%
G36*
X696976Y703477D02*
X696976Y703477D01*
X690577Y709876D01*
X690577Y718924D01*
X696976Y725323D01*
X706024Y725323D01*
X712423Y718924D01*
X712423Y709876D01*
X706024Y703477D01*
X696976Y703477D01*
G37*
%LPD*%
%LPC*%
G36*
X279473Y164709D02*
X279473Y164709D01*
X275727Y166261D01*
X272861Y169127D01*
X271309Y172873D01*
X271309Y176927D01*
X272861Y180673D01*
X275727Y183539D01*
X279473Y185091D01*
X283527Y185091D01*
X287273Y183539D01*
X290139Y180673D01*
X291691Y176927D01*
X291691Y172873D01*
X290139Y169127D01*
X287273Y166261D01*
X283527Y164709D01*
X279473Y164709D01*
G37*
%LPD*%
%LPC*%
G36*
X279473Y190109D02*
X279473Y190109D01*
X275727Y191661D01*
X272861Y194527D01*
X271309Y198273D01*
X271309Y202327D01*
X272861Y206073D01*
X275727Y208939D01*
X279473Y210491D01*
X283527Y210491D01*
X287273Y208939D01*
X290139Y206073D01*
X291691Y202327D01*
X291691Y198273D01*
X290139Y194527D01*
X287273Y191661D01*
X283527Y190109D01*
X279473Y190109D01*
G37*
%LPD*%
%LPC*%
G36*
X667373Y180109D02*
X667373Y180109D01*
X663627Y181661D01*
X660761Y184527D01*
X659209Y188273D01*
X659209Y192327D01*
X660761Y196073D01*
X663627Y198939D01*
X667373Y200491D01*
X671427Y200491D01*
X675173Y198939D01*
X678039Y196073D01*
X679591Y192327D01*
X679591Y188273D01*
X678039Y184527D01*
X675173Y181661D01*
X671427Y180109D01*
X667373Y180109D01*
G37*
%LPD*%
%LPC*%
G36*
X667373Y154709D02*
X667373Y154709D01*
X663627Y156261D01*
X660761Y159127D01*
X659209Y162873D01*
X659209Y166927D01*
X660761Y170673D01*
X663627Y173539D01*
X667373Y175091D01*
X671427Y175091D01*
X675173Y173539D01*
X678039Y170673D01*
X679591Y166927D01*
X679591Y162873D01*
X678039Y159127D01*
X675173Y156261D01*
X671427Y154709D01*
X667373Y154709D01*
G37*
%LPD*%
%LPC*%
G36*
X667373Y205509D02*
X667373Y205509D01*
X663627Y207061D01*
X660761Y209927D01*
X659209Y213673D01*
X659209Y217727D01*
X660761Y221473D01*
X663627Y224339D01*
X667373Y225891D01*
X671427Y225891D01*
X675173Y224339D01*
X678039Y221473D01*
X679591Y217727D01*
X679591Y213673D01*
X678039Y209927D01*
X675173Y207061D01*
X671427Y205509D01*
X667373Y205509D01*
G37*
%LPD*%
%LPC*%
G36*
X152473Y113909D02*
X152473Y113909D01*
X148727Y115461D01*
X145861Y118327D01*
X144309Y122073D01*
X144309Y126127D01*
X145861Y129873D01*
X148727Y132739D01*
X152473Y134291D01*
X156527Y134291D01*
X160273Y132739D01*
X163139Y129873D01*
X164691Y126127D01*
X164691Y122073D01*
X163139Y118327D01*
X160273Y115461D01*
X156527Y113909D01*
X152473Y113909D01*
G37*
%LPD*%
%LPC*%
G36*
X279473Y215509D02*
X279473Y215509D01*
X275727Y217061D01*
X272861Y219927D01*
X271309Y223673D01*
X271309Y227727D01*
X272861Y231473D01*
X275727Y234339D01*
X279473Y235891D01*
X283527Y235891D01*
X287273Y234339D01*
X290139Y231473D01*
X291691Y227727D01*
X291691Y223673D01*
X290139Y219927D01*
X287273Y217061D01*
X283527Y215509D01*
X279473Y215509D01*
G37*
%LPD*%
%LPC*%
G36*
X279473Y240909D02*
X279473Y240909D01*
X275727Y242461D01*
X272861Y245327D01*
X271309Y249073D01*
X271309Y253127D01*
X272861Y256873D01*
X275727Y259739D01*
X279473Y261291D01*
X283527Y261291D01*
X287273Y259739D01*
X290139Y256873D01*
X291691Y253127D01*
X291691Y249073D01*
X290139Y245327D01*
X287273Y242461D01*
X283527Y240909D01*
X279473Y240909D01*
G37*
%LPD*%
%LPC*%
G36*
X279473Y139309D02*
X279473Y139309D01*
X275727Y140861D01*
X272861Y143727D01*
X271309Y147473D01*
X271309Y151527D01*
X272861Y155273D01*
X275727Y158139D01*
X279473Y159691D01*
X283527Y159691D01*
X287273Y158139D01*
X290139Y155273D01*
X291691Y151527D01*
X291691Y147473D01*
X290139Y143727D01*
X287273Y140861D01*
X283527Y139309D01*
X279473Y139309D01*
G37*
%LPD*%
%LPC*%
G36*
X279473Y266309D02*
X279473Y266309D01*
X275727Y267861D01*
X272861Y270727D01*
X271309Y274473D01*
X271309Y278527D01*
X272861Y282273D01*
X275727Y285139D01*
X279473Y286691D01*
X283527Y286691D01*
X287273Y285139D01*
X290139Y282273D01*
X291691Y278527D01*
X291691Y274473D01*
X290139Y270727D01*
X287273Y267861D01*
X283527Y266309D01*
X279473Y266309D01*
G37*
%LPD*%
%LPC*%
G36*
X279473Y291709D02*
X279473Y291709D01*
X275727Y293261D01*
X272861Y296127D01*
X271309Y299873D01*
X271309Y303927D01*
X272861Y307673D01*
X275727Y310539D01*
X279473Y312091D01*
X283527Y312091D01*
X287273Y310539D01*
X290139Y307673D01*
X291691Y303927D01*
X291691Y299873D01*
X290139Y296127D01*
X287273Y293261D01*
X283527Y291709D01*
X279473Y291709D01*
G37*
%LPD*%
%LPC*%
G36*
X573279Y567839D02*
X573279Y567839D01*
X569544Y569386D01*
X566686Y572244D01*
X565139Y575979D01*
X565139Y580021D01*
X566686Y583756D01*
X569544Y586614D01*
X573279Y588161D01*
X577321Y588161D01*
X581056Y586614D01*
X583914Y583756D01*
X585461Y580021D01*
X585461Y575979D01*
X583914Y572244D01*
X581056Y569386D01*
X577321Y567839D01*
X573279Y567839D01*
G37*
%LPD*%
%LPC*%
G36*
X388229Y42493D02*
X388229Y42493D01*
X384588Y44001D01*
X381801Y46788D01*
X380293Y50429D01*
X380293Y54371D01*
X381801Y58012D01*
X384588Y60799D01*
X388229Y62307D01*
X392171Y62307D01*
X395812Y60799D01*
X398599Y58012D01*
X400107Y54371D01*
X400107Y50429D01*
X398599Y46788D01*
X395812Y44001D01*
X392171Y42493D01*
X388229Y42493D01*
G37*
%LPD*%
%LPC*%
G36*
X464429Y42493D02*
X464429Y42493D01*
X460788Y44001D01*
X458001Y46788D01*
X456493Y50429D01*
X456493Y54371D01*
X458001Y58012D01*
X460788Y60799D01*
X464429Y62307D01*
X468371Y62307D01*
X472012Y60799D01*
X474799Y58012D01*
X476307Y54371D01*
X476307Y50429D01*
X474799Y46788D01*
X472012Y44001D01*
X468371Y42493D01*
X464429Y42493D01*
G37*
%LPD*%
%LPC*%
G36*
X515229Y245693D02*
X515229Y245693D01*
X511588Y247201D01*
X508801Y249988D01*
X507293Y253629D01*
X507293Y257571D01*
X508801Y261212D01*
X511588Y263999D01*
X515229Y265507D01*
X519171Y265507D01*
X522812Y263999D01*
X525599Y261212D01*
X527107Y257571D01*
X527107Y253629D01*
X525599Y249988D01*
X522812Y247201D01*
X519171Y245693D01*
X515229Y245693D01*
G37*
%LPD*%
%LPC*%
G36*
X489829Y42493D02*
X489829Y42493D01*
X486188Y44001D01*
X483401Y46788D01*
X481893Y50429D01*
X481893Y54371D01*
X483401Y58012D01*
X486188Y60799D01*
X489829Y62307D01*
X493771Y62307D01*
X497412Y60799D01*
X500199Y58012D01*
X501707Y54371D01*
X501707Y50429D01*
X500199Y46788D01*
X497412Y44001D01*
X493771Y42493D01*
X489829Y42493D01*
G37*
%LPD*%
%LPC*%
G36*
X362829Y271093D02*
X362829Y271093D01*
X359188Y272601D01*
X356401Y275388D01*
X354893Y279029D01*
X354893Y282971D01*
X356401Y286612D01*
X359188Y289399D01*
X362829Y290907D01*
X366771Y290907D01*
X370412Y289399D01*
X373199Y286612D01*
X374707Y282971D01*
X374707Y279029D01*
X373199Y275388D01*
X370412Y272601D01*
X366771Y271093D01*
X362829Y271093D01*
G37*
%LPD*%
%LPC*%
G36*
X362829Y169493D02*
X362829Y169493D01*
X359188Y171001D01*
X356401Y173788D01*
X354893Y177429D01*
X354893Y181371D01*
X356401Y185012D01*
X359188Y187799D01*
X362829Y189307D01*
X366771Y189307D01*
X370412Y187799D01*
X373199Y185012D01*
X374707Y181371D01*
X374707Y177429D01*
X373199Y173788D01*
X370412Y171001D01*
X366771Y169493D01*
X362829Y169493D01*
G37*
%LPD*%
%LPC*%
G36*
X362829Y194893D02*
X362829Y194893D01*
X359188Y196401D01*
X356401Y199188D01*
X354893Y202829D01*
X354893Y206771D01*
X356401Y210412D01*
X359188Y213199D01*
X362829Y214707D01*
X366771Y214707D01*
X370412Y213199D01*
X373199Y210412D01*
X374707Y206771D01*
X374707Y202829D01*
X373199Y199188D01*
X370412Y196401D01*
X366771Y194893D01*
X362829Y194893D01*
G37*
%LPD*%
%LPC*%
G36*
X515229Y42493D02*
X515229Y42493D01*
X511588Y44001D01*
X508801Y46788D01*
X507293Y50429D01*
X507293Y54371D01*
X508801Y58012D01*
X511588Y60799D01*
X515229Y62307D01*
X519171Y62307D01*
X522812Y60799D01*
X525599Y58012D01*
X527107Y54371D01*
X527107Y50429D01*
X525599Y46788D01*
X522812Y44001D01*
X519171Y42493D01*
X515229Y42493D01*
G37*
%LPD*%
%LPC*%
G36*
X362829Y296493D02*
X362829Y296493D01*
X359188Y298001D01*
X356401Y300788D01*
X354893Y304429D01*
X354893Y308371D01*
X356401Y312012D01*
X359188Y314799D01*
X362829Y316307D01*
X366771Y316307D01*
X370412Y314799D01*
X373199Y312012D01*
X374707Y308371D01*
X374707Y304429D01*
X373199Y300788D01*
X370412Y298001D01*
X366771Y296493D01*
X362829Y296493D01*
G37*
%LPD*%
%LPC*%
G36*
X362829Y321893D02*
X362829Y321893D01*
X359188Y323401D01*
X356401Y326188D01*
X354893Y329829D01*
X354893Y333771D01*
X356401Y337412D01*
X359188Y340199D01*
X362829Y341707D01*
X366771Y341707D01*
X370412Y340199D01*
X373199Y337412D01*
X374707Y333771D01*
X374707Y329829D01*
X373199Y326188D01*
X370412Y323401D01*
X366771Y321893D01*
X362829Y321893D01*
G37*
%LPD*%
%LPC*%
G36*
X515229Y220293D02*
X515229Y220293D01*
X511588Y221801D01*
X508801Y224588D01*
X507293Y228229D01*
X507293Y232171D01*
X508801Y235812D01*
X511588Y238599D01*
X515229Y240107D01*
X519171Y240107D01*
X522812Y238599D01*
X525599Y235812D01*
X527107Y232171D01*
X527107Y228229D01*
X525599Y224588D01*
X522812Y221801D01*
X519171Y220293D01*
X515229Y220293D01*
G37*
%LPD*%
%LPC*%
G36*
X362829Y220293D02*
X362829Y220293D01*
X359188Y221801D01*
X356401Y224588D01*
X354893Y228229D01*
X354893Y232171D01*
X356401Y235812D01*
X359188Y238599D01*
X362829Y240107D01*
X366771Y240107D01*
X370412Y238599D01*
X373199Y235812D01*
X374707Y232171D01*
X374707Y228229D01*
X373199Y224588D01*
X370412Y221801D01*
X366771Y220293D01*
X362829Y220293D01*
G37*
%LPD*%
%LPC*%
G36*
X413629Y42493D02*
X413629Y42493D01*
X409988Y44001D01*
X407201Y46788D01*
X405693Y50429D01*
X405693Y54371D01*
X407201Y58012D01*
X409988Y60799D01*
X413629Y62307D01*
X417571Y62307D01*
X421212Y60799D01*
X423999Y58012D01*
X425507Y54371D01*
X425507Y50429D01*
X423999Y46788D01*
X421212Y44001D01*
X417571Y42493D01*
X413629Y42493D01*
G37*
%LPD*%
%LPC*%
G36*
X362829Y347293D02*
X362829Y347293D01*
X359188Y348801D01*
X356401Y351588D01*
X354893Y355229D01*
X354893Y359171D01*
X356401Y362812D01*
X359188Y365599D01*
X362829Y367107D01*
X366771Y367107D01*
X370412Y365599D01*
X373199Y362812D01*
X374707Y359171D01*
X374707Y355229D01*
X373199Y351588D01*
X370412Y348801D01*
X366771Y347293D01*
X362829Y347293D01*
G37*
%LPD*%
%LPC*%
G36*
X439029Y42493D02*
X439029Y42493D01*
X435388Y44001D01*
X432601Y46788D01*
X431093Y50429D01*
X431093Y54371D01*
X432601Y58012D01*
X435388Y60799D01*
X439029Y62307D01*
X442971Y62307D01*
X446612Y60799D01*
X449399Y58012D01*
X450907Y54371D01*
X450907Y50429D01*
X449399Y46788D01*
X446612Y44001D01*
X442971Y42493D01*
X439029Y42493D01*
G37*
%LPD*%
%LPC*%
G36*
X442944Y632619D02*
X442944Y632619D01*
X439423Y634078D01*
X436728Y636773D01*
X435269Y640294D01*
X435269Y644106D01*
X436728Y647627D01*
X439423Y650322D01*
X442944Y651781D01*
X446756Y651781D01*
X450277Y650322D01*
X452972Y647627D01*
X454431Y644106D01*
X454431Y640294D01*
X452972Y636773D01*
X450277Y634078D01*
X446756Y632619D01*
X442944Y632619D01*
G37*
%LPD*%
%LPC*%
G36*
X214712Y482355D02*
X214712Y482355D01*
X209355Y487712D01*
X209355Y495288D01*
X214712Y500645D01*
X222288Y500645D01*
X227645Y495288D01*
X227645Y487712D01*
X222288Y482355D01*
X214712Y482355D01*
G37*
%LPD*%
%LPC*%
G36*
X761712Y656355D02*
X761712Y656355D01*
X756355Y661712D01*
X756355Y669288D01*
X761712Y674645D01*
X769288Y674645D01*
X774645Y669288D01*
X774645Y661712D01*
X769288Y656355D01*
X761712Y656355D01*
G37*
%LPD*%
%LPC*%
G36*
X107712Y671555D02*
X107712Y671555D01*
X102355Y676912D01*
X102355Y684488D01*
X107712Y689845D01*
X115288Y689845D01*
X120645Y684488D01*
X120645Y676912D01*
X115288Y671555D01*
X107712Y671555D01*
G37*
%LPD*%
%LPC*%
G36*
X548112Y390855D02*
X548112Y390855D01*
X542755Y396212D01*
X542755Y403788D01*
X548112Y409145D01*
X555688Y409145D01*
X561045Y403788D01*
X561045Y396212D01*
X555688Y390855D01*
X548112Y390855D01*
G37*
%LPD*%
%LPC*%
G36*
X707712Y503155D02*
X707712Y503155D01*
X702355Y508512D01*
X702355Y516088D01*
X707712Y521445D01*
X715288Y521445D01*
X720645Y516088D01*
X720645Y508512D01*
X715288Y503155D01*
X707712Y503155D01*
G37*
%LPD*%
%LPC*%
G36*
X340712Y491755D02*
X340712Y491755D01*
X335355Y497112D01*
X335355Y504688D01*
X340712Y510045D01*
X348288Y510045D01*
X353645Y504688D01*
X353645Y497112D01*
X348288Y491755D01*
X340712Y491755D01*
G37*
%LPD*%
%LPC*%
G36*
X456912Y491555D02*
X456912Y491555D01*
X451555Y496912D01*
X451555Y504488D01*
X456912Y509845D01*
X464488Y509845D01*
X469845Y504488D01*
X469845Y496912D01*
X464488Y491555D01*
X456912Y491555D01*
G37*
%LPD*%
%LPC*%
G36*
X745158Y452719D02*
X745158Y452719D01*
X743669Y454208D01*
X743669Y467392D01*
X745158Y468881D01*
X758342Y468881D01*
X759831Y467392D01*
X759831Y454208D01*
X758342Y452719D01*
X745158Y452719D01*
G37*
%LPD*%
%LPC*%
G36*
X531939Y708839D02*
X531939Y708839D01*
X531939Y726260D01*
X533334Y726076D01*
X535882Y725394D01*
X538318Y724384D01*
X540602Y723066D01*
X542695Y721460D01*
X544560Y719595D01*
X546166Y717502D01*
X547484Y715218D01*
X548494Y712782D01*
X549176Y710234D01*
X549360Y708839D01*
X531939Y708839D01*
G37*
%LPD*%
%LPC*%
G36*
X652939Y708839D02*
X652939Y708839D01*
X652939Y726260D01*
X654334Y726076D01*
X656882Y725394D01*
X659318Y724384D01*
X661602Y723066D01*
X663695Y721460D01*
X665560Y719595D01*
X667166Y717502D01*
X668484Y715218D01*
X669494Y712782D01*
X670176Y710234D01*
X670360Y708839D01*
X652939Y708839D01*
G37*
%LPD*%
%LPC*%
G36*
X531939Y703761D02*
X531939Y703761D01*
X549360Y703761D01*
X549176Y702366D01*
X548494Y699818D01*
X547484Y697382D01*
X546166Y695098D01*
X544560Y693005D01*
X542695Y691140D01*
X540602Y689534D01*
X538318Y688216D01*
X535882Y687206D01*
X533334Y686524D01*
X531939Y686340D01*
X531939Y703761D01*
G37*
%LPD*%
%LPC*%
G36*
X652939Y703761D02*
X652939Y703761D01*
X670360Y703761D01*
X670176Y702366D01*
X669494Y699818D01*
X668484Y697382D01*
X667166Y695098D01*
X665560Y693005D01*
X663695Y691140D01*
X661602Y689534D01*
X659318Y688216D01*
X656882Y687206D01*
X654334Y686524D01*
X652939Y686340D01*
X652939Y703761D01*
G37*
%LPD*%
%LPC*%
G36*
X630440Y708839D02*
X630440Y708839D01*
X630624Y710234D01*
X631306Y712782D01*
X632316Y715218D01*
X633634Y717502D01*
X635240Y719595D01*
X637105Y721460D01*
X639198Y723066D01*
X641482Y724384D01*
X643918Y725394D01*
X646466Y726076D01*
X647861Y726260D01*
X647861Y708839D01*
X630440Y708839D01*
G37*
%LPD*%
%LPC*%
G36*
X509440Y708839D02*
X509440Y708839D01*
X509624Y710234D01*
X510306Y712782D01*
X511316Y715218D01*
X512634Y717502D01*
X514240Y719595D01*
X516105Y721460D01*
X518198Y723066D01*
X520482Y724384D01*
X522918Y725394D01*
X525466Y726076D01*
X526861Y726260D01*
X526861Y708839D01*
X509440Y708839D01*
G37*
%LPD*%
%LPC*%
G36*
X646466Y686524D02*
X646466Y686524D01*
X643918Y687206D01*
X641482Y688216D01*
X639198Y689534D01*
X637105Y691140D01*
X635240Y693005D01*
X633634Y695098D01*
X632316Y697382D01*
X631306Y699818D01*
X630624Y702366D01*
X630440Y703761D01*
X647861Y703761D01*
X647861Y686340D01*
X646466Y686524D01*
G37*
%LPD*%
%LPC*%
G36*
X525466Y686524D02*
X525466Y686524D01*
X522918Y687206D01*
X520482Y688216D01*
X518198Y689534D01*
X516105Y691140D01*
X514240Y693005D01*
X512634Y695098D01*
X511316Y697382D01*
X510306Y699818D01*
X509624Y702366D01*
X509440Y703761D01*
X526861Y703761D01*
X526861Y686340D01*
X525466Y686524D01*
G37*
%LPD*%
%LPC*%
G36*
X224499Y702499D02*
X224499Y702499D01*
X224499Y722301D01*
X224937Y722232D01*
X226814Y721622D01*
X228573Y720726D01*
X230170Y719566D01*
X231566Y718170D01*
X232726Y716573D01*
X233622Y714814D01*
X234232Y712937D01*
X234541Y710987D01*
X234541Y702499D01*
X224499Y702499D01*
G37*
%LPD*%
%LPC*%
G36*
X272499Y732499D02*
X272499Y732499D01*
X272499Y742541D01*
X280987Y742541D01*
X282937Y742232D01*
X284814Y741622D01*
X286573Y740726D01*
X288170Y739566D01*
X289566Y738170D01*
X290726Y736573D01*
X291622Y734814D01*
X292232Y732937D01*
X292301Y732499D01*
X272499Y732499D01*
G37*
%LPD*%
%LPC*%
G36*
X247699Y732499D02*
X247699Y732499D01*
X247768Y732937D01*
X248378Y734814D01*
X249274Y736573D01*
X250434Y738170D01*
X251830Y739566D01*
X253427Y740726D01*
X255186Y741622D01*
X257063Y742232D01*
X259013Y742541D01*
X267501Y742541D01*
X267501Y732499D01*
X247699Y732499D01*
G37*
%LPD*%
%LPC*%
G36*
X224499Y697501D02*
X224499Y697501D01*
X234541Y697501D01*
X234541Y689013D01*
X234232Y687063D01*
X233622Y685186D01*
X232726Y683427D01*
X231566Y681830D01*
X230170Y680434D01*
X228573Y679274D01*
X226814Y678378D01*
X224937Y677768D01*
X224499Y677699D01*
X224499Y697501D01*
G37*
%LPD*%
%LPC*%
G36*
X209459Y702499D02*
X209459Y702499D01*
X209459Y710987D01*
X209768Y712937D01*
X210378Y714814D01*
X211274Y716573D01*
X212434Y718170D01*
X213830Y719566D01*
X215427Y720726D01*
X217186Y721622D01*
X219063Y722232D01*
X219501Y722301D01*
X219501Y702499D01*
X209459Y702499D01*
G37*
%LPD*%
%LPC*%
G36*
X272499Y717459D02*
X272499Y717459D01*
X272499Y727501D01*
X292301Y727501D01*
X292232Y727063D01*
X291622Y725186D01*
X290726Y723427D01*
X289566Y721830D01*
X288170Y720434D01*
X286573Y719274D01*
X284814Y718378D01*
X282937Y717768D01*
X280987Y717459D01*
X272499Y717459D01*
G37*
%LPD*%
%LPC*%
G36*
X259013Y717459D02*
X259013Y717459D01*
X257063Y717768D01*
X255186Y718378D01*
X253427Y719274D01*
X251830Y720434D01*
X250434Y721830D01*
X249274Y723427D01*
X248378Y725186D01*
X247768Y727063D01*
X247699Y727501D01*
X267501Y727501D01*
X267501Y717459D01*
X259013Y717459D01*
G37*
%LPD*%
%LPC*%
G36*
X219063Y677768D02*
X219063Y677768D01*
X217186Y678378D01*
X215427Y679274D01*
X213830Y680434D01*
X212434Y681830D01*
X211274Y683427D01*
X210378Y685186D01*
X209768Y687063D01*
X209459Y689013D01*
X209459Y697501D01*
X219501Y697501D01*
X219501Y677699D01*
X219063Y677768D01*
G37*
%LPD*%
%LPC*%
G36*
X781839Y564239D02*
X781839Y564239D01*
X781839Y576941D01*
X785613Y576941D01*
X794541Y568013D01*
X794541Y564239D01*
X781839Y564239D01*
G37*
%LPD*%
%LPC*%
G36*
X541839Y509939D02*
X541839Y509939D01*
X541839Y522641D01*
X545613Y522641D01*
X554541Y513713D01*
X554541Y509939D01*
X541839Y509939D01*
G37*
%LPD*%
%LPC*%
G36*
X63239Y399439D02*
X63239Y399439D01*
X63239Y412141D01*
X67013Y412141D01*
X75941Y403213D01*
X75941Y399439D01*
X63239Y399439D01*
G37*
%LPD*%
%LPC*%
G36*
X153239Y446539D02*
X153239Y446539D01*
X153239Y459241D01*
X157013Y459241D01*
X165941Y450313D01*
X165941Y446539D01*
X153239Y446539D01*
G37*
%LPD*%
%LPC*%
G36*
X153239Y428759D02*
X153239Y428759D01*
X153239Y441461D01*
X165941Y441461D01*
X165941Y437687D01*
X157013Y428759D01*
X153239Y428759D01*
G37*
%LPD*%
%LPC*%
G36*
X524059Y509939D02*
X524059Y509939D01*
X524059Y513713D01*
X532987Y522641D01*
X536761Y522641D01*
X536761Y509939D01*
X524059Y509939D01*
G37*
%LPD*%
%LPC*%
G36*
X781839Y546459D02*
X781839Y546459D01*
X781839Y559161D01*
X794541Y559161D01*
X794541Y555387D01*
X785613Y546459D01*
X781839Y546459D01*
G37*
%LPD*%
%LPC*%
G36*
X541839Y492159D02*
X541839Y492159D01*
X541839Y504861D01*
X554541Y504861D01*
X554541Y501087D01*
X545613Y492159D01*
X541839Y492159D01*
G37*
%LPD*%
%LPC*%
G36*
X45459Y399439D02*
X45459Y399439D01*
X45459Y403213D01*
X54387Y412141D01*
X58161Y412141D01*
X58161Y399439D01*
X45459Y399439D01*
G37*
%LPD*%
%LPC*%
G36*
X764059Y564239D02*
X764059Y564239D01*
X764059Y568013D01*
X772987Y576941D01*
X776761Y576941D01*
X776761Y564239D01*
X764059Y564239D01*
G37*
%LPD*%
%LPC*%
G36*
X63239Y381659D02*
X63239Y381659D01*
X63239Y394361D01*
X75941Y394361D01*
X75941Y390587D01*
X67013Y381659D01*
X63239Y381659D01*
G37*
%LPD*%
%LPC*%
G36*
X135459Y446539D02*
X135459Y446539D01*
X135459Y450313D01*
X144387Y459241D01*
X148161Y459241D01*
X148161Y446539D01*
X135459Y446539D01*
G37*
%LPD*%
%LPC*%
G36*
X54387Y381659D02*
X54387Y381659D01*
X45459Y390587D01*
X45459Y394361D01*
X58161Y394361D01*
X58161Y381659D01*
X54387Y381659D01*
G37*
%LPD*%
%LPC*%
G36*
X144387Y428759D02*
X144387Y428759D01*
X135459Y437687D01*
X135459Y441461D01*
X148161Y441461D01*
X148161Y428759D01*
X144387Y428759D01*
G37*
%LPD*%
%LPC*%
G36*
X772987Y546459D02*
X772987Y546459D01*
X764059Y555387D01*
X764059Y559161D01*
X776761Y559161D01*
X776761Y546459D01*
X772987Y546459D01*
G37*
%LPD*%
%LPC*%
G36*
X532987Y492159D02*
X532987Y492159D01*
X524059Y501087D01*
X524059Y504861D01*
X536761Y504861D01*
X536761Y492159D01*
X532987Y492159D01*
G37*
%LPD*%
%LPC*%
G36*
X179739Y382939D02*
X179739Y382939D01*
X179739Y397879D01*
X181100Y397436D01*
X182525Y396710D01*
X183819Y395770D01*
X184950Y394639D01*
X185890Y393345D01*
X186616Y391920D01*
X187111Y390399D01*
X187361Y388820D01*
X187361Y382939D01*
X179739Y382939D01*
G37*
%LPD*%
%LPC*%
G36*
X179739Y377861D02*
X179739Y377861D01*
X187361Y377861D01*
X187361Y371980D01*
X187111Y370401D01*
X186616Y368880D01*
X185890Y367455D01*
X184950Y366161D01*
X183819Y365030D01*
X182525Y364090D01*
X181100Y363364D01*
X179739Y362921D01*
X179739Y377861D01*
G37*
%LPD*%
%LPC*%
G36*
X167039Y382939D02*
X167039Y382939D01*
X167039Y388820D01*
X167289Y390399D01*
X167784Y391920D01*
X168510Y393345D01*
X169450Y394639D01*
X170581Y395770D01*
X171875Y396710D01*
X173300Y397436D01*
X174661Y397879D01*
X174661Y382939D01*
X167039Y382939D01*
G37*
%LPD*%
%LPC*%
G36*
X173300Y363364D02*
X173300Y363364D01*
X171875Y364090D01*
X170581Y365030D01*
X169450Y366161D01*
X168510Y367455D01*
X167784Y368880D01*
X167289Y370401D01*
X167039Y371980D01*
X167039Y377861D01*
X174661Y377861D01*
X174661Y362921D01*
X173300Y363364D01*
G37*
%LPD*%
%LPC*%
G36*
X153531Y735877D02*
X153531Y735877D01*
X153531Y744769D01*
X162423Y744769D01*
X162423Y742276D01*
X156024Y735877D01*
X153531Y735877D01*
G37*
%LPD*%
%LPC*%
G36*
X146976Y735877D02*
X146976Y735877D01*
X140577Y742276D01*
X140577Y744769D01*
X149469Y744769D01*
X149469Y735877D01*
X146976Y735877D01*
G37*
%LPD*%
%LPC*%
G36*
X671939Y294439D02*
X671939Y294439D01*
X671939Y301790D01*
X673312Y301344D01*
X674741Y300616D01*
X674825Y300555D01*
X676039Y299673D01*
X677173Y298539D01*
X678116Y297241D01*
X678844Y295812D01*
X679290Y294439D01*
X671939Y294439D01*
G37*
%LPD*%
%LPC*%
G36*
X157039Y304439D02*
X157039Y304439D01*
X157039Y311790D01*
X158412Y311344D01*
X159841Y310616D01*
X161139Y309673D01*
X162273Y308539D01*
X163216Y307241D01*
X163944Y305812D01*
X164390Y304439D01*
X157039Y304439D01*
G37*
%LPD*%
%LPC*%
G36*
X671939Y142039D02*
X671939Y142039D01*
X671939Y149390D01*
X673312Y148944D01*
X674741Y148216D01*
X676039Y147273D01*
X677173Y146139D01*
X678116Y144841D01*
X678844Y143412D01*
X679290Y142039D01*
X671939Y142039D01*
G37*
%LPD*%
%LPC*%
G36*
X157039Y152039D02*
X157039Y152039D01*
X157039Y159390D01*
X158412Y158944D01*
X159841Y158216D01*
X161139Y157273D01*
X162273Y156139D01*
X163216Y154841D01*
X163944Y153412D01*
X164390Y152039D01*
X157039Y152039D01*
G37*
%LPD*%
%LPC*%
G36*
X157039Y299361D02*
X157039Y299361D01*
X164390Y299361D01*
X163944Y297988D01*
X163216Y296559D01*
X162273Y295261D01*
X161139Y294127D01*
X159841Y293184D01*
X158412Y292456D01*
X157039Y292010D01*
X157039Y299361D01*
G37*
%LPD*%
%LPC*%
G36*
X671939Y136961D02*
X671939Y136961D01*
X679290Y136961D01*
X678844Y135588D01*
X678116Y134159D01*
X677173Y132861D01*
X676039Y131727D01*
X674741Y130784D01*
X673312Y130056D01*
X671939Y129610D01*
X671939Y136961D01*
G37*
%LPD*%
%LPC*%
G36*
X659510Y142039D02*
X659510Y142039D01*
X659956Y143412D01*
X660684Y144841D01*
X661627Y146139D01*
X662761Y147273D01*
X664059Y148216D01*
X665488Y148944D01*
X666861Y149390D01*
X666861Y142039D01*
X659510Y142039D01*
G37*
%LPD*%
%LPC*%
G36*
X144610Y152039D02*
X144610Y152039D01*
X145056Y153412D01*
X145784Y154841D01*
X146727Y156139D01*
X147861Y157273D01*
X149159Y158216D01*
X150588Y158944D01*
X151961Y159390D01*
X151961Y152039D01*
X144610Y152039D01*
G37*
%LPD*%
%LPC*%
G36*
X157039Y146961D02*
X157039Y146961D01*
X164390Y146961D01*
X163944Y145588D01*
X163216Y144159D01*
X162273Y142861D01*
X161139Y141727D01*
X159841Y140784D01*
X158412Y140056D01*
X157039Y139610D01*
X157039Y146961D01*
G37*
%LPD*%
%LPC*%
G36*
X659510Y294439D02*
X659510Y294439D01*
X659956Y295812D01*
X660684Y297241D01*
X661627Y298539D01*
X662761Y299673D01*
X664059Y300616D01*
X665488Y301344D01*
X666861Y301790D01*
X666861Y294439D01*
X659510Y294439D01*
G37*
%LPD*%
%LPC*%
G36*
X144610Y304439D02*
X144610Y304439D01*
X145056Y305812D01*
X145784Y307241D01*
X146727Y308539D01*
X147861Y309673D01*
X149159Y310616D01*
X150588Y311344D01*
X151961Y311790D01*
X151961Y304439D01*
X144610Y304439D01*
G37*
%LPD*%
%LPC*%
G36*
X671939Y289361D02*
X671939Y289361D01*
X679290Y289361D01*
X678844Y287988D01*
X678116Y286559D01*
X677173Y285261D01*
X676039Y284127D01*
X674741Y283184D01*
X673312Y282456D01*
X671939Y282010D01*
X671939Y289361D01*
G37*
%LPD*%
%LPC*%
G36*
X665488Y282456D02*
X665488Y282456D01*
X664059Y283184D01*
X663530Y283568D01*
X662761Y284127D01*
X661627Y285261D01*
X660684Y286559D01*
X659956Y287988D01*
X659510Y289361D01*
X666861Y289361D01*
X666861Y282010D01*
X665488Y282456D01*
G37*
%LPD*%
%LPC*%
G36*
X665488Y130056D02*
X665488Y130056D01*
X664059Y130784D01*
X662761Y131727D01*
X661627Y132861D01*
X660684Y134159D01*
X659956Y135588D01*
X659510Y136961D01*
X666861Y136961D01*
X666861Y129610D01*
X665488Y130056D01*
G37*
%LPD*%
%LPC*%
G36*
X150588Y292456D02*
X150588Y292456D01*
X149159Y293184D01*
X147861Y294127D01*
X146727Y295261D01*
X145784Y296559D01*
X145056Y297988D01*
X144610Y299361D01*
X151961Y299361D01*
X151961Y292010D01*
X150588Y292456D01*
G37*
%LPD*%
%LPC*%
G36*
X150588Y140056D02*
X150588Y140056D01*
X149159Y140784D01*
X147861Y141727D01*
X146727Y142861D01*
X145784Y144159D01*
X145056Y145588D01*
X144610Y146961D01*
X151961Y146961D01*
X151961Y139610D01*
X150588Y140056D01*
G37*
%LPD*%
%LPC*%
G36*
X654039Y580539D02*
X654039Y580539D01*
X654039Y587859D01*
X655400Y587416D01*
X656825Y586690D01*
X658119Y585750D01*
X659250Y584619D01*
X660190Y583325D01*
X660916Y581900D01*
X661359Y580539D01*
X654039Y580539D01*
G37*
%LPD*%
%LPC*%
G36*
X641641Y580539D02*
X641641Y580539D01*
X642084Y581900D01*
X642810Y583325D01*
X643750Y584619D01*
X644881Y585750D01*
X646175Y586690D01*
X647600Y587416D01*
X648961Y587859D01*
X648961Y580539D01*
X641641Y580539D01*
G37*
%LPD*%
%LPC*%
G36*
X654039Y575461D02*
X654039Y575461D01*
X661359Y575461D01*
X660916Y574100D01*
X660190Y572675D01*
X659250Y571381D01*
X658119Y570250D01*
X656825Y569310D01*
X655400Y568584D01*
X654039Y568141D01*
X654039Y575461D01*
G37*
%LPD*%
%LPC*%
G36*
X647600Y568584D02*
X647600Y568584D01*
X646175Y569310D01*
X644881Y570250D01*
X643750Y571381D01*
X642810Y572675D01*
X642084Y574100D01*
X641641Y575461D01*
X648961Y575461D01*
X648961Y568141D01*
X647600Y568584D01*
G37*
%LPD*%
%LPC*%
G36*
X579899Y681799D02*
X579899Y681799D01*
X579899Y689087D01*
X581270Y688642D01*
X582683Y687922D01*
X583967Y686989D01*
X585089Y685867D01*
X586022Y684583D01*
X586742Y683170D01*
X587187Y681799D01*
X579899Y681799D01*
G37*
%LPD*%
%LPC*%
G36*
X567613Y681799D02*
X567613Y681799D01*
X568058Y683170D01*
X568778Y684583D01*
X569711Y685867D01*
X570833Y686989D01*
X572117Y687922D01*
X573530Y688642D01*
X574901Y689087D01*
X574901Y681799D01*
X567613Y681799D01*
G37*
%LPD*%
%LPC*%
G36*
X700131Y432031D02*
X700131Y432031D01*
X700131Y439145D01*
X701888Y439145D01*
X707245Y433788D01*
X707245Y432031D01*
X700131Y432031D01*
G37*
%LPD*%
%LPC*%
G36*
X630131Y402031D02*
X630131Y402031D01*
X630131Y409145D01*
X631888Y409145D01*
X637245Y403788D01*
X637245Y402031D01*
X630131Y402031D01*
G37*
%LPD*%
%LPC*%
G36*
X220531Y442731D02*
X220531Y442731D01*
X220531Y449845D01*
X222288Y449845D01*
X227645Y444488D01*
X227645Y442731D01*
X220531Y442731D01*
G37*
%LPD*%
%LPC*%
G36*
X243931Y472031D02*
X243931Y472031D01*
X243931Y479145D01*
X245688Y479145D01*
X251045Y473788D01*
X251045Y472031D01*
X243931Y472031D01*
G37*
%LPD*%
%LPC*%
G36*
X610531Y455131D02*
X610531Y455131D01*
X610531Y462245D01*
X612288Y462245D01*
X617645Y456888D01*
X617645Y455131D01*
X610531Y455131D01*
G37*
%LPD*%
%LPC*%
G36*
X713531Y565131D02*
X713531Y565131D01*
X713531Y572245D01*
X715288Y572245D01*
X720645Y566888D01*
X720645Y565131D01*
X713531Y565131D01*
G37*
%LPD*%
%LPC*%
G36*
X688955Y432031D02*
X688955Y432031D01*
X688955Y433788D01*
X694312Y439145D01*
X696069Y439145D01*
X696069Y432031D01*
X688955Y432031D01*
G37*
%LPD*%
%LPC*%
G36*
X618955Y402031D02*
X618955Y402031D01*
X618955Y403788D01*
X624312Y409145D01*
X626069Y409145D01*
X626069Y402031D01*
X618955Y402031D01*
G37*
%LPD*%
%LPC*%
G36*
X209355Y442731D02*
X209355Y442731D01*
X209355Y444488D01*
X214712Y449845D01*
X216469Y449845D01*
X216469Y442731D01*
X209355Y442731D01*
G37*
%LPD*%
%LPC*%
G36*
X232755Y472031D02*
X232755Y472031D01*
X232755Y473788D01*
X238112Y479145D01*
X239869Y479145D01*
X239869Y472031D01*
X232755Y472031D01*
G37*
%LPD*%
%LPC*%
G36*
X599355Y455131D02*
X599355Y455131D01*
X599355Y456888D01*
X604712Y462245D01*
X606469Y462245D01*
X606469Y455131D01*
X599355Y455131D01*
G37*
%LPD*%
%LPC*%
G36*
X702355Y565131D02*
X702355Y565131D01*
X702355Y566888D01*
X707712Y572245D01*
X709469Y572245D01*
X709469Y565131D01*
X702355Y565131D01*
G37*
%LPD*%
%LPC*%
G36*
X220531Y431555D02*
X220531Y431555D01*
X220531Y438669D01*
X227645Y438669D01*
X227645Y436912D01*
X222288Y431555D01*
X220531Y431555D01*
G37*
%LPD*%
%LPC*%
G36*
X700131Y420855D02*
X700131Y420855D01*
X700131Y427969D01*
X707245Y427969D01*
X707245Y426212D01*
X701888Y420855D01*
X700131Y420855D01*
G37*
%LPD*%
%LPC*%
G36*
X610531Y443955D02*
X610531Y443955D01*
X610531Y451069D01*
X617645Y451069D01*
X617645Y449312D01*
X612288Y443955D01*
X610531Y443955D01*
G37*
%LPD*%
%LPC*%
G36*
X630131Y390855D02*
X630131Y390855D01*
X630131Y397969D01*
X637245Y397969D01*
X637245Y396212D01*
X631888Y390855D01*
X630131Y390855D01*
G37*
%LPD*%
%LPC*%
G36*
X243931Y460855D02*
X243931Y460855D01*
X243931Y467969D01*
X251045Y467969D01*
X251045Y466212D01*
X245688Y460855D01*
X243931Y460855D01*
G37*
%LPD*%
%LPC*%
G36*
X713531Y553955D02*
X713531Y553955D01*
X713531Y561069D01*
X720645Y561069D01*
X720645Y559312D01*
X715288Y553955D01*
X713531Y553955D01*
G37*
%LPD*%
%LPC*%
G36*
X214712Y431555D02*
X214712Y431555D01*
X209355Y436912D01*
X209355Y438669D01*
X216469Y438669D01*
X216469Y431555D01*
X214712Y431555D01*
G37*
%LPD*%
%LPC*%
G36*
X694312Y420855D02*
X694312Y420855D01*
X688955Y426212D01*
X688955Y427969D01*
X696069Y427969D01*
X696069Y420855D01*
X694312Y420855D01*
G37*
%LPD*%
%LPC*%
G36*
X604712Y443955D02*
X604712Y443955D01*
X599355Y449312D01*
X599355Y451069D01*
X606469Y451069D01*
X606469Y443955D01*
X604712Y443955D01*
G37*
%LPD*%
%LPC*%
G36*
X624312Y390855D02*
X624312Y390855D01*
X618955Y396212D01*
X618955Y397969D01*
X626069Y397969D01*
X626069Y390855D01*
X624312Y390855D01*
G37*
%LPD*%
%LPC*%
G36*
X238112Y460855D02*
X238112Y460855D01*
X232755Y466212D01*
X232755Y467969D01*
X239869Y467969D01*
X239869Y460855D01*
X238112Y460855D01*
G37*
%LPD*%
%LPC*%
G36*
X707712Y553955D02*
X707712Y553955D01*
X702355Y559312D01*
X702355Y561069D01*
X709469Y561069D01*
X709469Y553955D01*
X707712Y553955D01*
G37*
%LPD*%
%LPC*%
G36*
X519612Y359612D02*
X519612Y359612D01*
X519612Y366833D01*
X521003Y366381D01*
X522392Y365673D01*
X523654Y364757D01*
X524757Y363654D01*
X525673Y362392D01*
X526381Y361003D01*
X526833Y359612D01*
X519612Y359612D01*
G37*
%LPD*%
%LPC*%
G36*
X367212Y385012D02*
X367212Y385012D01*
X367212Y392233D01*
X368603Y391781D01*
X369992Y391073D01*
X371254Y390156D01*
X372357Y389054D01*
X373273Y387792D01*
X373981Y386403D01*
X374433Y385012D01*
X367212Y385012D01*
G37*
%LPD*%
%LPC*%
G36*
X519612Y354788D02*
X519612Y354788D01*
X526833Y354788D01*
X526381Y353397D01*
X525673Y352008D01*
X524757Y350746D01*
X523654Y349643D01*
X522392Y348727D01*
X521003Y348019D01*
X519612Y347567D01*
X519612Y354788D01*
G37*
%LPD*%
%LPC*%
G36*
X507567Y359612D02*
X507567Y359612D01*
X508019Y361003D01*
X508727Y362392D01*
X509643Y363654D01*
X510746Y364757D01*
X512008Y365673D01*
X513397Y366381D01*
X514788Y366833D01*
X514788Y359612D01*
X507567Y359612D01*
G37*
%LPD*%
%LPC*%
G36*
X367212Y380188D02*
X367212Y380188D01*
X374433Y380188D01*
X373981Y378797D01*
X373273Y377408D01*
X372357Y376146D01*
X371254Y375043D01*
X369992Y374127D01*
X368603Y373419D01*
X367212Y372967D01*
X367212Y380188D01*
G37*
%LPD*%
%LPC*%
G36*
X355167Y385012D02*
X355167Y385012D01*
X355619Y386403D01*
X356327Y387792D01*
X357243Y389054D01*
X358346Y390156D01*
X359608Y391073D01*
X360997Y391781D01*
X362388Y392233D01*
X362388Y385012D01*
X355167Y385012D01*
G37*
%LPD*%
%LPC*%
G36*
X513397Y348019D02*
X513397Y348019D01*
X512008Y348727D01*
X510746Y349643D01*
X509643Y350746D01*
X508727Y352008D01*
X508019Y353397D01*
X507567Y354788D01*
X514788Y354788D01*
X514788Y347567D01*
X513397Y348019D01*
G37*
%LPD*%
%LPC*%
G36*
X360997Y373419D02*
X360997Y373419D01*
X359608Y374127D01*
X358346Y375043D01*
X357243Y376146D01*
X356327Y377408D01*
X355619Y378797D01*
X355167Y380188D01*
X362388Y380188D01*
X362388Y372967D01*
X360997Y373419D01*
G37*
%LPD*%
%LPC*%
G36*
X434399Y669849D02*
X434399Y669849D01*
X434399Y676943D01*
X435828Y676479D01*
X437171Y675794D01*
X438391Y674908D01*
X439458Y673841D01*
X440344Y672621D01*
X441029Y671278D01*
X441493Y669849D01*
X434399Y669849D01*
G37*
%LPD*%
%LPC*%
G36*
X434399Y665351D02*
X434399Y665351D01*
X441493Y665351D01*
X441029Y663922D01*
X440344Y662579D01*
X439458Y661359D01*
X438391Y660292D01*
X437171Y659406D01*
X435828Y658721D01*
X434399Y658257D01*
X434399Y665351D01*
G37*
%LPD*%
%LPC*%
G36*
X422807Y669849D02*
X422807Y669849D01*
X423271Y671278D01*
X423956Y672621D01*
X424842Y673841D01*
X425909Y674908D01*
X427129Y675794D01*
X428472Y676479D01*
X429901Y676943D01*
X429901Y669849D01*
X422807Y669849D01*
G37*
%LPD*%
%LPC*%
G36*
X428472Y658721D02*
X428472Y658721D01*
X427129Y659406D01*
X425909Y660292D01*
X424842Y661359D01*
X423956Y662579D01*
X423271Y663922D01*
X422807Y665351D01*
X429901Y665351D01*
X429901Y658257D01*
X428472Y658721D01*
G37*
%LPD*%
%LPC*%
G36*
X778649Y462299D02*
X778649Y462299D01*
X778649Y468741D01*
X779507Y468570D01*
X780978Y467961D01*
X782301Y467077D01*
X783427Y465951D01*
X784311Y464628D01*
X784920Y463157D01*
X785091Y462299D01*
X778649Y462299D01*
G37*
%LPD*%
%LPC*%
G36*
X778649Y459301D02*
X778649Y459301D01*
X785091Y459301D01*
X784920Y458443D01*
X784311Y456972D01*
X783427Y455649D01*
X782301Y454523D01*
X780978Y453639D01*
X779507Y453030D01*
X778649Y452859D01*
X778649Y459301D01*
G37*
%LPD*%
%LPC*%
G36*
X769209Y462299D02*
X769209Y462299D01*
X769380Y463157D01*
X769989Y464628D01*
X770873Y465951D01*
X771999Y467077D01*
X773322Y467961D01*
X774793Y468570D01*
X775651Y468741D01*
X775651Y462299D01*
X769209Y462299D01*
G37*
%LPD*%
%LPC*%
G36*
X774793Y453030D02*
X774793Y453030D01*
X773322Y453639D01*
X771999Y454523D01*
X770873Y455649D01*
X769989Y456972D01*
X769380Y458443D01*
X769209Y459301D01*
X775651Y459301D01*
X775651Y452859D01*
X774793Y453030D01*
G37*
%LPD*%
%LPC*%
G36*
X651499Y577999D02*
X651499Y577999D01*
X651499Y578001D01*
X651501Y578001D01*
X651501Y577999D01*
X651499Y577999D01*
G37*
%LPD*%
%LPC*%
G36*
X539299Y507399D02*
X539299Y507399D01*
X539299Y507401D01*
X539301Y507401D01*
X539301Y507399D01*
X539299Y507399D01*
G37*
%LPD*%
%LPC*%
G36*
X177199Y380399D02*
X177199Y380399D01*
X177199Y380401D01*
X177201Y380401D01*
X177201Y380399D01*
X177199Y380399D01*
G37*
%LPD*%
%LPC*%
G36*
X154499Y149499D02*
X154499Y149499D01*
X154499Y149501D01*
X154501Y149501D01*
X154501Y149499D01*
X154499Y149499D01*
G37*
%LPD*%
%LPC*%
G36*
X154499Y301899D02*
X154499Y301899D01*
X154499Y301901D01*
X154501Y301901D01*
X154501Y301899D01*
X154499Y301899D01*
G37*
%LPD*%
%LPC*%
G36*
X669399Y139499D02*
X669399Y139499D01*
X669399Y139501D01*
X669401Y139501D01*
X669401Y139499D01*
X669399Y139499D01*
G37*
%LPD*%
%LPC*%
G36*
X669399Y291899D02*
X669399Y291899D01*
X669399Y291901D01*
X669401Y291901D01*
X669401Y291899D01*
X669399Y291899D01*
G37*
%LPD*%
%LPC*%
G36*
X150699Y443999D02*
X150699Y443999D01*
X150699Y444001D01*
X150701Y444001D01*
X150701Y443999D01*
X150699Y443999D01*
G37*
%LPD*%
%LPC*%
G36*
X779299Y561699D02*
X779299Y561699D01*
X779299Y561701D01*
X779301Y561701D01*
X779301Y561699D01*
X779299Y561699D01*
G37*
%LPD*%
%LPC*%
G36*
X650399Y706299D02*
X650399Y706299D01*
X650399Y706301D01*
X650401Y706301D01*
X650401Y706299D01*
X650399Y706299D01*
G37*
%LPD*%
%LPC*%
G36*
X529399Y706299D02*
X529399Y706299D01*
X529399Y706301D01*
X529401Y706301D01*
X529401Y706299D01*
X529399Y706299D01*
G37*
%LPD*%
%LPC*%
G36*
X60699Y396899D02*
X60699Y396899D01*
X60699Y396901D01*
X60701Y396901D01*
X60701Y396899D01*
X60699Y396899D01*
G37*
%LPD*%
D10*
X306400Y448320D02*
X306400Y433080D01*
X281000Y433080D02*
X281000Y448320D01*
X640100Y366920D02*
X640100Y351680D01*
X665500Y351680D02*
X665500Y366920D01*
D11*
X218500Y491500D03*
X218500Y440700D03*
D12*
X150700Y494800D03*
D13*
X150700Y444000D03*
D14*
X711500Y512300D03*
X711500Y563100D03*
D12*
X779300Y510900D03*
D15*
X779300Y561700D03*
D11*
X608500Y503900D03*
X608500Y453100D03*
D12*
X539300Y456600D03*
D15*
X539300Y507400D03*
D12*
X60700Y447700D03*
D13*
X60700Y396900D03*
D16*
X26900Y330400D03*
X128500Y330400D03*
D17*
X63300Y599500D03*
D18*
X304600Y599500D03*
D19*
X406750Y667600D03*
X419450Y642200D03*
X432150Y667600D03*
X394050Y642200D03*
X444850Y642200D03*
X381350Y667600D03*
D10*
X491680Y592900D02*
X506920Y592900D01*
X506920Y567500D02*
X491680Y567500D01*
D20*
X151500Y721400D03*
X151500Y746800D03*
X701500Y714400D03*
X701500Y739800D03*
X771500Y717400D03*
X771500Y742800D03*
D10*
X556600Y356920D02*
X556600Y341680D01*
X582000Y341680D02*
X582000Y356920D01*
D21*
X187700Y680700D03*
X111500Y680700D03*
D14*
X460700Y500700D03*
X460700Y576900D03*
X424500Y504100D03*
X424500Y580300D03*
X384500Y502500D03*
X384500Y578700D03*
X344500Y500900D03*
X344500Y577100D03*
D22*
X689300Y665500D03*
X765500Y665500D03*
X687700Y625500D03*
X763900Y625500D03*
D23*
X35900Y509800D03*
X70900Y509800D03*
D24*
X364800Y331800D03*
X364800Y306400D03*
X364800Y281000D03*
X364800Y255600D03*
X364800Y230200D03*
X364800Y204800D03*
X364800Y179400D03*
X364800Y154000D03*
X364800Y128600D03*
X364800Y103200D03*
X364800Y77800D03*
X364800Y52400D03*
X517200Y52400D03*
X517200Y77800D03*
X517200Y103200D03*
X517200Y128600D03*
X517200Y154000D03*
X517200Y179400D03*
X517200Y204800D03*
X517200Y230200D03*
X517200Y255600D03*
X517200Y281000D03*
X517200Y306400D03*
X364800Y357200D03*
X517200Y331800D03*
X364800Y382600D03*
X517200Y382600D03*
X517200Y357200D03*
X491800Y52400D03*
X466400Y52400D03*
X441000Y52400D03*
X415600Y52400D03*
X390200Y52400D03*
D25*
X796400Y114100D03*
D26*
X796400Y139500D03*
X796400Y164900D03*
X796400Y190300D03*
X796400Y215700D03*
X796400Y241100D03*
X796400Y266500D03*
X796400Y291900D03*
X669400Y291900D03*
X669400Y266500D03*
X669400Y241100D03*
X669400Y215700D03*
X669400Y190300D03*
X669400Y164900D03*
X669400Y139500D03*
X669400Y114100D03*
D25*
X281500Y124100D03*
D26*
X281500Y149500D03*
X281500Y174900D03*
X281500Y200300D03*
X281500Y225700D03*
X281500Y251100D03*
X281500Y276500D03*
X281500Y301900D03*
X154500Y301900D03*
X154500Y276500D03*
X154500Y251100D03*
X154500Y225700D03*
X154500Y200300D03*
X154500Y174900D03*
X154500Y149500D03*
X154500Y124100D03*
D27*
X650400Y706300D03*
X529400Y706300D03*
D28*
X602400Y679300D03*
X577400Y679300D03*
X602400Y659300D03*
D29*
X577400Y659300D03*
D30*
X626100Y578000D03*
X600700Y578000D03*
X575300Y578000D03*
X651500Y578000D03*
D10*
X607220Y187800D02*
X591980Y187800D01*
X591980Y213200D02*
X607220Y213200D01*
X607220Y238600D02*
X591980Y238600D01*
X591980Y162400D02*
X607220Y162400D01*
X67220Y200200D02*
X51980Y200200D01*
X51980Y225600D02*
X67220Y225600D01*
X67220Y251000D02*
X51980Y251000D01*
X51980Y174800D02*
X67220Y174800D01*
X202600Y372780D02*
X202600Y388020D01*
X228000Y388020D02*
X228000Y372780D01*
X253400Y372780D02*
X253400Y388020D01*
X177200Y388020D02*
X177200Y372780D01*
D31*
X260000Y669000D02*
X280000Y669000D01*
X280000Y730000D02*
X260000Y730000D01*
X222000Y710000D02*
X222000Y690000D01*
D32*
X777150Y460800D03*
X802550Y460800D03*
D33*
X751750Y460800D03*
D21*
X628100Y400000D03*
X551900Y400000D03*
D22*
X241900Y470000D03*
X318100Y470000D03*
D21*
X698100Y430000D03*
X621900Y430000D03*
D34*
X775000Y490000D02*
X800000Y465000D01*
X775000Y490000D02*
X775000Y510000D01*
X800000Y465000D02*
X802550Y460800D01*
X779300Y510900D02*
X775000Y510000D01*
X515000Y385000D02*
X500000Y400000D01*
X500000Y565000D01*
X515000Y385000D02*
X517200Y382600D01*
X500000Y565000D02*
X499300Y567500D01*
X125000Y430000D02*
X30000Y335000D01*
X125000Y430000D02*
X125000Y620000D01*
X185000Y680000D01*
X30000Y335000D02*
X26900Y330400D01*
X185000Y680000D02*
X187700Y680700D01*
X155000Y280000D02*
X265000Y280000D01*
X265000Y360000D01*
X275000Y370000D01*
X275000Y425000D01*
X280000Y430000D01*
X280000Y440000D01*
X155000Y280000D02*
X154500Y276500D01*
X280000Y440000D02*
X281000Y440700D01*
X670000Y270000D02*
X690000Y270000D01*
X690000Y325000D01*
X670000Y345000D01*
X670000Y355000D01*
X670000Y270000D02*
X669400Y266500D01*
X670000Y355000D02*
X665500Y359300D01*
X690000Y630000D02*
X695000Y635000D01*
X695000Y655000D01*
X690000Y660000D01*
X690000Y665000D01*
X690000Y630000D02*
X687700Y625500D01*
X690000Y665000D02*
X689300Y665500D01*
X605000Y505000D02*
X565000Y505000D01*
X565000Y495000D01*
X540000Y470000D01*
X540000Y460000D01*
X605000Y505000D02*
X608500Y503900D01*
X540000Y460000D02*
X539300Y456600D01*
X670000Y610000D02*
X685000Y625000D01*
X670000Y610000D02*
X670000Y570000D01*
X610000Y510000D01*
X610000Y505000D01*
X685000Y625000D02*
X687700Y625500D01*
X610000Y505000D02*
X608500Y503900D01*
X535000Y350000D02*
X520000Y335000D01*
X535000Y350000D02*
X535000Y455000D01*
X520000Y335000D02*
X517200Y331800D01*
X535000Y455000D02*
X539300Y456600D01*
X600000Y580000D02*
X600000Y655000D01*
X602400Y659300D01*
X600000Y580000D02*
X600700Y578000D01*
X605000Y680000D02*
X620000Y680000D01*
X620000Y580000D01*
X625000Y575000D01*
X602400Y679300D02*
X605000Y680000D01*
X626100Y578000D02*
X625000Y575000D01*
D35*
X154400Y251000D02*
X59600Y251000D01*
X154400Y251000D02*
X154500Y251100D01*
X154400Y225600D02*
X59600Y225600D01*
X154400Y225600D02*
X154500Y225700D01*
X154400Y200200D02*
X59600Y200200D01*
X154400Y200200D02*
X154500Y200300D01*
X154400Y174800D02*
X59600Y174800D01*
X154400Y174800D02*
X154500Y174900D01*
D34*
X520000Y75000D02*
X795000Y75000D01*
X795000Y110000D01*
X520000Y75000D02*
X517200Y77800D01*
X795000Y110000D02*
X796400Y114100D01*
X595000Y100000D02*
X520000Y175000D01*
X595000Y100000D02*
X750000Y100000D01*
X750000Y180000D01*
X780000Y210000D02*
X785000Y215000D01*
X780000Y210000D02*
X750000Y180000D01*
X785000Y215000D02*
X795000Y215000D01*
X520000Y175000D02*
X517200Y179400D01*
X795000Y215000D02*
X796400Y215700D01*
X780000Y225000D02*
X795000Y240000D01*
X780000Y225000D02*
X780000Y210000D01*
X795000Y240000D02*
X796400Y241100D01*
X780000Y265000D02*
X735000Y310000D01*
X780000Y265000D02*
X795000Y265000D01*
X796400Y266500D01*
D36*
X735000Y310000D03*
D34*
X730000Y320000D02*
X795000Y320000D01*
X795000Y295000D01*
X796400Y291900D01*
D36*
X730000Y320000D03*
D34*
X520000Y100000D02*
X535000Y85000D01*
X775000Y85000D01*
X775000Y130000D01*
X785000Y140000D01*
X795000Y140000D01*
X520000Y100000D02*
X517200Y103200D01*
X795000Y140000D02*
X796400Y139500D01*
X555000Y90000D02*
X520000Y125000D01*
X555000Y90000D02*
X770000Y90000D01*
X770000Y150000D01*
X785000Y165000D01*
X795000Y165000D01*
X520000Y125000D02*
X517200Y128600D01*
X795000Y165000D02*
X796400Y164900D01*
X575000Y95000D02*
X520000Y150000D01*
X575000Y95000D02*
X755000Y95000D01*
X755000Y160000D01*
X785000Y190000D01*
X795000Y190000D01*
X520000Y150000D02*
X517200Y154000D01*
X795000Y190000D02*
X796400Y190300D01*
X315000Y470000D02*
X305000Y460000D01*
X305000Y445000D01*
X315000Y470000D02*
X318100Y470000D01*
X305000Y445000D02*
X306400Y440700D01*
X310000Y260000D02*
X360000Y260000D01*
X310000Y260000D02*
X310000Y440000D01*
X360000Y260000D02*
X364800Y255600D01*
X310000Y440000D02*
X306400Y440700D01*
X440000Y600000D02*
X430000Y610000D01*
X440000Y600000D02*
X460000Y580000D01*
X430000Y610000D02*
X430000Y635000D01*
X420000Y645000D01*
X460000Y580000D02*
X460700Y576900D01*
X419450Y642200D02*
X420000Y645000D01*
X440000Y100000D02*
X365000Y100000D01*
X440000Y100000D02*
X440000Y600000D01*
X364800Y103200D02*
X365000Y100000D01*
X420000Y585000D02*
X405000Y600000D01*
X405000Y665000D01*
X420000Y585000D02*
X424500Y580300D01*
X405000Y665000D02*
X406750Y667600D01*
X350000Y90000D02*
X360000Y80000D01*
X350000Y90000D02*
X350000Y105000D01*
X360000Y115000D01*
X375000Y115000D01*
X405000Y145000D01*
X405000Y600000D01*
X360000Y80000D02*
X364800Y77800D01*
X390000Y585000D02*
X395000Y590000D01*
X390000Y585000D02*
X385000Y580000D01*
X395000Y590000D02*
X395000Y640000D01*
X385000Y580000D02*
X384500Y578700D01*
X395000Y640000D02*
X394050Y642200D01*
X360000Y55000D02*
X345000Y55000D01*
X345000Y125000D01*
X360000Y140000D01*
X390000Y140000D01*
X390000Y440000D01*
X400000Y450000D01*
X400000Y560000D01*
X390000Y570000D01*
X390000Y585000D01*
X360000Y55000D02*
X364800Y52400D01*
X520000Y310000D02*
X555000Y345000D01*
X520000Y310000D02*
X517200Y306400D01*
X555000Y345000D02*
X556600Y349300D01*
X625000Y430000D02*
X645000Y410000D01*
X645000Y370000D02*
X645000Y360000D01*
X645000Y370000D02*
X645000Y410000D01*
X645000Y360000D02*
X640100Y359300D01*
X560000Y325000D02*
X520000Y285000D01*
X560000Y325000D02*
X625000Y325000D01*
X625000Y350000D01*
X645000Y370000D01*
X520000Y285000D02*
X517200Y281000D01*
X640100Y359300D02*
X645000Y370000D01*
X720000Y720000D02*
X705000Y735000D01*
X720000Y720000D02*
X720000Y595000D01*
X625000Y500000D01*
X625000Y430000D01*
X705000Y735000D02*
X701500Y739800D01*
X625000Y430000D02*
X621900Y430000D01*
X575000Y260000D02*
X520000Y205000D01*
X575000Y260000D02*
X660000Y260000D01*
X665000Y255000D01*
X720000Y255000D01*
X720000Y495000D01*
X745000Y520000D01*
X745000Y715000D01*
X770000Y740000D01*
X520000Y205000D02*
X517200Y204800D01*
X770000Y740000D02*
X771500Y742800D01*
X380000Y615000D02*
X360000Y595000D01*
X345000Y580000D01*
X380000Y615000D02*
X380000Y665000D01*
X345000Y580000D02*
X344500Y577100D01*
X380000Y665000D02*
X381350Y667600D01*
X360000Y505000D02*
X390000Y475000D01*
X360000Y505000D02*
X360000Y595000D01*
D36*
X390000Y475000D03*
D34*
X750000Y640000D02*
X760000Y630000D01*
X750000Y640000D02*
X750000Y690000D01*
X770000Y710000D01*
X770000Y715000D01*
X760000Y630000D02*
X763900Y625500D01*
X770000Y715000D02*
X771500Y717400D01*
M02*
