G04 EAGLE Gerber RS-274X export*
G75*
%MOMM*%
%FSLAX34Y34*%
%LPD*%
%IN*%
%IPPOS*%
%AMOC8*
5,1,8,0,0,1.08239X$1,22.5*%
G01*
%ADD10C,0.254000*%


D10*
X0Y0D02*
X850000Y0D01*
X850000Y770000D01*
X0Y770000D01*
X0Y0D01*
X256000Y725000D02*
X284000Y725000D01*
X284000Y735000D01*
X256000Y735000D01*
X256000Y725000D01*
X253500Y664000D02*
X286500Y664000D01*
X286500Y674000D01*
X253500Y674000D01*
X253500Y664000D01*
X217000Y686000D02*
X227000Y686000D01*
X227000Y714000D01*
X217000Y714000D01*
X217000Y686000D01*
X45000Y29464D02*
X44924Y28396D01*
X44771Y27335D01*
X44543Y26288D01*
X44241Y25260D01*
X43867Y24256D01*
X43422Y23281D01*
X42908Y22341D01*
X42329Y21440D01*
X41687Y20582D01*
X40985Y19772D01*
X40228Y19015D01*
X39418Y18313D01*
X38560Y17671D01*
X37659Y17092D01*
X36719Y16578D01*
X35744Y16133D01*
X34740Y15759D01*
X33712Y15457D01*
X32665Y15229D01*
X31604Y15076D01*
X30536Y15000D01*
X29464Y15000D01*
X28396Y15076D01*
X27335Y15229D01*
X26288Y15457D01*
X25260Y15759D01*
X24256Y16133D01*
X23281Y16578D01*
X22341Y17092D01*
X21440Y17671D01*
X20582Y18313D01*
X19772Y19015D01*
X19015Y19772D01*
X18313Y20582D01*
X17671Y21440D01*
X17092Y22341D01*
X16578Y23281D01*
X16133Y24256D01*
X15759Y25260D01*
X15457Y26288D01*
X15229Y27335D01*
X15076Y28396D01*
X15000Y29464D01*
X15000Y30536D01*
X15076Y31604D01*
X15229Y32665D01*
X15457Y33712D01*
X15759Y34740D01*
X16133Y35744D01*
X16578Y36719D01*
X17092Y37659D01*
X17671Y38560D01*
X18313Y39418D01*
X19015Y40228D01*
X19772Y40985D01*
X20582Y41687D01*
X21440Y42329D01*
X22341Y42908D01*
X23281Y43422D01*
X24256Y43867D01*
X25260Y44241D01*
X26288Y44543D01*
X27335Y44771D01*
X28396Y44924D01*
X29464Y45000D01*
X30536Y45000D01*
X31604Y44924D01*
X32665Y44771D01*
X33712Y44543D01*
X34740Y44241D01*
X35744Y43867D01*
X36719Y43422D01*
X37659Y42908D01*
X38560Y42329D01*
X39418Y41687D01*
X40228Y40985D01*
X40985Y40228D01*
X41687Y39418D01*
X42329Y38560D01*
X42908Y37659D01*
X43422Y36719D01*
X43867Y35744D01*
X44241Y34740D01*
X44543Y33712D01*
X44771Y32665D01*
X44924Y31604D01*
X45000Y30536D01*
X45000Y29464D01*
X835000Y29464D02*
X834924Y28396D01*
X834771Y27335D01*
X834543Y26288D01*
X834241Y25260D01*
X833867Y24256D01*
X833422Y23281D01*
X832908Y22341D01*
X832329Y21440D01*
X831687Y20582D01*
X830985Y19772D01*
X830228Y19015D01*
X829418Y18313D01*
X828560Y17671D01*
X827659Y17092D01*
X826719Y16578D01*
X825744Y16133D01*
X824740Y15759D01*
X823712Y15457D01*
X822665Y15229D01*
X821604Y15076D01*
X820536Y15000D01*
X819464Y15000D01*
X818396Y15076D01*
X817335Y15229D01*
X816288Y15457D01*
X815260Y15759D01*
X814256Y16133D01*
X813281Y16578D01*
X812341Y17092D01*
X811440Y17671D01*
X810582Y18313D01*
X809772Y19015D01*
X809015Y19772D01*
X808313Y20582D01*
X807671Y21440D01*
X807092Y22341D01*
X806578Y23281D01*
X806133Y24256D01*
X805759Y25260D01*
X805457Y26288D01*
X805229Y27335D01*
X805076Y28396D01*
X805000Y29464D01*
X805000Y30536D01*
X805076Y31604D01*
X805229Y32665D01*
X805457Y33712D01*
X805759Y34740D01*
X806133Y35744D01*
X806578Y36719D01*
X807092Y37659D01*
X807671Y38560D01*
X808313Y39418D01*
X809015Y40228D01*
X809772Y40985D01*
X810582Y41687D01*
X811440Y42329D01*
X812341Y42908D01*
X813281Y43422D01*
X814256Y43867D01*
X815260Y44241D01*
X816288Y44543D01*
X817335Y44771D01*
X818396Y44924D01*
X819464Y45000D01*
X820536Y45000D01*
X821604Y44924D01*
X822665Y44771D01*
X823712Y44543D01*
X824740Y44241D01*
X825744Y43867D01*
X826719Y43422D01*
X827659Y42908D01*
X828560Y42329D01*
X829418Y41687D01*
X830228Y40985D01*
X830985Y40228D01*
X831687Y39418D01*
X832329Y38560D01*
X832908Y37659D01*
X833422Y36719D01*
X833867Y35744D01*
X834241Y34740D01*
X834543Y33712D01*
X834771Y32665D01*
X834924Y31604D01*
X835000Y30536D01*
X835000Y29464D01*
X825000Y659464D02*
X824924Y658396D01*
X824771Y657335D01*
X824543Y656288D01*
X824241Y655260D01*
X823867Y654256D01*
X823422Y653281D01*
X822908Y652341D01*
X822329Y651440D01*
X821687Y650582D01*
X820985Y649772D01*
X820228Y649015D01*
X819418Y648313D01*
X818560Y647671D01*
X817659Y647092D01*
X816719Y646578D01*
X815744Y646133D01*
X814740Y645759D01*
X813712Y645457D01*
X812665Y645229D01*
X811604Y645076D01*
X810536Y645000D01*
X809464Y645000D01*
X808396Y645076D01*
X807335Y645229D01*
X806288Y645457D01*
X805260Y645759D01*
X804256Y646133D01*
X803281Y646578D01*
X802341Y647092D01*
X801440Y647671D01*
X800582Y648313D01*
X799772Y649015D01*
X799015Y649772D01*
X798313Y650582D01*
X797671Y651440D01*
X797092Y652341D01*
X796578Y653281D01*
X796133Y654256D01*
X795759Y655260D01*
X795457Y656288D01*
X795229Y657335D01*
X795076Y658396D01*
X795000Y659464D01*
X795000Y660536D01*
X795076Y661604D01*
X795229Y662665D01*
X795457Y663712D01*
X795759Y664740D01*
X796133Y665744D01*
X796578Y666719D01*
X797092Y667659D01*
X797671Y668560D01*
X798313Y669418D01*
X799015Y670228D01*
X799772Y670985D01*
X800582Y671687D01*
X801440Y672329D01*
X802341Y672908D01*
X803281Y673422D01*
X804256Y673867D01*
X805260Y674241D01*
X806288Y674543D01*
X807335Y674771D01*
X808396Y674924D01*
X809464Y675000D01*
X810536Y675000D01*
X811604Y674924D01*
X812665Y674771D01*
X813712Y674543D01*
X814740Y674241D01*
X815744Y673867D01*
X816719Y673422D01*
X817659Y672908D01*
X818560Y672329D01*
X819418Y671687D01*
X820228Y670985D01*
X820985Y670228D01*
X821687Y669418D01*
X822329Y668560D01*
X822908Y667659D01*
X823422Y666719D01*
X823867Y665744D01*
X824241Y664740D01*
X824543Y663712D01*
X824771Y662665D01*
X824924Y661604D01*
X825000Y660536D01*
X825000Y659464D01*
X45000Y739464D02*
X44924Y738396D01*
X44771Y737335D01*
X44543Y736288D01*
X44241Y735260D01*
X43867Y734256D01*
X43422Y733281D01*
X42908Y732341D01*
X42329Y731440D01*
X41687Y730582D01*
X40985Y729772D01*
X40228Y729015D01*
X39418Y728313D01*
X38560Y727671D01*
X37659Y727092D01*
X36719Y726578D01*
X35744Y726133D01*
X34740Y725759D01*
X33712Y725457D01*
X32665Y725229D01*
X31604Y725076D01*
X30536Y725000D01*
X29464Y725000D01*
X28396Y725076D01*
X27335Y725229D01*
X26288Y725457D01*
X25260Y725759D01*
X24256Y726133D01*
X23281Y726578D01*
X22341Y727092D01*
X21440Y727671D01*
X20582Y728313D01*
X19772Y729015D01*
X19015Y729772D01*
X18313Y730582D01*
X17671Y731440D01*
X17092Y732341D01*
X16578Y733281D01*
X16133Y734256D01*
X15759Y735260D01*
X15457Y736288D01*
X15229Y737335D01*
X15076Y738396D01*
X15000Y739464D01*
X15000Y740536D01*
X15076Y741604D01*
X15229Y742665D01*
X15457Y743712D01*
X15759Y744740D01*
X16133Y745744D01*
X16578Y746719D01*
X17092Y747659D01*
X17671Y748560D01*
X18313Y749418D01*
X19015Y750228D01*
X19772Y750985D01*
X20582Y751687D01*
X21440Y752329D01*
X22341Y752908D01*
X23281Y753422D01*
X24256Y753867D01*
X25260Y754241D01*
X26288Y754543D01*
X27335Y754771D01*
X28396Y754924D01*
X29464Y755000D01*
X30536Y755000D01*
X31604Y754924D01*
X32665Y754771D01*
X33712Y754543D01*
X34740Y754241D01*
X35744Y753867D01*
X36719Y753422D01*
X37659Y752908D01*
X38560Y752329D01*
X39418Y751687D01*
X40228Y750985D01*
X40985Y750228D01*
X41687Y749418D01*
X42329Y748560D01*
X42908Y747659D01*
X43422Y746719D01*
X43867Y745744D01*
X44241Y744740D01*
X44543Y743712D01*
X44771Y742665D01*
X44924Y741604D01*
X45000Y740536D01*
X45000Y739464D01*
X375000Y449464D02*
X374924Y448396D01*
X374771Y447335D01*
X374543Y446288D01*
X374241Y445260D01*
X373867Y444256D01*
X373422Y443281D01*
X372908Y442341D01*
X372329Y441440D01*
X371687Y440582D01*
X370985Y439772D01*
X370228Y439015D01*
X369418Y438313D01*
X368560Y437671D01*
X367659Y437092D01*
X366719Y436578D01*
X365744Y436133D01*
X364740Y435759D01*
X363712Y435457D01*
X362665Y435229D01*
X361604Y435076D01*
X360536Y435000D01*
X359464Y435000D01*
X358396Y435076D01*
X357335Y435229D01*
X356288Y435457D01*
X355260Y435759D01*
X354256Y436133D01*
X353281Y436578D01*
X352341Y437092D01*
X351440Y437671D01*
X350582Y438313D01*
X349772Y439015D01*
X349015Y439772D01*
X348313Y440582D01*
X347671Y441440D01*
X347092Y442341D01*
X346578Y443281D01*
X346133Y444256D01*
X345759Y445260D01*
X345457Y446288D01*
X345229Y447335D01*
X345076Y448396D01*
X345000Y449464D01*
X345000Y450536D01*
X345076Y451604D01*
X345229Y452665D01*
X345457Y453712D01*
X345759Y454740D01*
X346133Y455744D01*
X346578Y456719D01*
X347092Y457659D01*
X347671Y458560D01*
X348313Y459418D01*
X349015Y460228D01*
X349772Y460985D01*
X350582Y461687D01*
X351440Y462329D01*
X352341Y462908D01*
X353281Y463422D01*
X354256Y463867D01*
X355260Y464241D01*
X356288Y464543D01*
X357335Y464771D01*
X358396Y464924D01*
X359464Y465000D01*
X360536Y465000D01*
X361604Y464924D01*
X362665Y464771D01*
X363712Y464543D01*
X364740Y464241D01*
X365744Y463867D01*
X366719Y463422D01*
X367659Y462908D01*
X368560Y462329D01*
X369418Y461687D01*
X370228Y460985D01*
X370985Y460228D01*
X371687Y459418D01*
X372329Y458560D01*
X372908Y457659D01*
X373422Y456719D01*
X373867Y455744D01*
X374241Y454740D01*
X374543Y453712D01*
X374771Y452665D01*
X374924Y451604D01*
X375000Y450536D01*
X375000Y449464D01*
X447644Y731632D02*
X447714Y732694D01*
X447853Y733749D01*
X448060Y734793D01*
X448336Y735821D01*
X448678Y736829D01*
X449085Y737813D01*
X449556Y738767D01*
X450088Y739689D01*
X450679Y740574D01*
X451327Y741418D01*
X452029Y742218D01*
X452782Y742971D01*
X453582Y743673D01*
X454426Y744321D01*
X455311Y744912D01*
X456233Y745444D01*
X457187Y745915D01*
X458171Y746322D01*
X459179Y746664D01*
X460207Y746940D01*
X461251Y747147D01*
X462306Y747286D01*
X463368Y747356D01*
X464432Y747356D01*
X465494Y747286D01*
X466549Y747147D01*
X467593Y746940D01*
X468621Y746664D01*
X469629Y746322D01*
X470613Y745915D01*
X471567Y745444D01*
X472489Y744912D01*
X473374Y744321D01*
X474218Y743673D01*
X475018Y742971D01*
X475771Y742218D01*
X476473Y741418D01*
X477121Y740574D01*
X477712Y739689D01*
X478244Y738767D01*
X478715Y737813D01*
X479122Y736829D01*
X479464Y735821D01*
X479740Y734793D01*
X479947Y733749D01*
X480086Y732694D01*
X480156Y731632D01*
X480156Y730568D01*
X480086Y729506D01*
X479947Y728451D01*
X479740Y727407D01*
X479464Y726379D01*
X479122Y725371D01*
X478715Y724387D01*
X478244Y723433D01*
X477712Y722511D01*
X477121Y721626D01*
X476473Y720782D01*
X475771Y719982D01*
X475018Y719229D01*
X474218Y718527D01*
X473374Y717879D01*
X472489Y717288D01*
X471567Y716756D01*
X470613Y716285D01*
X469629Y715878D01*
X468621Y715536D01*
X467593Y715260D01*
X466549Y715053D01*
X465494Y714914D01*
X464432Y714844D01*
X463368Y714844D01*
X462306Y714914D01*
X461251Y715053D01*
X460207Y715260D01*
X459179Y715536D01*
X458171Y715878D01*
X457187Y716285D01*
X456233Y716756D01*
X455311Y717288D01*
X454426Y717879D01*
X453582Y718527D01*
X452782Y719229D01*
X452029Y719982D01*
X451327Y720782D01*
X450679Y721626D01*
X450088Y722511D01*
X449556Y723433D01*
X449085Y724387D01*
X448678Y725371D01*
X448336Y726379D01*
X448060Y727407D01*
X447853Y728451D01*
X447714Y729506D01*
X447644Y730568D01*
X447644Y731632D01*
X346044Y731632D02*
X346114Y732694D01*
X346253Y733749D01*
X346460Y734793D01*
X346736Y735821D01*
X347078Y736829D01*
X347485Y737813D01*
X347956Y738767D01*
X348488Y739689D01*
X349079Y740574D01*
X349727Y741418D01*
X350429Y742218D01*
X351182Y742971D01*
X351982Y743673D01*
X352826Y744321D01*
X353711Y744912D01*
X354633Y745444D01*
X355587Y745915D01*
X356571Y746322D01*
X357579Y746664D01*
X358607Y746940D01*
X359651Y747147D01*
X360706Y747286D01*
X361768Y747356D01*
X362832Y747356D01*
X363894Y747286D01*
X364949Y747147D01*
X365993Y746940D01*
X367021Y746664D01*
X368029Y746322D01*
X369013Y745915D01*
X369967Y745444D01*
X370889Y744912D01*
X371774Y744321D01*
X372618Y743673D01*
X373418Y742971D01*
X374171Y742218D01*
X374873Y741418D01*
X375521Y740574D01*
X376112Y739689D01*
X376644Y738767D01*
X377115Y737813D01*
X377522Y736829D01*
X377864Y735821D01*
X378140Y734793D01*
X378347Y733749D01*
X378486Y732694D01*
X378556Y731632D01*
X378556Y730568D01*
X378486Y729506D01*
X378347Y728451D01*
X378140Y727407D01*
X377864Y726379D01*
X377522Y725371D01*
X377115Y724387D01*
X376644Y723433D01*
X376112Y722511D01*
X375521Y721626D01*
X374873Y720782D01*
X374171Y719982D01*
X373418Y719229D01*
X372618Y718527D01*
X371774Y717879D01*
X370889Y717288D01*
X369967Y716756D01*
X369013Y716285D01*
X368029Y715878D01*
X367021Y715536D01*
X365993Y715260D01*
X364949Y715053D01*
X363894Y714914D01*
X362832Y714844D01*
X361768Y714844D01*
X360706Y714914D01*
X359651Y715053D01*
X358607Y715260D01*
X357579Y715536D01*
X356571Y715878D01*
X355587Y716285D01*
X354633Y716756D01*
X353711Y717288D01*
X352826Y717879D01*
X351982Y718527D01*
X351182Y719229D01*
X350429Y719982D01*
X349727Y720782D01*
X349079Y721626D01*
X348488Y722511D01*
X347956Y723433D01*
X347485Y724387D01*
X347078Y725371D01*
X346736Y726379D01*
X346460Y727407D01*
X346253Y728451D01*
X346114Y729506D01*
X346044Y730568D01*
X346044Y731632D01*
M02*
