M48
;GenerationSoftware,Autodesk,EAGLE,9.6.2*%
;CreationDate,2022-07-04T16:36:52Z*%
FMAT,2
ICI,OFF
METRIC,TZ,000.000
T12C0.350
T11C0.600
T10C0.813
T9C0.900
T8C0.965
T7C1.000
T6C1.016
T5C1.020
T4C1.118
T3C2.500
T2C3.000
T1C3.251
%
G90
M71
T1
X46390Y73110
X36230Y73110
T2
X3000Y3000
X82000Y3000
X81000Y66000
X3000Y74000
X36000Y45000
X30460Y59950
X6330Y59950
T3
X52940Y70630
X65040Y70630
T4
X12850Y33040
X2690Y33040
T5
X15450Y27650
X15450Y12410
X15450Y14950
X15450Y30190
X28150Y30190
X15450Y17490
X15450Y20030
X28150Y27650
X28150Y25110
X15450Y22570
X15450Y25110
X28150Y22570
X28150Y17490
X28150Y14950
X28150Y20030
X28150Y12410
X66940Y11410
X66940Y13950
X66940Y16490
X66940Y19030
X66940Y21570
X66940Y24110
X66940Y26650
X66940Y29190
X79640Y29190
X79640Y26650
X79640Y24110
X79640Y19030
X79640Y16490
X79640Y13950
X79640Y11410
X79640Y21570
T6
X28100Y44070
X55660Y34930
X58200Y34930
X64010Y35930
X66550Y35930
X15070Y49480
X15070Y44400
X59960Y16240
X77930Y56170
X53930Y45660
X53930Y50740
X6070Y44770
X6070Y39690
X49930Y59290
X49930Y56750
X30640Y44070
X77930Y51090
X5960Y20020
X62610Y57800
X60070Y57800
X57530Y57800
X65150Y57800
X59960Y18780
X59960Y21320
X59960Y23860
X5960Y22560
X5960Y25100
X5960Y17480
X20260Y38040
X22800Y38040
X25340Y38040
X17720Y38040
T7
X60240Y65930
X57740Y65930
X7090Y50980
X60240Y67930
X57740Y67930
X3590Y50980
X27000Y66900
X27000Y73000
X22200Y70000
T8
X51720Y30640
X36480Y35720
X51720Y33180
X36480Y38260
X51720Y38260
X51720Y35720
X49180Y5240
X46640Y5240
X44100Y5240
X41560Y5240
X39020Y5240
X36480Y33180
X36480Y30640
X36480Y28100
X36480Y25560
X36480Y23020
X36480Y20480
X36480Y17940
X36480Y15400
X36480Y12860
X36480Y10320
X36480Y7780
X36480Y5240
X51720Y5240
X51720Y7780
X51720Y10320
X51720Y12860
X51720Y15400
X51720Y17940
X51720Y20480
X51720Y23020
X51720Y25560
X51720Y28100
T9
X39405Y64220
X43215Y66760
X41945Y64220
X40675Y66760
X44485Y64220
X38135Y66760
T10
X60850Y45310
X60850Y50390
X71150Y56310
X71150Y51230
X21850Y44070
X21850Y49150
X68770Y62550
X76550Y66550
X68930Y66550
X34450Y57710
X76390Y62550
X34450Y50090
X38450Y57870
X38450Y50250
X42450Y58030
X42450Y50410
X46070Y57690
X15150Y72140
X46070Y50070
X11150Y68070
X18770Y68070
X77150Y74280
X77150Y71740
X70150Y73980
X70150Y71440
X15150Y74680
X62810Y40000
X55190Y40000
X24190Y47000
X31810Y47000
X69810Y43000
X62190Y43000
T11
X77715Y46080
X80255Y46080
X75175Y46080
T12
X73500Y31000
X73000Y32000
X39000Y47500
M30